<svg width="273" height="56" viewBox="0 0 273 56" fill="none" xmlns="http://www.w3.org/2000/svg">
<g clip-path="url(#clip0)">
<rect width="273" height="56" fill="white"/>
<g clip-path="url(#clip1)">
<path d="M38.9468 39.3867C38.9421 39.2726 38.931 39.1589 38.9136 39.0461C38.9417 38.8635 38.9551 38.6789 38.9535 38.4942C38.9535 38.4298 38.9501 38.3628 38.9435 38.2932C38.9556 38.172 38.9611 38.0504 38.9601 37.9286C38.9601 37.9207 38.949 36.9736 38.9468 36.9191C38.9418 36.805 38.9307 36.6913 38.9136 36.5784C38.9412 36.3951 38.9546 36.2098 38.9535 36.0242C38.9535 35.955 38.9535 35.8834 38.9424 35.8073C38.9532 35.69 38.9581 35.5721 38.9568 35.4542V35.3645C38.9468 34.4866 38.9457 34.4776 38.9446 34.456C38.9402 34.3454 38.9302 34.2342 38.9147 34.1221C38.9423 33.938 38.9556 33.7519 38.9546 33.5657C38.9391 32.2711 38.1735 31.0526 36.8496 30.2236C35.6929 29.4968 34.1796 29.096 32.5886 29.096H32.4756C28.8728 29.1391 26.0742 31.1707 26.1031 33.7201C26.1054 33.8649 26.1165 34.0094 26.1363 34.1528C26.1208 34.255 26.1097 34.3572 26.1031 34.4571C26.0953 34.5888 26.1031 35.6109 26.1031 35.6211C26.1031 35.6907 26.1064 35.7634 26.113 35.8391C26.1022 35.9558 26.0974 36.0729 26.0986 36.19C26.101 36.3348 26.1121 36.4793 26.1319 36.6227C26.1163 36.7249 26.1053 36.8271 26.0986 36.927C26.0909 37.0588 26.0986 38.0808 26.0986 38.091C26.0986 38.1607 26.1019 38.2333 26.1086 38.309C26.0977 38.4257 26.0929 38.5428 26.0942 38.6599C26.0965 38.8047 26.1076 38.9492 26.1274 39.0926C26.1119 39.1948 26.1008 39.297 26.0942 39.397C26.0864 39.5287 26.0942 40.5507 26.0942 40.5609C26.0942 40.6306 26.0975 40.7033 26.1042 40.779C26.0933 40.8956 26.0885 41.0127 26.0898 41.1299C26.0921 41.2747 26.1032 41.4192 26.123 41.5625C26.1075 41.6647 26.0964 41.7669 26.0898 41.8669C26.082 41.9986 26.0898 43.0206 26.0898 43.0309C26.0898 43.1005 26.0931 43.1732 26.0997 43.2489C26.0889 43.3655 26.0841 43.4826 26.0853 43.5998C26.0877 43.7446 26.0988 43.8891 26.1186 44.0324C26.1031 44.1347 26.092 44.2369 26.0853 44.3368C26.0776 44.4685 26.0853 45.4906 26.0853 45.5008C26.0997 46.8022 26.8608 48.0297 28.1803 48.8667C29.3392 49.6025 30.8548 50.0079 32.4479 50.0079H32.5587C32.6695 50.0079 32.7892 50.0079 32.9254 49.9966H32.9465H32.9764C33.0739 49.9909 33.1725 49.9841 33.27 49.975H33.2944H33.3232C33.4816 49.9603 33.6367 49.941 33.7863 49.9194H33.8217L33.876 49.9103C33.9624 49.8967 34.0488 49.8819 34.1341 49.866L34.1718 49.8592L34.2117 49.8512C34.3635 49.8206 34.5142 49.7876 34.6549 49.7502C34.6695 49.7478 34.6839 49.7444 34.6981 49.7399L34.7579 49.7241C34.8377 49.7025 34.9174 49.6798 34.9961 49.6559L35.0537 49.64L35.1002 49.6241C35.2509 49.5776 35.3994 49.5253 35.5434 49.4708L35.5932 49.4526L35.642 49.4333L35.8924 49.3289L35.9555 49.3016L36.0109 49.2744C36.1605 49.2051 36.3089 49.1301 36.4541 49.0472L36.5117 49.0166L36.5759 48.978C36.6601 48.9291 36.7366 48.8826 36.8097 48.8349C36.8385 48.819 36.8629 48.8031 36.8873 48.7872C36.9116 48.7713 36.9271 48.7599 36.946 48.7452C37.1074 48.6359 37.2631 48.518 37.4124 48.392C37.4312 48.3772 37.4512 48.3613 37.47 48.3443C37.6124 48.2218 37.7474 48.0906 37.8744 47.9514C37.8943 47.9298 37.9132 47.9082 37.9309 47.8855C38.1386 47.6516 38.3199 47.3945 38.4715 47.119C38.4893 47.0917 38.5048 47.0634 38.5203 47.035C38.7924 46.5194 38.9326 45.9416 38.928 45.3554C38.928 45.3475 38.9169 44.4004 38.9147 44.3459C38.91 44.2318 38.8989 44.118 38.8815 44.0052C38.9096 43.8227 38.9229 43.6381 38.9213 43.4533C38.9213 43.3874 38.9213 43.3204 38.9114 43.2489C38.9234 43.1274 38.929 43.0053 38.928 42.8832C38.928 42.8753 38.9169 41.9282 38.9147 41.8737C38.91 41.7596 38.8989 41.6458 38.8815 41.533C38.9096 41.3505 38.9229 41.1659 38.9213 40.9811C38.9213 40.9152 38.9213 40.8482 38.9114 40.7767C38.9234 40.6552 38.929 40.5331 38.928 40.411C38.9601 40.3883 38.949 39.4412 38.9468 39.3867Z" fill="#243047"/>
<path d="M32.4834 41.1685C35.3251 41.1344 37.6528 42.5664 37.727 44.3788C37.727 44.4004 37.7392 45.3293 37.7392 45.3509C37.7614 47.1939 35.447 48.7168 32.5709 48.752C29.6948 48.7872 27.3461 47.32 27.3251 45.4769C27.3251 45.4224 27.3151 44.4617 27.3184 44.4083C27.4292 42.6379 29.6915 41.2025 32.4834 41.1685Z" fill="#F7A937"/>
<path d="M32.5689 46.8106C35.4451 46.7756 37.7596 45.2703 37.7385 43.4485C37.7174 41.6267 35.3687 40.1782 32.4925 40.2132C29.6163 40.2482 27.3017 41.7534 27.3228 43.5752C27.3439 45.3971 29.6927 46.8456 32.5689 46.8106Z" fill="#FFDA65"/>
<path d="M32.5602 46.0611C34.7811 46.0341 36.5683 44.8714 36.552 43.4641C36.5357 42.0568 34.7221 40.9379 32.5011 40.9649C30.2802 40.992 28.493 42.1547 28.5093 43.562C28.5256 44.9692 30.3392 46.0881 32.5602 46.0611Z" fill="#FFC840"/>
<path d="M32.4834 38.6986C35.3251 38.6645 37.6528 40.0965 37.727 41.9089C37.727 41.9305 37.7392 42.8594 37.7392 42.881C37.7614 44.724 35.447 46.2469 32.5709 46.2821C29.6948 46.3173 27.3461 44.8501 27.3251 43.007C27.3251 42.9525 27.3151 41.9918 27.3184 41.9384C27.4292 40.168 29.6915 38.7326 32.4834 38.6986Z" fill="#F7A937"/>
<path d="M32.5691 44.3408C35.4453 44.3058 37.7598 42.8006 37.7387 40.9788C37.7176 39.157 35.3689 37.7085 32.4927 37.7435C29.6165 37.7785 27.302 39.2837 27.323 41.1055C27.3441 42.9273 29.6929 44.3758 32.5691 44.3408Z" fill="#FFDA65"/>
<path d="M32.5604 43.5902C34.7813 43.5632 36.5685 42.4005 36.5522 40.9932C36.5359 39.586 34.7223 38.4671 32.5014 38.4941C30.2804 38.5211 28.4932 39.6838 28.5095 41.0911C28.5258 42.4983 30.3394 43.6173 32.5604 43.5902Z" fill="#FFC840"/>
<path d="M32.4834 36.2286C35.3251 36.1946 37.6528 37.6266 37.727 39.439C37.727 39.4605 37.7392 40.3895 37.7392 40.411C37.7614 42.2541 35.447 43.7769 32.5709 43.8121C29.6948 43.8473 27.3461 42.3802 27.3251 40.5371C27.3251 40.4826 27.3151 39.5219 27.3184 39.4685C27.4292 37.6981 29.6915 36.2627 32.4834 36.2286Z" fill="#F7A937"/>
<path d="M32.5681 41.8711C35.4443 41.8361 37.7589 40.3308 37.7378 38.509C37.7167 36.6872 35.368 35.2387 32.4918 35.2737C29.6156 35.3087 27.301 36.814 27.3221 38.6358C27.3432 40.4576 29.6919 41.9061 32.5681 41.8711Z" fill="#FFDA65"/>
<path d="M32.5595 41.1205C34.7804 41.0935 36.5676 39.9307 36.5513 38.5235C36.535 37.1162 34.7214 35.9973 32.5005 36.0243C30.2795 36.0513 28.4923 37.214 28.5086 38.6213C28.5249 40.0286 30.3386 41.1475 32.5595 41.1205Z" fill="#FFC840"/>
<path d="M32.4834 33.7587C35.3251 33.7247 37.6528 35.1566 37.727 36.9691C37.727 36.9906 37.7392 37.9195 37.7392 37.9411C37.7614 39.7842 35.447 41.307 32.5709 41.3422C29.6948 41.3774 27.3461 39.9068 27.3251 38.0672C27.3251 38.0127 27.3151 37.052 27.3184 36.9986C27.4292 35.2282 29.6915 33.7928 32.4834 33.7587Z" fill="#F7A937"/>
<path d="M32.5684 39.4013C35.4446 39.3663 37.7591 37.8611 37.738 36.0393C37.7169 34.2175 35.3682 32.769 32.492 32.804C29.6158 32.839 27.3013 34.3442 27.3223 36.166C27.3434 37.9878 29.6922 39.4363 32.5684 39.4013Z" fill="#FFDA65"/>
<path d="M32.5597 38.6508C34.7806 38.6237 36.5678 37.461 36.5515 36.0537C36.5352 34.6465 34.7216 33.5275 32.5007 33.5546C30.2797 33.5816 28.4925 34.7443 28.5088 36.1516C28.5251 37.5589 30.3387 38.6778 32.5597 38.6508Z" fill="#FFC840"/>
<path d="M32.4834 31.2888C35.3251 31.2547 37.6528 32.6867 37.727 34.4991C37.727 34.5207 37.7392 35.4496 37.7392 35.4712C37.7614 37.3143 35.447 38.8371 32.5709 38.8723C29.6948 38.9075 27.3461 37.4403 27.3251 35.5972C27.3251 35.5427 27.3151 34.582 27.3184 34.5286C27.4292 32.7583 29.6915 31.3229 32.4834 31.2888Z" fill="#F7A937"/>
<path d="M32.5686 36.9316C35.4448 36.8966 37.7593 35.3914 37.7382 33.5696C37.7171 31.7478 35.3684 30.2993 32.4922 30.3342C29.616 30.3692 27.3015 31.8745 27.3226 33.6963C27.3437 35.5181 29.6924 36.9666 32.5686 36.9316Z" fill="#FFDA65"/>
<path d="M32.4989 31.0867C34.7147 31.0606 36.5338 32.1791 36.5493 33.585C36.5649 34.9908 34.7767 36.1548 32.5609 36.1809C30.3452 36.2071 28.526 35.0896 28.5105 33.6826C28.495 32.2756 30.2776 31.1139 32.4989 31.0867Z" fill="#FFC840"/>
<path d="M35.9544 42.965C36.0652 42.9059 36.1616 42.8446 36.2591 42.7799V40.8494C36.1616 40.9141 36.0597 40.9754 35.9544 41.0345V42.965Z" fill="#FFB842"/>
<path d="M36.2591 43.3193C36.1616 43.384 36.0597 43.4453 35.9544 43.5044V45.4349C36.0652 45.3759 36.1616 45.3145 36.2591 45.2498V43.3193Z" fill="#FFB842"/>
<path d="M36.7155 40.5064V42.4369C36.8223 42.3447 36.9236 42.2461 37.0191 42.1417V40.2112C36.9239 40.3159 36.8225 40.4145 36.7155 40.5064Z" fill="#FFB842"/>
<path d="M34.7368 44.0166C34.6371 44.0472 34.5352 44.0756 34.4322 44.1017V46.039C34.5352 46.0118 34.6371 45.9834 34.7368 45.9527V44.0166Z" fill="#FFB842"/>
<path d="M35.498 43.7327C35.3983 43.7769 35.2974 43.8201 35.1933 43.8598V45.7904C35.2974 45.7495 35.3994 45.7075 35.498 45.6632V43.7327Z" fill="#FFB842"/>
<path d="M33.9757 44.2039C33.876 44.2232 33.7741 44.2403 33.6711 44.255V46.1935C33.7741 46.1776 33.876 46.1606 33.9757 46.1412V44.2039Z" fill="#FFB842"/>
<path d="M33.6711 43.7236C33.7741 43.7077 33.876 43.6906 33.9757 43.6713V41.734C33.876 41.7533 33.7741 41.7703 33.6711 41.7851V43.7236Z" fill="#FFB842"/>
<path d="M32.911 43.7996C33.0129 43.7996 33.1149 43.7872 33.2146 43.7781V41.8373C33.1149 41.8464 33.0129 41.8532 32.911 41.8589V43.7996Z" fill="#FFB842"/>
<path d="M34.4322 43.5691C34.5352 43.5419 34.6371 43.5135 34.7368 43.4828V41.5466C34.6371 41.5773 34.5352 41.6057 34.4322 41.6318V43.5691Z" fill="#FFB842"/>
<path d="M35.1933 43.325C35.2974 43.2841 35.3994 43.2421 35.498 43.1978V41.2673C35.3983 41.3116 35.2974 41.3547 35.1933 41.3945V43.325Z" fill="#FFB842"/>
<path d="M28.649 43.2716C28.5382 43.1967 28.4407 43.1183 28.3454 43.0377V44.9557C28.4407 45.0386 28.5426 45.1181 28.649 45.1942V43.2716Z" fill="#FFB842"/>
<path d="M27.889 42.5732C27.7728 42.4298 27.6707 42.275 27.5843 42.111V44.0165C27.6701 44.183 27.7722 44.3402 27.889 44.4855V42.5732Z" fill="#FFB842"/>
<path d="M33.2146 44.3095C33.1149 44.3186 33.0129 44.3254 32.911 44.3311V46.2662C33.0129 46.2662 33.1149 46.2537 33.2146 46.2446V44.3095Z" fill="#FFB842"/>
<path d="M29.4101 43.7077C29.306 43.6588 29.204 43.6077 29.1065 43.5544V45.4849C29.204 45.5394 29.306 45.5916 29.4101 45.6416V43.7077Z" fill="#FFB842"/>
<path d="M36.7155 42.9729V44.9035C36.8223 44.8112 36.9236 44.7126 37.0191 44.6082V42.6777C36.9239 42.7824 36.8225 42.881 36.7155 42.9729Z" fill="#FFB842"/>
<path d="M37.7304 41.9089C37.7246 41.7761 37.7064 41.6441 37.6761 41.5148C37.6303 41.6976 37.5633 41.8741 37.4767 42.0406V43.9609C37.6526 43.6296 37.744 43.2581 37.7426 42.881C37.7426 42.8594 37.7315 41.9305 37.7304 41.9089Z" fill="#FFB842"/>
<path d="M32.4546 44.3436C32.3515 44.3436 32.2507 44.3436 32.1499 44.3368V46.2752C32.2507 46.2752 32.3515 46.2809 32.4546 46.2809V44.3436Z" fill="#FFB842"/>
<path d="M30.1712 44.0029C30.0682 43.97 29.9663 43.9359 29.8665 43.8996V45.8301C29.9663 45.8664 30.0682 45.9016 30.1712 45.9346V44.0029Z" fill="#FFB842"/>
<path d="M31.6935 44.3061C31.5904 44.297 31.4896 44.2857 31.3888 44.2721V46.2082C31.4896 46.2219 31.5904 46.2344 31.6935 46.2435V44.3061Z" fill="#FFB842"/>
<path d="M30.9324 44.1971C30.8293 44.1767 30.7285 44.154 30.6277 44.1301V46.0606C30.7274 46.0856 30.8293 46.1072 30.9324 46.1288V44.1971Z" fill="#FFB842"/>
<path d="M32.1499 41.8669V43.8053C32.2507 43.8053 32.3515 43.811 32.4546 43.811V41.8737C32.3515 41.8725 32.254 41.8714 32.1499 41.8669Z" fill="#FFB842"/>
<path d="M31.3888 43.7383C31.4896 43.752 31.5904 43.7644 31.6935 43.7735V41.8374C31.5904 41.8283 31.4896 41.8169 31.3888 41.8033V43.7383Z" fill="#FFB842"/>
<path d="M33.9757 46.6738C33.876 46.6931 33.7741 46.7102 33.6711 46.7249V48.6634C33.7741 48.6475 33.876 48.6305 33.9757 48.6112V46.6738Z" fill="#FFB842"/>
<path d="M32.4546 46.8135C32.3515 46.8135 32.2507 46.8135 32.1499 46.8067V48.7452C32.2507 48.7452 32.3515 48.7508 32.4546 48.7508V46.8135Z" fill="#FFB842"/>
<path d="M33.2146 48.7179V46.7795C33.1149 46.7885 33.0129 46.7954 32.911 46.801V48.7395C33.0129 48.7338 33.1149 48.727 33.2146 48.7179Z" fill="#FFB842"/>
<path d="M31.6935 46.7772C31.5904 46.767 31.4896 46.7556 31.3888 46.742V48.6782C31.4896 48.6918 31.5904 48.7043 31.6935 48.7134V46.7772Z" fill="#FFB842"/>
<path d="M35.498 46.2026C35.3983 46.2469 35.2974 46.29 35.1933 46.3298V48.2603C35.2974 48.2194 35.3994 48.1774 35.498 48.1331V46.2026Z" fill="#FFB842"/>
<path d="M36.2591 45.7892C36.1616 45.8539 36.0597 45.9153 35.9544 45.9743V47.9048C36.0652 47.8458 36.1616 47.7844 36.2591 47.7197V45.7892Z" fill="#FFB842"/>
<path d="M37.7304 44.3788C37.7246 44.246 37.7064 44.114 37.6761 43.9847C37.6303 44.1675 37.5633 44.344 37.4767 44.5105V46.4308C37.6526 46.0995 37.744 45.7281 37.7426 45.3509C37.7426 45.3293 37.7315 44.4004 37.7304 44.3788Z" fill="#FFB842"/>
<path d="M37.6761 39.0449C37.6303 39.2277 37.5633 39.4042 37.4767 39.5707V41.4967C37.6526 41.1654 37.744 40.7939 37.7426 40.4167C37.7426 40.3951 37.7315 39.4662 37.7304 39.4446C37.7249 39.3099 37.7067 39.176 37.6761 39.0449Z" fill="#FFB842"/>
<path d="M37.018 47.0781V45.1476C36.9225 45.252 36.8211 45.3506 36.7144 45.4429V47.3734C36.8211 47.2811 36.9225 47.1825 37.018 47.0781Z" fill="#FFB842"/>
<path d="M34.7368 46.4865C34.6371 46.5171 34.5352 46.5455 34.4322 46.5716V48.509C34.5352 48.4817 34.6371 48.4533 34.7368 48.4227V46.4865Z" fill="#FFB842"/>
<path d="M29.1065 43.0104C29.204 43.0649 29.306 43.1172 29.4101 43.1671V41.2366C29.306 41.1878 29.204 41.1367 29.1065 41.0833V43.0104Z" fill="#FFB842"/>
<path d="M28.3454 42.4858C28.4407 42.5687 28.5426 42.6482 28.649 42.7242V40.8017C28.5382 40.7267 28.4407 40.6484 28.3454 40.5677V42.4858Z" fill="#FFB842"/>
<path d="M27.5843 39.6411V41.5466C27.6701 41.7131 27.7722 41.8703 27.889 42.0156V40.1033C27.7728 39.9599 27.6707 39.8051 27.5843 39.6411Z" fill="#FFB842"/>
<path d="M30.9324 46.667C30.8293 46.6466 30.7285 46.6239 30.6277 46.6V48.5305C30.7274 48.5555 30.8293 48.5771 30.9324 48.5987V46.667Z" fill="#FFB842"/>
<path d="M29.8665 43.3613C29.9663 43.3977 30.0682 43.4329 30.1712 43.4658V41.5353C30.0682 41.5023 29.9663 41.4683 29.8665 41.4319V43.3613Z" fill="#FFB842"/>
<path d="M30.6277 43.5941C30.7274 43.6191 30.8293 43.6407 30.9324 43.6622V41.7238C30.8293 41.7033 30.7285 41.6806 30.6277 41.6568V43.5941Z" fill="#FFB842"/>
<path d="M29.4101 46.1776C29.306 46.1288 29.204 46.0777 29.1065 46.0243V47.9548C29.204 48.0093 29.306 48.0615 29.4101 48.1115V46.1776Z" fill="#FFB842"/>
<path d="M27.889 45.0431C27.7728 44.8997 27.6707 44.7449 27.5843 44.5809V46.4865C27.6701 46.653 27.7722 46.8101 27.889 46.9555V45.0431Z" fill="#FFB842"/>
<path d="M30.1712 46.4728C30.0682 46.4399 29.9663 46.4058 29.8665 46.3695V48.3C29.9663 48.3364 30.0682 48.3716 30.1712 48.4045V46.4728Z" fill="#FFB842"/>
<path d="M28.649 47.6641V45.7415C28.5382 45.6666 28.4407 45.5882 28.3454 45.5076V47.4256C28.4407 47.5085 28.5426 47.588 28.649 47.6641Z" fill="#FFB842"/>
<path d="M36.2591 35.9141C36.1616 35.9788 36.0597 36.0401 35.9544 36.0992V38.0297C36.0652 37.9706 36.1616 37.9093 36.2591 37.8446V35.9141Z" fill="#FFB842"/>
<path d="M34.7368 36.6136C34.6371 36.6443 34.5352 36.6727 34.4322 36.6988V38.6361C34.5352 38.6088 34.6371 38.5805 34.7368 38.5498V36.6136Z" fill="#FFB842"/>
<path d="M35.498 36.3274C35.3983 36.3717 35.2974 36.4149 35.1933 36.4546V38.3851C35.2974 38.3443 35.3994 38.3022 35.498 38.2579V36.3274Z" fill="#FFB842"/>
<path d="M33.9757 36.7987C33.876 36.818 33.7741 36.8351 33.6711 36.8498V38.7883C33.7741 38.7724 33.876 38.7553 33.9757 38.736V36.7987Z" fill="#FFB842"/>
<path d="M28.649 35.8664C28.5382 35.7914 28.4407 35.7131 28.3454 35.6325V37.5505C28.4407 37.6334 28.5426 37.7129 28.649 37.7889V35.8664Z" fill="#FFB842"/>
<path d="M27.889 35.168C27.7728 35.0246 27.6707 34.8698 27.5843 34.7058V36.6136C27.6701 36.7801 27.7722 36.9372 27.889 37.0826V35.168Z" fill="#FFB842"/>
<path d="M33.2146 36.9043C33.1149 36.9134 33.0129 36.9202 32.911 36.9259V38.8644C33.0129 38.8587 33.1149 38.8519 33.2146 38.8428V36.9043Z" fill="#FFB842"/>
<path d="M29.4101 36.3025C29.306 36.2536 29.204 36.2025 29.1065 36.1492V38.0797C29.204 38.1342 29.306 38.1864 29.4101 38.2364V36.3025Z" fill="#FFB842"/>
<path d="M36.7155 35.5723V37.5028C36.8223 37.4105 36.9236 37.3119 37.0191 37.2075V35.277C36.9236 35.3814 36.8222 35.48 36.7155 35.5723Z" fill="#FFB842"/>
<path d="M32.4546 36.9384C32.3515 36.9384 32.2507 36.9384 32.1499 36.9316V38.87C32.2507 38.87 32.3515 38.8757 32.4546 38.8757V36.9384Z" fill="#FFB842"/>
<path d="M30.1712 36.5977C30.0682 36.5648 29.9663 36.5307 29.8665 36.4944V38.4249C29.9663 38.4612 30.0682 38.4964 30.1712 38.5294V36.5977Z" fill="#FFB842"/>
<path d="M31.6935 36.9021C31.5904 36.8918 31.4896 36.8805 31.3888 36.8668V38.7974C31.4896 38.811 31.5904 38.8235 31.6935 38.8326V36.9021Z" fill="#FFB842"/>
<path d="M30.9324 36.7919C30.8293 36.7715 30.7285 36.7487 30.6277 36.7249V38.6554C30.7274 38.6804 30.8293 38.702 30.9324 38.7235V36.7919Z" fill="#FFB842"/>
<path d="M33.9757 39.2686C33.876 39.2879 33.7741 39.305 33.6711 39.3197V41.2582C33.7741 41.2423 33.876 41.2253 33.9757 41.206V39.2686Z" fill="#FFB842"/>
<path d="M32.4546 39.4083C32.3515 39.4083 32.2507 39.4083 32.1499 39.4015V41.34C32.2507 41.34 32.3515 41.3456 32.4546 41.3456V39.4083Z" fill="#FFB842"/>
<path d="M33.2146 41.3127V39.3742C33.1149 39.3833 33.0129 39.3901 32.911 39.3958V41.3343C33.0129 41.3286 33.1149 41.3218 33.2146 41.3127Z" fill="#FFB842"/>
<path d="M31.6935 39.372C31.5904 39.3617 31.4896 39.3504 31.3888 39.3368V41.2673C31.4896 41.2809 31.5904 41.2934 31.6935 41.3025V39.372Z" fill="#FFB842"/>
<path d="M35.498 38.7974C35.3983 38.8416 35.2974 38.8848 35.1933 38.9245V40.8551C35.2974 40.8142 35.3994 40.7722 35.498 40.7279V38.7974Z" fill="#FFB842"/>
<path d="M36.2591 38.384C36.1616 38.4487 36.0597 38.5101 35.9544 38.5691V40.4996C36.0652 40.4406 36.1616 40.3792 36.2591 40.3145V38.384Z" fill="#FFB842"/>
<path d="M37.7304 36.9736C37.7246 36.8408 37.7064 36.7088 37.6761 36.5795C37.6303 36.7623 37.5633 36.9388 37.4767 37.1053V39.0256C37.6526 38.6943 37.744 38.3228 37.7426 37.9457C37.7426 37.9241 37.7315 36.9952 37.7304 36.9736Z" fill="#FFB842"/>
<path d="M37.018 39.6729V37.7492C36.9225 37.8536 36.8211 37.9522 36.7144 38.0445V39.975C36.8213 39.8805 36.9227 39.7796 37.018 39.6729Z" fill="#FFB842"/>
<path d="M34.7368 39.0813C34.6371 39.1119 34.5352 39.1403 34.4322 39.1676V41.1038C34.5352 41.0765 34.6371 41.0481 34.7368 41.0174V39.0813Z" fill="#FFB842"/>
<path d="M30.9324 39.2618C30.8293 39.2414 30.7285 39.2187 30.6277 39.1948V41.1253C30.7274 41.1503 30.8293 41.173 30.9324 41.1935V39.2618Z" fill="#FFB842"/>
<path d="M29.4101 38.7712C29.306 38.7224 29.204 38.6713 29.1065 38.6179V40.5484C29.204 40.603 29.306 40.6552 29.4101 40.7052V38.7712Z" fill="#FFB842"/>
<path d="M27.889 37.6356C27.7728 37.4923 27.6707 37.3374 27.5843 37.1735V39.079C27.6701 39.2455 27.7722 39.4026 27.889 39.548V37.6356Z" fill="#FFB842"/>
<path d="M30.1712 39.0676C30.0682 39.0347 29.9663 39.0006 29.8665 38.9643V40.8948C29.9663 40.9311 30.0682 40.9663 30.1712 40.9993V39.0676Z" fill="#FFB842"/>
<path d="M28.649 40.2589V38.3363C28.5382 38.2614 28.4407 38.183 28.3454 38.1024V40.0204C28.4407 40.1033 28.5426 40.1828 28.649 40.2589Z" fill="#FFB842"/>
<path fill-rule="evenodd" clip-rule="evenodd" d="M38.3752 22.7162C38.3752 24.2974 37.7624 25.8138 36.6716 26.9319C35.5808 28.05 34.1014 28.6781 32.5588 28.6781C31.0161 28.6781 29.5367 28.05 28.4459 26.9319C27.3551 25.8138 26.7423 24.2974 26.7423 22.7162C26.7423 19.423 29.3459 10.1474 32.5565 10.1474C35.7672 10.1474 38.3752 19.4241 38.3752 22.7162Z" fill="#5842E4"/>
<path d="M32.5598 29.3174C30.8524 29.3153 29.2156 28.6191 28.0082 27.3816C26.8009 26.1441 26.1217 24.4663 26.1197 22.7162C26.1197 20.8493 26.8542 17.589 27.8668 14.9624C28.8263 12.4731 30.415 9.5115 32.5598 9.5115C34.7047 9.5115 36.2945 12.4777 37.254 14.9624C38.2655 17.589 39 20.8493 39 22.7162C38.9982 24.4664 38.3192 26.1444 37.1118 27.382C35.9044 28.6195 34.2673 29.3156 32.5598 29.3174ZM32.5598 10.789C30.0848 10.789 27.3705 19.1606 27.3705 22.7128C27.3705 24.1235 27.9172 25.4764 28.8904 26.474C29.8636 27.4715 31.1835 28.0319 32.5598 28.0319C33.9361 28.0319 35.2561 27.4715 36.2293 26.474C37.2025 25.4764 37.7492 24.1235 37.7492 22.7128C37.7492 19.1606 35.0349 10.789 32.5598 10.789Z" fill="#243047"/>
<path d="M32.643 34.0574C32.5608 34.0574 32.4795 34.0408 32.4036 34.0085C32.3277 33.9763 32.2588 33.929 32.2007 33.8694C32.1427 33.8098 32.0967 33.7391 32.0653 33.6612C32.034 33.5834 32.018 33.5 32.0181 33.4158V21.869C32.0146 21.7826 32.0281 21.6963 32.0579 21.6154C32.0878 21.5344 32.1333 21.4605 32.1917 21.398C32.2501 21.3356 32.3202 21.2859 32.3979 21.2519C32.4755 21.218 32.5591 21.2004 32.6435 21.2004C32.7279 21.2004 32.8115 21.218 32.8891 21.2519C32.9668 21.2859 33.0369 21.3356 33.0953 21.398C33.1538 21.4605 33.1993 21.5344 33.2291 21.6154C33.2589 21.6963 33.2725 21.7826 33.2689 21.869V33.4158C33.2689 33.5859 33.203 33.7491 33.0856 33.8695C32.9682 33.9898 32.809 34.0574 32.643 34.0574Z" fill="#243047"/>
<path d="M32.2253 13.1295C32.2253 13.1295 28.0596 17.1041 28.7111 20.0805C29.3625 23.0569 33.999 17.8763 32.2253 13.1295Z" fill="#A597FF"/>
<path d="M28.1549 30.4121C28.1449 29.5423 28.1449 29.5343 28.1427 29.5037C28.1427 29.3901 28.1283 29.2833 28.1128 29.1709C28.1414 28.9869 28.1548 28.8008 28.1526 28.6145C28.1526 28.5441 28.1526 28.4725 28.1416 28.3976C28.153 28.2802 28.1578 28.1623 28.156 28.0444V27.9399C28.146 27.0701 28.146 27.0621 28.1438 27.0315C28.1438 26.9179 28.1294 26.8112 28.1139 26.6987C28.1426 26.5148 28.1559 26.3286 28.1537 26.1423C28.1382 24.8477 27.3727 23.6292 26.0488 22.8002C24.8921 22.0735 23.3787 21.6726 21.7878 21.6726H21.6715C18.0731 21.7214 15.269 23.753 15.3033 26.3024C15.3055 26.4472 15.317 26.5918 15.3377 26.7351C15.3213 26.8358 15.3102 26.9374 15.3045 27.0394C15.2956 27.1723 15.3045 28.1932 15.3045 28.2034C15.3045 28.273 15.3078 28.3457 15.3144 28.4214C15.3045 28.535 15.2989 28.6565 15.3 28.7723C15.3022 28.9172 15.3137 29.0617 15.3344 29.205C15.318 29.3058 15.3069 29.4073 15.3011 29.5093C15.2923 29.6422 15.3011 30.6631 15.3011 30.6733C15.3011 30.743 15.3045 30.8156 15.3111 30.8913C15.3011 31.0049 15.2956 31.1264 15.2967 31.2422C15.2989 31.3871 15.3103 31.5316 15.331 31.6749C15.3146 31.7757 15.3035 31.8773 15.2978 31.9792C15.2889 32.1121 15.2978 33.133 15.2978 33.1432C15.2978 33.2129 15.3011 33.2856 15.3078 33.3613C15.2978 33.4748 15.2923 33.5963 15.2934 33.7122C15.2955 33.857 15.307 34.0015 15.3277 34.1448C15.3113 34.2456 15.3002 34.3472 15.2945 34.4492C15.2856 34.582 15.2945 35.6029 15.2945 35.6132C15.2945 35.6828 15.2978 35.7555 15.3045 35.8312C15.2945 35.9447 15.2889 36.0663 15.2901 36.1821C15.2922 36.3269 15.3037 36.4715 15.3244 36.6147C15.308 36.7155 15.2969 36.8171 15.2912 36.9191C15.2823 37.052 15.2912 38.0728 15.2912 38.0831C15.2912 38.1527 15.2945 38.2254 15.3011 38.3011C15.2912 38.4147 15.2856 38.5362 15.2867 38.652C15.2889 38.7968 15.3004 38.9414 15.3211 39.0847C15.3047 39.1854 15.2936 39.287 15.2878 39.389C15.279 39.5219 15.2878 40.5428 15.2878 40.553C15.2878 40.6226 15.2912 40.6953 15.2978 40.771C15.2878 40.8846 15.2823 41.0061 15.2834 41.1219C15.2856 41.2668 15.297 41.4113 15.3178 41.5546C15.3013 41.6553 15.2902 41.7569 15.2845 41.8589C15.2757 41.9918 15.2845 43.0127 15.2845 43.0229C15.2845 43.0926 15.2878 43.1652 15.2945 43.2409C15.2845 43.3545 15.279 43.476 15.2801 43.5918C15.2823 43.7367 15.2937 43.8812 15.3144 44.0245C15.298 44.1253 15.2869 44.2269 15.2812 44.3288C15.2723 44.4617 15.2812 45.4826 15.2812 45.4928C15.2967 46.7942 16.0567 48.0218 17.3762 48.8587C18.5351 49.5946 20.0506 50 21.6438 50H21.7546C25.3574 49.9568 28.156 47.9082 28.126 45.3372V45.2328C28.1161 44.3629 28.1161 44.355 28.1139 44.3243C28.1139 44.2107 28.0995 44.104 28.0839 43.9916C28.1126 43.8076 28.126 43.6214 28.1238 43.4351C28.1238 43.3647 28.1238 43.2932 28.1128 43.2182C28.1242 43.1009 28.129 42.983 28.1272 42.8651V42.7606C28.1172 41.8907 28.1172 41.8828 28.115 41.8521C28.115 41.7385 28.1006 41.6318 28.0851 41.5194C28.1138 41.3354 28.1271 41.1492 28.1249 40.9629C28.1249 40.8925 28.1249 40.821 28.1139 40.746C28.1253 40.6287 28.1301 40.5108 28.1283 40.3929V40.2884C28.1183 39.4185 28.1183 39.4106 28.1161 39.3799C28.1161 39.2664 28.1017 39.1596 28.0862 39.0472C28.1149 38.8632 28.1282 38.6771 28.126 38.4907C28.126 38.4215 28.126 38.3499 28.115 38.2738C28.1264 38.1565 28.1312 38.0386 28.1294 37.9207V37.8162C28.1194 36.9463 28.1194 36.9384 28.1172 36.9077C28.1172 36.7942 28.1028 36.6874 28.0873 36.575C28.116 36.391 28.1293 36.2049 28.1272 36.0186C28.1272 35.9493 28.1272 35.8777 28.1161 35.8017C28.1275 35.6843 28.1323 35.5664 28.1305 35.4485V35.344C28.1205 34.4742 28.1205 34.4662 28.1183 34.4355C28.1183 34.322 28.1039 34.2152 28.0884 34.1028C28.1171 33.9188 28.1304 33.7327 28.1283 33.5464C28.1283 33.476 28.1283 33.4044 28.1172 33.3295C28.1286 33.2121 28.1334 33.0942 28.1316 32.9763V32.8718C28.1216 32.002 28.1216 31.994 28.1194 31.9634C28.1194 31.8498 28.105 31.743 28.0895 31.6306C28.1182 31.4466 28.1315 31.2605 28.1294 31.0742C28.1294 31.0038 28.1294 30.9322 28.1183 30.8573C28.1297 30.7399 28.1345 30.622 28.1327 30.5041L28.1549 30.4121Z" fill="#243047"/>
<path d="M21.6782 41.1685C24.521 41.1344 26.8476 42.5664 26.9229 44.3788C26.9229 44.4004 26.934 45.3293 26.9351 45.3509C26.9561 47.1939 24.6418 48.7168 21.7657 48.752C18.8896 48.7872 16.5409 47.32 16.522 45.4769C16.522 45.4224 16.5121 44.4617 16.5154 44.4083C16.624 42.6379 18.8863 41.2025 21.6782 41.1685Z" fill="#F7A937"/>
<path d="M21.7644 46.8125C24.6406 46.7776 26.9551 45.2723 26.934 43.4505C26.9129 41.6287 24.5642 40.1802 21.688 40.2152C18.8118 40.2502 16.4973 41.7554 16.5184 43.5772C16.5395 45.399 18.8882 46.8475 21.7644 46.8125Z" fill="#FFDA65"/>
<path d="M21.6937 40.9663C23.9094 40.9402 25.7286 42.0588 25.7452 43.4646C25.7618 44.8705 23.9726 46.0345 21.7568 46.0606C19.541 46.0867 17.7219 44.9693 17.7064 43.5623C17.6909 42.1553 19.4723 40.9936 21.6937 40.9663Z" fill="#FFC840"/>
<path d="M21.6782 38.6986C24.521 38.6645 26.8476 40.0965 26.9229 41.9089C26.9229 41.9305 26.934 42.8594 26.9351 42.881C26.9561 44.724 24.6418 46.2469 21.7657 46.2821C18.8896 46.3173 16.5409 44.8501 16.522 43.007C16.522 42.9525 16.5121 41.9918 16.5154 41.9384C16.624 40.168 18.8863 38.7326 21.6782 38.6986Z" fill="#F7A937"/>
<path d="M21.7646 44.3417C24.6408 44.3067 26.9553 42.8014 26.9342 40.9796C26.9131 39.1578 24.5644 37.7093 21.6882 37.7443C18.812 37.7793 16.4975 39.2845 16.5186 41.1063C16.5397 42.9282 18.8884 44.3767 21.7646 44.3417Z" fill="#FFDA65"/>
<path d="M21.7559 43.5911C23.9768 43.5641 25.764 42.4013 25.7477 40.9941C25.7315 39.5868 23.9178 38.4679 21.6969 38.4949C19.476 38.5219 17.6887 39.6846 17.705 41.0919C17.7213 42.4992 19.535 43.6181 21.7559 43.5911Z" fill="#FFC840"/>
<path d="M21.6782 36.2286C24.521 36.1946 26.8476 37.6266 26.9229 39.439C26.9229 39.4605 26.934 40.3895 26.9351 40.411C26.9561 42.2541 24.6418 43.7769 21.7657 43.8121C18.8896 43.8473 16.5409 42.3802 16.522 40.5371C16.522 40.4826 16.5121 39.5219 16.5154 39.4685C16.624 37.6981 18.8863 36.2627 21.6782 36.2286Z" fill="#F7A937"/>
<path d="M21.7637 41.8719C24.6399 41.8369 26.9544 40.3317 26.9333 38.5099C26.9122 36.6881 24.5635 35.2396 21.6873 35.2746C18.8111 35.3096 16.4966 36.8148 16.5177 38.6366C16.5388 40.4584 18.8875 41.9069 21.7637 41.8719Z" fill="#FFDA65"/>
<path d="M21.7561 41.1213C23.977 41.0943 25.7643 39.9316 25.748 38.5243C25.7317 37.1171 23.918 35.9981 21.6971 36.0252C19.4762 36.0522 17.689 37.2149 17.7053 38.6222C17.7216 40.0294 19.5352 41.1484 21.7561 41.1213Z" fill="#FFC840"/>
<path d="M21.6782 33.7587C24.521 33.7247 26.8476 35.1566 26.9229 36.9691C26.9229 36.9906 26.934 37.9195 26.9351 37.9411C26.9561 39.7842 24.6418 41.307 21.7657 41.3422C18.8896 41.3774 16.5409 39.9068 16.522 38.0672C16.522 38.0127 16.5121 37.052 16.5154 36.9986C16.624 35.2282 18.8863 33.7928 21.6782 33.7587Z" fill="#F7A937"/>
<path d="M21.7639 39.4022C24.6401 39.3672 26.9546 37.8619 26.9335 36.0401C26.9124 34.2183 24.5637 32.7698 21.6875 32.8048C18.8113 32.8398 16.4968 34.345 16.5179 36.1668C16.539 37.9886 18.8877 39.4371 21.7639 39.4022Z" fill="#FFDA65"/>
<path d="M21.6914 38.6861C23.9125 38.6634 25.7019 37.504 25.6882 36.0966C25.6745 34.6893 23.8628 33.5668 21.6417 33.5896C19.4206 33.6123 17.6312 34.7717 17.6449 36.1791C17.6586 37.5864 19.4703 38.7089 21.6914 38.6861Z" fill="#FFC840"/>
<path d="M21.6782 31.2888C24.521 31.2547 26.8476 32.6867 26.9229 34.4991C26.9229 34.5207 26.934 35.4496 26.9351 35.4712C26.9561 37.3143 24.6418 38.8371 21.7657 38.8723C18.8896 38.9075 16.5409 37.4403 16.522 35.5972C16.522 35.5427 16.5121 34.582 16.5154 34.5286C16.624 32.7583 18.8863 31.3229 21.6782 31.2888Z" fill="#F7A937"/>
<path d="M21.7641 36.9324C24.6403 36.8974 26.9548 35.3922 26.9337 33.5704C26.9126 31.7486 24.5639 30.3001 21.6877 30.3351C18.8115 30.3701 16.497 31.8753 16.5181 33.6971C16.5392 35.5189 18.8879 36.9674 21.7641 36.9324Z" fill="#FFDA65"/>
<path d="M21.6937 31.0867C23.9094 31.0606 25.7286 32.1791 25.7452 33.585C25.7618 34.9908 23.9726 36.1548 21.7568 36.1809C19.541 36.2071 17.7219 35.0896 17.7064 33.6826C17.6909 32.2756 19.4723 31.1139 21.6937 31.0867Z" fill="#FFC840"/>
<path d="M21.6782 28.8189C24.521 28.7848 26.8476 30.2168 26.9229 32.0292C26.9229 32.0508 26.934 32.9797 26.9351 33.0013C26.9561 34.8443 24.6418 36.3672 21.7657 36.4024C18.8896 36.4376 16.5409 34.9704 16.522 33.1273C16.522 33.0728 16.5121 32.1121 16.5154 32.0587C16.624 30.2883 18.8863 28.853 21.6782 28.8189Z" fill="#F7A937"/>
<path d="M21.7643 34.4627C24.6405 34.4277 26.955 32.9225 26.9339 31.1006C26.9128 29.2788 24.5641 27.8303 21.6879 27.8653C18.8117 27.9003 16.4972 29.4056 16.5183 31.2274C16.5394 33.0492 18.8881 34.4977 21.7643 34.4627Z" fill="#FFDA65"/>
<path d="M21.6937 28.6167C23.9094 28.5906 25.7286 29.7092 25.7452 31.1151C25.7618 32.5209 23.9726 33.6849 21.7568 33.711C19.541 33.7371 17.7219 32.6197 17.7064 31.2127C17.6909 29.8057 19.4723 28.644 21.6937 28.6167Z" fill="#FFC840"/>
<path d="M21.6782 26.349C24.521 26.3149 26.8476 27.7469 26.9229 29.5593C26.9229 29.5809 26.934 30.5098 26.9351 30.5314C26.9561 32.3744 24.6418 33.8973 21.7657 33.9325C18.8896 33.9677 16.5409 32.5005 16.522 30.6574C16.522 30.6029 16.5121 29.6422 16.5154 29.5888C16.624 27.8184 18.8863 26.383 21.6782 26.349Z" fill="#F7A937"/>
<path d="M21.7634 31.9929C24.6396 31.9579 26.9541 30.4527 26.933 28.6309C26.9119 26.8091 24.5632 25.3606 21.687 25.3956C18.8108 25.4306 16.4963 26.9358 16.5174 28.7576C16.5385 30.5794 18.8872 32.0279 21.7634 31.9929Z" fill="#FFDA65"/>
<path d="M21.6937 26.1468C23.9094 26.1207 25.7286 27.2393 25.7452 28.6451C25.7618 30.051 23.9726 31.215 21.7568 31.2411C19.541 31.2672 17.7219 30.1498 17.7064 28.7428C17.6909 27.3358 19.4723 26.1741 21.6937 26.1468Z" fill="#FFC840"/>
<path d="M21.6782 23.879C24.521 23.845 26.8476 25.277 26.9229 27.0894C26.9229 27.111 26.934 28.0399 26.9351 28.0614C26.9561 29.9045 24.6418 31.4274 21.7657 31.4626C18.8896 31.4978 16.5409 30.0272 16.522 28.1875C16.522 28.133 16.5121 27.1723 16.5154 27.1189C16.624 25.3485 18.8863 23.9131 21.6782 23.879Z" fill="#F7A937"/>
<path d="M21.7636 29.5221C24.6398 29.4871 26.9543 27.9818 26.9332 26.16C26.9121 24.3382 24.5634 22.8897 21.6872 22.9247C18.811 22.9597 16.4965 24.4649 16.5176 26.2867C16.5387 28.1086 18.8874 29.5571 21.7636 29.5221Z" fill="#FFDA65"/>
<path d="M21.7549 28.7715C23.9759 28.7445 25.7631 27.5817 25.7468 26.1745C25.7305 24.7672 23.9168 23.6483 21.6959 23.6753C19.475 23.7023 17.6878 24.865 17.7041 26.2723C17.7204 27.6796 19.534 28.7985 21.7549 28.7715Z" fill="#FFC840"/>
<path d="M25.1492 42.965C25.2544 42.9059 25.3563 42.8446 25.4538 42.7799V40.8494C25.3563 40.9141 25.2544 40.9754 25.1492 41.0345V42.965Z" fill="#FFB842"/>
<path d="M25.4538 43.3193C25.3563 43.384 25.2544 43.4453 25.1492 43.5044V45.4349C25.2544 45.3759 25.3563 45.3145 25.4538 45.2498V43.3193Z" fill="#FFB842"/>
<path d="M25.9103 40.5064V42.4369C26.0171 42.3444 26.1188 42.2458 26.215 42.1417V40.2112C26.1191 40.3156 26.0174 40.4142 25.9103 40.5064Z" fill="#FFB842"/>
<path d="M23.9316 44.0166C23.8319 44.0472 23.7311 44.0756 23.6269 44.1017V46.039C23.7311 46.0118 23.8319 45.9834 23.9316 45.9527V44.0166Z" fill="#FFB842"/>
<path d="M24.6927 43.7327C24.5941 43.7769 24.4922 43.8201 24.3881 43.8598V45.7904C24.4922 45.7495 24.5941 45.7075 24.6927 45.6632V43.7327Z" fill="#FFB842"/>
<path d="M23.1694 44.2039C23.0697 44.2232 22.9677 44.2403 22.8658 44.255V46.1935C22.9677 46.1776 23.0697 46.1606 23.1694 46.1412V44.2039Z" fill="#FFB842"/>
<path d="M22.8669 43.7236C22.9688 43.7077 23.0708 43.6906 23.1705 43.6713V41.734C23.0708 41.7533 22.9688 41.7703 22.8669 41.7851V43.7236Z" fill="#FFB842"/>
<path d="M22.1058 43.7996C22.2077 43.7996 22.3097 43.7872 22.4105 43.7781V41.8373C22.3097 41.8464 22.2077 41.8532 22.1058 41.8589V43.7996Z" fill="#FFB842"/>
<path d="M23.6269 43.5691C23.7311 43.5419 23.8319 43.5135 23.9316 43.4828V41.5466C23.8319 41.5773 23.7311 41.6057 23.6269 41.6318V43.5691Z" fill="#FFB842"/>
<path d="M24.3881 43.325C24.4922 43.2841 24.5941 43.2421 24.6927 43.1978V41.2673C24.5941 41.3116 24.4922 41.3547 24.3881 41.3945V43.325Z" fill="#FFB842"/>
<path d="M17.8449 43.2716C17.7341 43.1967 17.6355 43.1183 17.5402 43.0377V44.9557C17.6355 45.0386 17.7374 45.1181 17.8449 45.1942V43.2716Z" fill="#FFB842"/>
<path d="M17.0837 42.5732C16.9675 42.4298 16.8655 42.275 16.7791 42.111V44.0165C16.8649 44.183 16.9669 44.3402 17.0837 44.4855V42.5732Z" fill="#FFB842"/>
<path d="M22.4105 44.3095C22.3097 44.3186 22.2077 44.3254 22.1058 44.3311V46.2662C22.2077 46.2662 22.3097 46.2537 22.4105 46.2446V44.3095Z" fill="#FFB842"/>
<path d="M18.6049 43.7077C18.5007 43.6588 18.3988 43.6077 18.3013 43.5544V45.4849C18.3988 45.5394 18.5007 45.5916 18.6049 45.6416V43.7077Z" fill="#FFB842"/>
<path d="M25.9103 42.9729V44.9035C26.0171 44.8109 26.1188 44.7123 26.215 44.6082V42.6777C26.1191 42.7821 26.0174 42.8807 25.9103 42.9729Z" fill="#FFB842"/>
<path d="M26.9251 41.9089C26.9193 41.7761 26.9011 41.6441 26.8708 41.5148C26.8255 41.6978 26.7586 41.8744 26.6714 42.0406V43.9609C26.8473 43.6296 26.9388 43.2581 26.9373 42.881C26.9362 42.8594 26.9262 41.9305 26.9251 41.9089Z" fill="#FFB842"/>
<path d="M21.6494 44.3436C21.5474 44.3436 21.4455 44.3436 21.3447 44.3368V46.2752C21.4455 46.2752 21.5474 46.2809 21.6494 46.2809V44.3436Z" fill="#FFB842"/>
<path d="M19.366 44.0029C19.263 43.97 19.161 43.9359 19.0624 43.8996V45.8301C19.161 45.8664 19.263 45.9016 19.366 45.9346V44.0029Z" fill="#FFB842"/>
<path d="M20.8882 44.3061C20.7852 44.297 20.6844 44.2857 20.5836 44.2721V46.2082C20.6844 46.2219 20.7852 46.2344 20.8882 46.2435V44.3061Z" fill="#FFB842"/>
<path d="M20.1271 44.1971C20.0241 44.1767 19.9233 44.154 19.8224 44.1301V46.0606C19.9233 46.0856 20.0241 46.1072 20.1271 46.1288V44.1971Z" fill="#FFB842"/>
<path d="M21.3447 41.8669V43.8053C21.4455 43.8053 21.5474 43.811 21.6494 43.811V41.8737C21.5474 41.8725 21.4455 41.8714 21.3447 41.8669Z" fill="#FFB842"/>
<path d="M20.5836 43.7383C20.6844 43.752 20.7852 43.7644 20.8882 43.7735V41.8374C20.7852 41.8283 20.6844 41.8169 20.5836 41.8033V43.7383Z" fill="#FFB842"/>
<path d="M23.1694 46.6738C23.0697 46.6931 22.9677 46.7102 22.8658 46.7249V48.6634C22.9677 48.6475 23.0697 48.6305 23.1694 48.6112V46.6738Z" fill="#FFB842"/>
<path d="M21.6494 46.8135C21.5474 46.8135 21.4455 46.8135 21.3447 46.8067V48.7452C21.4455 48.7452 21.5474 48.7508 21.6494 48.7508V46.8135Z" fill="#FFB842"/>
<path d="M22.4105 48.7179V46.7795C22.3097 46.7885 22.2077 46.7954 22.1058 46.801V48.7395C22.2077 48.7338 22.3097 48.727 22.4105 48.7179Z" fill="#FFB842"/>
<path d="M20.8882 46.7772C20.7852 46.767 20.6844 46.7556 20.5836 46.742V48.6782C20.6844 48.6918 20.7852 48.7043 20.8882 48.7134V46.7772Z" fill="#FFB842"/>
<path d="M24.6927 46.2026C24.5941 46.2469 24.4922 46.29 24.3881 46.3298V48.2603C24.4922 48.2194 24.5941 48.1774 24.6927 48.1331V46.2026Z" fill="#FFB842"/>
<path d="M25.4538 45.7892C25.3563 45.8539 25.2544 45.9153 25.1492 45.9743V47.9048C25.2544 47.8458 25.3563 47.7844 25.4538 47.7197V45.7892Z" fill="#FFB842"/>
<path d="M26.9251 44.3788C26.9193 44.246 26.9011 44.114 26.8708 43.9847C26.8255 44.1677 26.7586 44.3443 26.6714 44.5105V46.4308C26.8473 46.0995 26.9388 45.7281 26.9373 45.3509C26.9362 45.3293 26.9262 44.4004 26.9251 44.3788Z" fill="#FFB842"/>
<path d="M26.8708 39.0449C26.8255 39.2279 26.7586 39.4044 26.6714 39.5707V41.4967C26.8473 41.1654 26.9388 40.7939 26.9373 40.4167C26.9373 40.3951 26.9262 39.4662 26.9251 39.4446C26.9197 39.3099 26.9015 39.176 26.8708 39.0449Z" fill="#FFB842"/>
<path d="M26.215 47.0781V45.1476C26.1188 45.2517 26.0171 45.3503 25.9103 45.4429V47.3734C26.0171 47.2808 26.1188 47.1822 26.215 47.0781Z" fill="#FFB842"/>
<path d="M23.9316 46.4865C23.8319 46.5171 23.7311 46.5455 23.6269 46.5716V48.509C23.7311 48.4817 23.8319 48.4533 23.9316 48.4227V46.4865Z" fill="#FFB842"/>
<path d="M18.3013 43.0104C18.3988 43.0649 18.5007 43.1172 18.6049 43.1671V41.2366C18.5007 41.1878 18.3988 41.1367 18.3013 41.0833V43.0104Z" fill="#FFB842"/>
<path d="M17.5402 42.4858C17.6355 42.5687 17.7374 42.6482 17.8449 42.7242V40.8017C17.7341 40.7267 17.6355 40.6484 17.5402 40.5677V42.4858Z" fill="#FFB842"/>
<path d="M16.7791 39.6411V41.5466C16.8649 41.7131 16.9669 41.8703 17.0837 42.0156V40.1033C16.9675 39.9599 16.8655 39.8051 16.7791 39.6411Z" fill="#FFB842"/>
<path d="M20.1271 46.667C20.0241 46.6466 19.9233 46.6239 19.8224 46.6V48.5305C19.9233 48.5555 20.0241 48.5771 20.1271 48.5987V46.667Z" fill="#FFB842"/>
<path d="M19.0624 43.3613C19.161 43.3977 19.263 43.4329 19.366 43.4658V41.5353C19.263 41.5023 19.161 41.4683 19.0624 41.4319V43.3613Z" fill="#FFB842"/>
<path d="M19.8224 43.5941C19.9233 43.6191 20.0241 43.6407 20.1271 43.6622V41.7238C20.0241 41.7033 19.9233 41.6806 19.8224 41.6568V43.5941Z" fill="#FFB842"/>
<path d="M18.6049 46.1776C18.5007 46.1288 18.3988 46.0777 18.3013 46.0243V47.9548C18.3988 48.0093 18.5007 48.0615 18.6049 48.1115V46.1776Z" fill="#FFB842"/>
<path d="M17.0837 45.0431C16.9675 44.8997 16.8655 44.7449 16.7791 44.5809V46.4865C16.8649 46.653 16.9669 46.8101 17.0837 46.9555V45.0431Z" fill="#FFB842"/>
<path d="M19.366 46.4728C19.263 46.4399 19.161 46.4058 19.0624 46.3695V48.3C19.161 48.3364 19.263 48.3716 19.366 48.4045V46.4728Z" fill="#FFB842"/>
<path d="M17.8449 47.6641V45.7415C17.7341 45.6666 17.6355 45.5882 17.5402 45.5076V47.4256C17.6355 47.5085 17.7407 47.588 17.8449 47.6641Z" fill="#FFB842"/>
<path d="M25.1492 35.5598C25.2544 35.5007 25.3563 35.4394 25.4538 35.3747V33.4442C25.3563 33.5089 25.2544 33.5702 25.1492 33.6293V35.5598Z" fill="#FFB842"/>
<path d="M25.4538 35.9141C25.3563 35.9788 25.2544 36.0401 25.1492 36.0992V38.0297C25.2544 37.9706 25.3563 37.9093 25.4538 37.8446V35.9141Z" fill="#FFB842"/>
<path d="M25.9103 33.1023V35.0329C26.0171 34.9403 26.1188 34.8417 26.215 34.7376V32.8071C26.1188 32.9112 26.0171 33.0098 25.9103 33.1023Z" fill="#FFB842"/>
<path d="M23.9316 36.6136C23.8319 36.6443 23.7311 36.6727 23.6269 36.6988V38.6361C23.7311 38.6088 23.8319 38.5805 23.9316 38.5498V36.6136Z" fill="#FFB842"/>
<path d="M24.6927 36.3274C24.5941 36.3717 24.4922 36.4149 24.3881 36.4546V38.3851C24.4922 38.3443 24.5941 38.3022 24.6927 38.2579V36.3274Z" fill="#FFB842"/>
<path d="M23.1694 36.7987C23.0697 36.818 22.9677 36.8351 22.8658 36.8498V38.7883C22.9677 38.7724 23.0697 38.7553 23.1694 38.736V36.7987Z" fill="#FFB842"/>
<path d="M22.8669 36.3184C22.9688 36.3025 23.0708 36.2854 23.1705 36.2661V34.3288C23.0708 34.3481 22.9688 34.3651 22.8669 34.3799V36.3184Z" fill="#FFB842"/>
<path d="M22.1058 36.3944C22.2077 36.3888 22.3097 36.3819 22.4105 36.3729V34.4344C22.3097 34.4435 22.2077 34.4503 22.1058 34.456V36.3944Z" fill="#FFB842"/>
<path d="M23.6269 36.1594C23.7311 36.1321 23.8319 36.1037 23.9316 36.0731V34.1426C23.8319 34.1732 23.7311 34.2016 23.6269 34.2277V36.1594Z" fill="#FFB842"/>
<path d="M24.3881 35.9198C24.4922 35.8789 24.5941 35.8369 24.6927 35.7926V33.8621C24.5941 33.9063 24.4922 33.9495 24.3881 33.9892V35.9198Z" fill="#FFB842"/>
<path d="M17.8449 35.8664C17.7341 35.7914 17.6355 35.7131 17.5402 35.6325V37.5505C17.6355 37.6334 17.7374 37.7129 17.8449 37.7889V35.8664Z" fill="#FFB842"/>
<path d="M17.0837 35.168C16.9675 35.0246 16.8655 34.8698 16.7791 34.7058V36.6136C16.8649 36.7801 16.9669 36.9372 17.0837 37.0826V35.168Z" fill="#FFB842"/>
<path d="M22.4105 36.9043C22.3097 36.9134 22.2077 36.9202 22.1058 36.9259V38.8644C22.2077 38.8587 22.3097 38.8519 22.4105 38.8428V36.9043Z" fill="#FFB842"/>
<path d="M18.6049 36.3025C18.5007 36.2536 18.3988 36.2025 18.3013 36.1492V38.0797C18.3988 38.1342 18.5007 38.1864 18.6049 38.2364V36.3025Z" fill="#FFB842"/>
<path d="M25.9103 35.5723V37.5028C26.0171 37.4102 26.1188 37.3116 26.215 37.2075V35.277C26.1188 35.3811 26.0171 35.4797 25.9103 35.5723Z" fill="#FFB842"/>
<path d="M26.9251 34.5037C26.9193 34.3709 26.9011 34.2389 26.8708 34.1096C26.8255 34.2926 26.7586 34.4691 26.6714 34.6354V36.5557C26.8466 36.225 26.9376 35.8543 26.9362 35.478C26.9362 35.4542 26.9262 34.5253 26.9251 34.5037Z" fill="#FFB842"/>
<path d="M21.6494 36.9384C21.5474 36.9384 21.4455 36.9384 21.3447 36.9316V38.87C21.4455 38.87 21.5474 38.8757 21.6494 38.8757V36.9384Z" fill="#FFB842"/>
<path d="M19.366 36.5977C19.263 36.5648 19.161 36.5307 19.0624 36.4944V38.4249C19.161 38.4612 19.263 38.4964 19.366 38.5294V36.5977Z" fill="#FFB842"/>
<path d="M20.8882 36.9021C20.7852 36.8918 20.6844 36.8805 20.5836 36.8668V38.7974C20.6844 38.811 20.7852 38.8235 20.8882 38.8326V36.9021Z" fill="#FFB842"/>
<path d="M20.1271 36.7919C20.0241 36.7715 19.9233 36.7487 19.8224 36.7249V38.6554C19.9233 38.6804 20.0241 38.702 20.1271 38.7235V36.7919Z" fill="#FFB842"/>
<path d="M21.3447 34.4617V36.4001C21.4455 36.4001 21.5474 36.4058 21.6494 36.4058V34.4685C21.5474 34.4673 21.4455 34.4662 21.3447 34.4617Z" fill="#FFB842"/>
<path d="M20.5836 36.3331C20.6844 36.3467 20.7852 36.3592 20.8882 36.3683V34.4378C20.7852 34.4276 20.6844 34.4162 20.5836 34.4026V36.3331Z" fill="#FFB842"/>
<path d="M23.1694 39.2686C23.0697 39.2879 22.9677 39.305 22.8658 39.3197V41.2582C22.9677 41.2423 23.0697 41.2253 23.1694 41.206V39.2686Z" fill="#FFB842"/>
<path d="M21.6494 39.4083C21.5474 39.4083 21.4455 39.4083 21.3447 39.4015V41.34C21.4455 41.34 21.5474 41.3456 21.6494 41.3456V39.4083Z" fill="#FFB842"/>
<path d="M22.4105 41.3127V39.3742C22.3097 39.3833 22.2077 39.3901 22.1058 39.3958V41.3343C22.2077 41.3286 22.3097 41.3218 22.4105 41.3127Z" fill="#FFB842"/>
<path d="M20.8882 39.372C20.7852 39.3617 20.6844 39.3504 20.5836 39.3368V41.2673C20.6844 41.2809 20.7852 41.2934 20.8882 41.3025V39.372Z" fill="#FFB842"/>
<path d="M24.6927 38.7974C24.5941 38.8416 24.4922 38.8848 24.3881 38.9245V40.8551C24.4922 40.8142 24.5941 40.7722 24.6927 40.7279V38.7974Z" fill="#FFB842"/>
<path d="M25.4538 38.384C25.3563 38.4487 25.2544 38.5101 25.1492 38.5691V40.4996C25.2544 40.4406 25.3563 40.3792 25.4538 40.3145V38.384Z" fill="#FFB842"/>
<path d="M26.9251 36.9736C26.9193 36.8408 26.9011 36.7088 26.8708 36.5795C26.8255 36.7625 26.7586 36.9391 26.6714 37.1053V39.0256C26.8473 38.6943 26.9388 38.3228 26.9373 37.9457C26.9362 37.9241 26.9262 36.9952 26.9251 36.9736Z" fill="#FFB842"/>
<path d="M26.8708 31.6397C26.8255 31.8227 26.7586 31.9992 26.6714 32.1655V34.0858C26.8473 33.7545 26.9388 33.383 26.9373 33.0058C26.9373 32.9842 26.9262 32.0553 26.9251 32.0338C26.9193 31.9009 26.9011 31.769 26.8708 31.6397Z" fill="#FFB842"/>
<path d="M26.215 39.6729V37.7492C26.1188 37.8533 26.0171 37.9519 25.9103 38.0445V39.975C26.0173 39.8802 26.119 39.7794 26.215 39.6729Z" fill="#FFB842"/>
<path d="M23.9316 39.0813C23.8319 39.1119 23.7311 39.1403 23.6269 39.1676V41.1038C23.7311 41.0765 23.8319 41.0481 23.9316 41.0174V39.0813Z" fill="#FFB842"/>
<path d="M18.3013 35.6052C18.3988 35.6597 18.5007 35.7119 18.6049 35.7619V33.8314C18.5007 33.7826 18.3988 33.7315 18.3013 33.6781V35.6052Z" fill="#FFB842"/>
<path d="M17.5402 35.0806C17.6355 35.1635 17.7374 35.2429 17.8449 35.319V33.3965C17.7341 33.3215 17.6355 33.2432 17.5402 33.1625V35.0806Z" fill="#FFB842"/>
<path d="M16.7791 32.2359V34.1414C16.8649 34.3079 16.9669 34.465 17.0837 34.6104V32.6981C16.9675 32.5547 16.8655 32.3999 16.7791 32.2359Z" fill="#FFB842"/>
<path d="M20.1271 39.2618C20.0241 39.2414 19.9233 39.2187 19.8224 39.1948V41.1253C19.9233 41.1503 20.0241 41.173 20.1271 41.1935V39.2618Z" fill="#FFB842"/>
<path d="M19.0624 35.9561C19.161 35.9924 19.263 36.0276 19.366 36.0606V34.1301C19.263 34.0971 19.161 34.0631 19.0624 34.0267V35.9561Z" fill="#FFB842"/>
<path d="M19.8224 36.1889C19.9233 36.2139 20.0241 36.2355 20.1271 36.257V34.3265C20.0241 34.3061 19.9233 34.2834 19.8224 34.2595V36.1889Z" fill="#FFB842"/>
<path d="M18.6049 38.7712C18.5007 38.7224 18.3988 38.6713 18.3013 38.6179V40.5484C18.3988 40.603 18.5007 40.6552 18.6049 40.7052V38.7712Z" fill="#FFB842"/>
<path d="M17.0837 37.6356C16.9675 37.4923 16.8655 37.3374 16.7791 37.1735V39.079C16.8649 39.2455 16.9669 39.4026 17.0837 39.548V37.6356Z" fill="#FFB842"/>
<path d="M19.366 39.0676C19.263 39.0347 19.161 39.0006 19.0624 38.9643V40.8948C19.161 40.9311 19.263 40.9663 19.366 40.9993V39.0676Z" fill="#FFB842"/>
<path d="M17.8449 40.2589V38.3363C17.7341 38.2614 17.6355 38.183 17.5402 38.1024V40.0204C17.6355 40.1033 17.7407 40.1828 17.8449 40.2589Z" fill="#FFB842"/>
<path d="M25.4538 28.5089C25.3563 28.5736 25.2544 28.6349 25.1492 28.6951V30.6256C25.2544 30.5654 25.3563 30.5041 25.4538 30.4394V28.5089Z" fill="#FFB842"/>
<path d="M23.9316 29.2061C23.8319 29.2368 23.7311 29.2652 23.6269 29.2924V31.2286C23.7311 31.2014 23.8319 31.173 23.9316 31.1423V29.2061Z" fill="#FFB842"/>
<path d="M24.6927 28.9234C24.5941 28.9676 24.4922 29.0097 24.3881 29.0494V30.9799C24.4922 30.939 24.5941 30.897 24.6927 30.8527V28.9234Z" fill="#FFB842"/>
<path d="M23.1694 29.3935C23.0697 29.4128 22.9677 29.4298 22.8658 29.4446V31.3831C22.9677 31.3672 23.0697 31.3501 23.1694 31.3308V29.3935Z" fill="#FFB842"/>
<path d="M17.8449 28.4612C17.7341 28.3862 17.6355 28.309 17.5402 28.2272V30.1464C17.6355 30.2282 17.7374 30.3076 17.8449 30.3837V28.4612Z" fill="#FFB842"/>
<path d="M17.0837 27.7628C16.967 27.6198 16.865 27.4649 16.7791 27.3006V29.2061C16.8649 29.3726 16.9669 29.5298 17.0837 29.6751V27.7628Z" fill="#FFB842"/>
<path d="M22.4105 29.4991C22.3097 29.5082 22.2077 29.5161 22.1058 29.5207V31.4591C22.2077 31.4591 22.3097 31.4466 22.4105 31.4376V29.4991Z" fill="#FFB842"/>
<path d="M18.6049 28.8972C18.5007 28.8484 18.3988 28.7973 18.3013 28.7439V30.6744C18.3988 30.729 18.5007 30.7812 18.6049 30.8312V28.8972Z" fill="#FFB842"/>
<path d="M25.9103 28.1671V30.0976C26.0171 30.005 26.1188 29.9064 26.215 29.8023V27.8695C26.1189 27.9744 26.0172 28.0737 25.9103 28.1671Z" fill="#FFB842"/>
<path d="M26.9251 27.0985C26.9193 26.9656 26.9011 26.8337 26.8708 26.7044C26.8255 26.8873 26.7586 27.0639 26.6714 27.2302V29.1516C26.8472 28.8199 26.9387 28.4481 26.9373 28.0705C26.9362 28.0489 26.9262 27.12 26.9251 27.0985Z" fill="#FFB842"/>
<path d="M21.6494 29.5332C21.5474 29.5332 21.4455 29.5332 21.3447 29.5275V31.4648C21.4455 31.4648 21.5474 31.4705 21.6494 31.4705V29.5332Z" fill="#FFB842"/>
<path d="M19.366 29.1925C19.263 29.1596 19.161 29.1255 19.0624 29.0892V31.0197C19.161 31.0571 19.263 31.0912 19.366 31.1241V29.1925Z" fill="#FFB842"/>
<path d="M20.8882 29.4968C20.7852 29.4866 20.6844 29.4753 20.5836 29.4616V31.3921C20.6844 31.4058 20.7852 31.4183 20.8882 31.4285V29.4968Z" fill="#FFB842"/>
<path d="M20.1271 29.3867C20.0241 29.3662 19.9233 29.3435 19.8224 29.3197V31.2502C19.9233 31.2752 20.0241 31.2979 20.1271 31.3183V29.3867Z" fill="#FFB842"/>
<path d="M23.1694 31.8634C23.0697 31.8827 22.9677 31.8998 22.8658 31.9145V33.853C22.9677 33.8371 23.0697 33.82 23.1694 33.8007V31.8634Z" fill="#FFB842"/>
<path d="M21.6494 32.0031C21.5474 32.0031 21.4455 32.0031 21.3447 31.9974V33.9347C21.4455 33.9347 21.5474 33.9347 21.6494 33.9347V32.0031Z" fill="#FFB842"/>
<path d="M22.4105 33.9075V31.969C22.3097 31.9781 22.2077 31.9861 22.1058 31.9906V33.9291C22.2077 33.9245 22.3097 33.9166 22.4105 33.9075Z" fill="#FFB842"/>
<path d="M20.8882 31.9668C20.7852 31.9565 20.6844 31.9452 20.5836 31.9327V33.8632C20.6844 33.8768 20.7852 33.8893 20.8882 33.8995V31.9668Z" fill="#FFB842"/>
<path d="M24.6927 31.3899C24.5941 31.4342 24.4922 31.4762 24.3881 31.5159V33.4464C24.4922 33.4055 24.5941 33.3635 24.6927 33.3192V31.3899Z" fill="#FFB842"/>
<path d="M25.4538 30.9788C25.3563 31.0435 25.2544 31.1048 25.1492 31.165V33.0955C25.2544 33.0353 25.3563 32.974 25.4538 32.9093V30.9788Z" fill="#FFB842"/>
<path d="M26.9251 29.5729C26.9193 29.4401 26.9011 29.3081 26.8708 29.1789C26.8255 29.3618 26.7586 29.5384 26.6714 29.7047V31.617C26.8472 31.2852 26.9387 30.9134 26.9373 30.5359C26.9362 30.5189 26.9262 29.59 26.9251 29.5729Z" fill="#FFB842"/>
<path d="M26.215 32.2677V30.3372C26.1188 30.4413 26.0171 30.5398 25.9103 30.6324V32.5629C26.0171 32.4704 26.1188 32.3718 26.215 32.2677Z" fill="#FFB842"/>
<path d="M23.9316 31.676C23.8319 31.7067 23.7311 31.7351 23.6269 31.7623V33.6929C23.7311 33.6656 23.8319 33.6372 23.9316 33.6066V31.676Z" fill="#FFB842"/>
<path d="M20.1271 31.8566C20.0241 31.8362 19.9233 31.8134 19.8224 31.7896V33.7201C19.9233 33.7451 20.0241 33.7678 20.1271 33.7882V31.8566Z" fill="#FFB842"/>
<path d="M18.6049 31.3672C18.5007 31.3183 18.3988 31.2684 18.3013 31.2139V33.1444C18.3988 33.1989 18.5007 33.2511 18.6049 33.3011V31.3672Z" fill="#FFB842"/>
<path d="M17.0837 30.2327C16.967 30.0897 16.865 29.9348 16.7791 29.7705V31.676C16.8649 31.8425 16.9669 31.9997 17.0837 32.145V30.2327Z" fill="#FFB842"/>
<path d="M19.366 31.6624C19.263 31.6295 19.161 31.5954 19.0624 31.5591V33.4896C19.161 33.5271 19.263 33.5611 19.366 33.5941V31.6624Z" fill="#FFB842"/>
<path d="M17.8449 32.8537V30.9356C17.7341 30.8607 17.6355 30.7835 17.5402 30.7017V32.6209C17.6355 32.6981 17.7407 32.7776 17.8449 32.8537Z" fill="#FFB842"/>
<path d="M21.6494 15.5608C24.8605 15.5608 27.4636 12.8926 27.4636 9.60121C27.4636 6.30981 24.8605 3.64161 21.6494 3.64161C18.4383 3.64161 15.8352 6.30981 15.8352 9.60121C15.8352 12.8926 18.4383 15.5608 21.6494 15.5608Z" fill="#22C79A"/>
<path d="M21.6494 16.2024C20.3756 16.2024 19.1305 15.8153 18.0714 15.0899C17.0123 14.3646 16.1869 13.3336 15.6994 12.1274C15.212 10.9212 15.0845 9.59389 15.3329 8.31338C15.5814 7.03287 16.1948 5.85665 17.0955 4.93345C17.9962 4.01025 19.1437 3.38155 20.3929 3.12684C21.6422 2.87213 22.9371 3.00286 24.1139 3.50249C25.2907 4.00212 26.2965 4.84821 27.0042 5.93377C27.7118 7.01934 28.0895 8.29562 28.0895 9.60121C28.0878 11.3514 27.4087 13.0294 26.2013 14.267C24.9939 15.5046 23.3569 16.2006 21.6494 16.2024ZM21.6494 4.27868C20.623 4.27868 19.6197 4.59064 18.7663 5.17511C17.9129 5.75959 17.2478 6.59032 16.855 7.56226C16.4623 8.53421 16.3595 9.6037 16.5597 10.6355C16.76 11.6673 17.2542 12.6151 17.9799 13.359C18.7057 14.1029 19.6303 14.6095 20.637 14.8147C21.6436 15.02 22.687 14.9146 23.6352 14.512C24.5835 14.1094 25.3939 13.4277 25.9641 12.553C26.5344 11.6782 26.8387 10.6498 26.8387 9.5978C26.8364 8.18814 26.2888 6.83694 25.316 5.84048C24.3432 4.84401 23.0246 4.28359 21.6494 4.28209V4.27868Z" fill="#243047"/>
<path d="M21.7291 25.7778C21.647 25.7779 21.5656 25.7615 21.4896 25.7293C21.4137 25.6972 21.3447 25.6501 21.2866 25.5906C21.2284 25.5311 21.1823 25.4604 21.1508 25.3827C21.1194 25.3049 21.1032 25.2215 21.1032 25.1373V11.4034C21.0996 11.3169 21.1131 11.2307 21.143 11.1497C21.1728 11.0688 21.2183 10.9948 21.2767 10.9324C21.3351 10.8699 21.4053 10.8202 21.4829 10.7863C21.5606 10.7523 21.6441 10.7348 21.7286 10.7348C21.813 10.7348 21.8965 10.7523 21.9742 10.7863C22.0518 10.8202 22.122 10.8699 22.1804 10.9324C22.2388 10.9948 22.2843 11.0688 22.3141 11.1497C22.344 11.2307 22.3575 11.3169 22.354 11.4034V25.1373C22.354 25.3072 22.2881 25.4701 22.1709 25.5902C22.0538 25.7103 21.8948 25.7778 21.7291 25.7778Z" fill="#243047"/>
<path d="M19.0015 10.236C19.0017 9.5876 19.1641 8.95006 19.4734 8.3844C19.7826 7.81874 20.2283 7.34388 20.7678 7.00524C21.3072 6.66661 21.9225 6.47552 22.5546 6.45027C23.1867 6.42502 23.8146 6.56645 24.3781 6.86102C24.0672 6.37508 23.6515 5.96889 23.1631 5.67385C22.6747 5.37882 22.1267 5.20283 21.5613 5.15949C20.996 5.11615 20.4285 5.20661 19.9027 5.42389C19.3769 5.64118 18.9069 5.97946 18.529 6.4126C18.151 6.84574 17.8753 7.36215 17.7231 7.92191C17.5709 8.48168 17.5463 9.06981 17.6512 9.64088C17.7561 10.2119 17.9877 10.7506 18.3281 11.2154C18.6684 11.6801 19.1085 12.0583 19.6142 12.321C19.2142 11.7029 19.0011 10.9777 19.0015 10.236Z" fill="#02E89B"/>
<path d="M26.0244 27.1836L26.5218 25.9163L27.4547 25.2111L26.5019 24.5388L25.9679 23.2897L25.4704 24.5581L24.5376 25.2633L25.4904 25.9345L26.0244 27.1836Z" fill="white"/>
<path d="M19.1632 41.8567C19.1632 41.7431 19.1477 41.6352 19.1322 41.5228C19.1609 41.3388 19.1743 41.1527 19.1721 40.9663C19.1721 40.8971 19.1721 40.8255 19.1621 40.7494C19.1727 40.6317 19.1771 40.5134 19.1754 40.3951C19.1754 40.3895 19.1655 39.4424 19.1632 39.3867C19.1632 39.2732 19.1477 39.1653 19.1322 39.0529C19.1609 38.8689 19.1743 38.6827 19.1721 38.4964C19.1566 37.2018 18.3966 35.9834 17.0671 35.1544C15.9094 34.4276 14.396 34.0267 12.8051 34.0267H12.6943C9.09143 34.0699 6.2918 36.1015 6.32171 38.6509C6.32295 38.7957 6.33406 38.9403 6.35495 39.0835C6.33853 39.1839 6.32744 39.2851 6.32171 39.3867C6.31285 39.5207 6.32171 40.5416 6.32171 40.5519C6.32171 40.6211 6.32171 40.6938 6.33279 40.7699C6.32138 40.8865 6.31657 41.0036 6.31839 41.1208C6.31963 41.2656 6.33074 41.4102 6.35163 41.5534C6.33521 41.6538 6.32411 41.755 6.31839 41.8567C6.30953 41.9907 6.31839 43.0116 6.31839 43.0218C6.31839 43.091 6.31839 43.1637 6.32947 43.2398C6.31806 43.3564 6.31325 43.4736 6.31507 43.5907C6.31631 43.7355 6.32741 43.8801 6.3483 44.0234C6.33182 44.1241 6.32073 44.2257 6.31507 44.3277C6.3062 44.4606 6.31507 45.4815 6.31507 45.4917C6.33058 46.7931 7.09059 48.0207 8.41008 48.8576C9.56893 49.5935 11.0845 49.9989 12.6788 49.9989H12.7896C14.406 49.9796 15.9382 49.5446 17.1037 48.7792C18.4265 47.9094 19.1765 46.6545 19.161 45.3361C19.161 45.3293 19.1511 44.3822 19.1488 44.3266C19.1488 44.213 19.1333 44.1051 19.1178 43.9927C19.1465 43.8087 19.1599 43.6226 19.1577 43.4363C19.1577 43.367 19.1577 43.2955 19.1477 43.2194C19.1583 43.1016 19.1627 42.9833 19.161 42.8651C19.181 42.8594 19.1655 41.9123 19.1632 41.8567Z" fill="#243047"/>
<path d="M12.702 41.1685C15.5449 41.1344 17.8714 42.5664 17.9468 44.3788C17.9468 44.4004 17.9578 45.3293 17.959 45.3509C17.98 47.1939 15.6656 48.7168 12.7895 48.752C9.91347 48.7872 7.56475 47.32 7.54813 45.4769C7.54813 45.4224 7.53816 44.4617 7.54148 44.4083C7.64784 42.6379 9.91015 41.2025 12.702 41.1685Z" fill="#F7A937"/>
<path d="M12.7889 46.8127C15.6651 46.7777 17.9796 45.2725 17.9585 43.4507C17.9374 41.6289 15.5887 40.1804 12.7125 40.2154C9.83629 40.2504 7.52177 41.7556 7.54287 43.5774C7.56396 45.3992 9.91268 46.8477 12.7889 46.8127Z" fill="#FFDA65"/>
<path d="M12.7802 46.0621C15.0011 46.0351 16.7883 44.8724 16.772 43.4651C16.7557 42.0578 14.9421 40.9389 12.7212 40.9659C10.5002 40.993 8.71304 42.1557 8.72933 43.563C8.74563 44.9702 10.5593 46.0892 12.7802 46.0621Z" fill="#FFC840"/>
<path d="M12.702 38.6986C15.5449 38.6645 17.8714 40.0965 17.9468 41.9089C17.9468 41.9305 17.9578 42.8594 17.959 42.881C17.98 44.724 15.6656 46.2469 12.7895 46.2821C9.91347 46.3173 7.56475 44.8501 7.54813 43.007C7.54813 42.9525 7.53816 41.9918 7.54148 41.9384C7.64784 40.168 9.91015 38.7326 12.702 38.6986Z" fill="#F7A937"/>
<path d="M12.788 44.343C15.6642 44.308 17.9787 42.8027 17.9576 40.9809C17.9365 39.1591 15.5878 37.7106 12.7116 37.7456C9.8354 37.7806 7.52089 39.2858 7.54198 41.1076C7.56308 42.9295 9.9118 44.3779 12.788 44.343Z" fill="#FFDA65"/>
<path d="M12.7059 43.6101C14.927 43.5873 16.7164 42.428 16.7027 41.0206C16.6889 39.6132 14.8772 38.4908 12.6562 38.5135C10.4351 38.5363 8.64565 39.6957 8.65938 41.103C8.67311 42.5104 10.4848 43.6329 12.7059 43.6101Z" fill="#FFC840"/>
<path d="M12.702 36.2286C15.5449 36.1946 17.8714 37.6266 17.9468 39.439C17.9468 39.4605 17.9578 40.3895 17.959 40.411C17.98 42.2541 15.6656 43.7769 12.7895 43.8121C9.91347 43.8473 7.56475 42.3802 7.54813 40.5371C7.54813 40.4826 7.53816 39.5219 7.54148 39.4685C7.64784 37.6981 9.91015 36.2627 12.702 36.2286Z" fill="#F7A937"/>
<path d="M12.7098 35.2759C15.5903 35.2407 17.9335 36.6897 17.9545 38.5112C17.9756 40.3327 15.6612 41.8373 12.7851 41.8737C9.90904 41.91 7.56032 40.4599 7.53927 38.6372C7.51822 36.8146 9.8337 35.3099 12.7098 35.2759Z" fill="#FFDA65"/>
<path d="M12.7795 41.1227C15.0004 41.0956 16.7876 39.9329 16.7713 38.5256C16.755 37.1184 14.9414 35.9994 12.7205 36.0264C10.4995 36.0535 8.71234 37.2162 8.72863 38.6235C8.74493 40.0308 10.5586 41.1497 12.7795 41.1227Z" fill="#FFC840"/>
<path d="M16.1708 42.965C16.275 42.9059 16.3769 42.8446 16.4744 42.7799V40.8494C16.3769 40.9141 16.2761 40.9754 16.1708 41.0345V42.965Z" fill="#FFB842"/>
<path d="M16.4744 43.3193C16.3769 43.384 16.2761 43.4453 16.1708 43.5044V45.4349C16.275 45.3759 16.3769 45.3145 16.4744 45.2498V43.3193Z" fill="#FFB842"/>
<path d="M16.9308 40.5064V42.4369C17.0382 42.345 17.1399 42.2464 17.2355 42.1417V40.2112C17.1399 40.3159 17.0382 40.4145 16.9308 40.5064Z" fill="#FFB842"/>
<path d="M14.9533 44.0166C14.8535 44.0472 14.7516 44.0756 14.6486 44.1017V46.039C14.7516 46.0118 14.8535 45.9834 14.9533 45.9527V44.0166Z" fill="#FFB842"/>
<path d="M15.7144 43.7327C15.6147 43.7769 15.5139 43.8201 15.4097 43.8598V45.7904C15.5128 45.7495 15.6147 45.7075 15.7144 45.6632V43.7327Z" fill="#FFB842"/>
<path d="M14.1955 44.2039C14.0958 44.2232 13.9938 44.2403 13.8908 44.255V46.1935C13.9938 46.1776 14.0947 46.1606 14.1955 46.1412V44.2039Z" fill="#FFB842"/>
<path d="M13.8875 43.7236C13.9905 43.7077 14.0913 43.6906 14.1922 43.6713V41.734C14.0924 41.7533 13.9905 41.7703 13.8875 41.7851V43.7236Z" fill="#FFB842"/>
<path d="M13.1263 43.7996C13.2294 43.7996 13.3302 43.7872 13.431 43.7781V41.8373C13.3302 41.8464 13.2294 41.8532 13.1263 41.8589V43.7996Z" fill="#FFB842"/>
<path d="M14.6486 43.5691C14.7516 43.5419 14.8535 43.5135 14.9533 43.4828V41.5466C14.8535 41.5773 14.7516 41.6057 14.6486 41.6318V43.5691Z" fill="#FFB842"/>
<path d="M15.4142 43.325C15.5172 43.2841 15.6191 43.2421 15.7188 43.1978V41.2673C15.6191 41.3116 15.5183 41.3547 15.4142 41.3945V43.325Z" fill="#FFB842"/>
<path d="M8.8654 43.2716C8.75461 43.1967 8.65712 43.1183 8.56073 43.0377V44.9557C8.65712 45.0386 8.75904 45.1181 8.8654 45.1942V43.2716Z" fill="#FFB842"/>
<path d="M8.10208 42.5732C7.98662 42.4295 7.88496 42.2747 7.79852 42.111V44.0165C7.88394 44.183 7.98565 44.3402 8.10208 44.4855V42.5732Z" fill="#FFB842"/>
<path d="M13.431 44.3095C13.3302 44.3186 13.2294 44.3254 13.1263 44.3311V46.2662C13.2294 46.2662 13.3302 46.2537 13.431 46.2446V44.3095Z" fill="#FFB842"/>
<path d="M9.62654 43.7077C9.5224 43.6588 9.42047 43.6077 9.32187 43.5544V45.4849C9.42047 45.5394 9.5224 45.5916 9.62654 45.6416V43.7077Z" fill="#FFB842"/>
<path d="M16.9308 42.9729V44.9035C17.0382 44.8115 17.1399 44.7129 17.2355 44.6082V42.6777C17.1399 42.7824 17.0382 42.881 16.9308 42.9729Z" fill="#FFB842"/>
<path d="M17.9468 41.9089C17.9404 41.7761 17.9223 41.6442 17.8925 41.5148C17.8468 41.6978 17.7795 41.8744 17.692 42.0406V43.9609C17.8687 43.6299 17.9606 43.2583 17.959 42.881C17.9623 42.8594 17.9479 41.9305 17.9468 41.9089Z" fill="#FFB842"/>
<path d="M12.6699 44.3436C12.568 44.3436 12.4661 44.3436 12.3664 44.3368V46.2752C12.4661 46.2752 12.568 46.2809 12.6699 46.2809V44.3436Z" fill="#FFB842"/>
<path d="M10.3876 44.0029C10.2846 43.97 10.1827 43.9359 10.083 43.8996V45.8301C10.1827 45.8664 10.2846 45.9016 10.3876 45.9346V44.0029Z" fill="#FFB842"/>
<path d="M11.9088 44.3061C11.8069 44.297 11.7049 44.2857 11.6052 44.2721V46.2082C11.7049 46.2219 11.8069 46.2344 11.9088 46.2435V44.3061Z" fill="#FFB842"/>
<path d="M11.1488 44.1971C11.0458 44.1767 10.9438 44.154 10.8441 44.1301V46.0606C10.9438 46.0856 11.0458 46.1072 11.1488 46.1288V44.1971Z" fill="#FFB842"/>
<path d="M12.3664 41.8669V43.8053C12.4661 43.8053 12.568 43.811 12.6699 43.811V41.8737C12.568 41.8725 12.4661 41.8714 12.3664 41.8669Z" fill="#FFB842"/>
<path d="M11.6052 43.7383C11.7049 43.752 11.8069 43.7644 11.9088 43.7735V41.8374C11.8069 41.8283 11.7049 41.8169 11.6052 41.8033V43.7383Z" fill="#FFB842"/>
<path d="M14.1955 46.6738C14.0958 46.6931 13.9938 46.7102 13.8908 46.7249V48.6634C13.9938 48.6475 14.0947 48.6305 14.1955 48.6112V46.6738Z" fill="#FFB842"/>
<path d="M12.6699 46.8135C12.568 46.8135 12.4661 46.8135 12.3664 46.8067V48.7452C12.4661 48.7452 12.568 48.7508 12.6699 48.7508V46.8135Z" fill="#FFB842"/>
<path d="M13.431 48.7179V46.7795C13.3302 46.7885 13.2294 46.7954 13.1263 46.801V48.7395C13.2294 48.7338 13.3302 48.727 13.431 48.7179Z" fill="#FFB842"/>
<path d="M11.9088 46.7772C11.8069 46.767 11.7049 46.7556 11.6052 46.742V48.6782C11.7049 48.6918 11.8069 48.7043 11.9088 48.7134V46.7772Z" fill="#FFB842"/>
<path d="M15.7144 46.2026C15.6147 46.2469 15.5139 46.29 15.4097 46.3298V48.2603C15.5128 48.2194 15.6147 48.1774 15.7144 48.1331V46.2026Z" fill="#FFB842"/>
<path d="M16.4744 45.7892C16.3769 45.8539 16.2761 45.9153 16.1708 45.9743V47.9048C16.275 47.8458 16.3769 47.7844 16.4744 47.7197V45.7892Z" fill="#FFB842"/>
<path d="M17.9468 44.3788C17.9404 44.246 17.9223 44.1141 17.8925 43.9847C17.8468 44.1677 17.7795 44.3443 17.692 44.5105V46.4308C17.8687 46.0998 17.9606 45.7282 17.959 45.3509C17.9623 45.3293 17.9479 44.4004 17.9468 44.3788Z" fill="#FFB842"/>
<path d="M17.8925 39.0449C17.8468 39.2279 17.7795 39.4045 17.692 39.5707V41.4967C17.8687 41.1657 17.9606 40.7941 17.959 40.4167C17.959 40.3951 17.9479 39.4662 17.9468 39.4446C17.9408 39.31 17.9226 39.1762 17.8925 39.0449Z" fill="#FFB842"/>
<path d="M17.2355 47.0781V45.1476C17.1396 45.252 17.0379 45.3506 16.9308 45.4429V47.3734C17.0382 47.2814 17.1399 47.1828 17.2355 47.0781Z" fill="#FFB842"/>
<path d="M14.9533 46.4865C14.8535 46.5171 14.7516 46.5455 14.6486 46.5716V48.509C14.7516 48.4817 14.8535 48.4533 14.9533 48.4227V46.4865Z" fill="#FFB842"/>
<path d="M9.32077 43.0104C9.41937 43.0649 9.5213 43.1172 9.62544 43.1671V41.2366C9.5213 41.1878 9.41937 41.1367 9.32077 41.0833V43.0104Z" fill="#FFB842"/>
<path d="M8.56073 42.4858C8.65712 42.5687 8.75904 42.6482 8.8654 42.7242V40.8017C8.75461 40.7267 8.65712 40.6484 8.56073 40.5677V42.4858Z" fill="#FFB842"/>
<path d="M7.80075 39.6411V41.5466C7.88547 41.713 7.98644 41.8701 8.1021 42.0156V40.1033C7.9874 39.9595 7.88649 39.8047 7.80075 39.6411Z" fill="#FFB842"/>
<path d="M11.1488 46.667C11.0458 46.6466 10.9438 46.6239 10.8441 46.6V48.5305C10.9438 48.5555 11.0458 48.5771 11.1488 48.5987V46.667Z" fill="#FFB842"/>
<path d="M10.083 43.3613C10.1827 43.3977 10.2846 43.4329 10.3876 43.4658V41.5353C10.2846 41.5023 10.1827 41.4683 10.083 41.4319V43.3613Z" fill="#FFB842"/>
<path d="M10.8441 43.5941C10.9438 43.6191 11.0458 43.6407 11.1488 43.6622V41.7238C11.0458 41.7033 10.9438 41.6806 10.8441 41.6568V43.5941Z" fill="#FFB842"/>
<path d="M9.62654 46.1776C9.5224 46.1288 9.42047 46.0777 9.32187 46.0243V47.9548C9.42047 48.0093 9.5224 48.0615 9.62654 48.1115V46.1776Z" fill="#FFB842"/>
<path d="M8.10208 45.0431C7.98662 44.8994 7.88496 44.7447 7.79852 44.5809V46.4865C7.88394 46.6529 7.98565 46.8101 8.10208 46.9555V45.0431Z" fill="#FFB842"/>
<path d="M10.3876 46.4728C10.2846 46.4399 10.1827 46.4058 10.083 46.3695V48.3C10.1827 48.3364 10.2846 48.3716 10.3876 48.4045V46.4728Z" fill="#FFB842"/>
<path d="M8.8654 47.6641V45.7415C8.75461 45.6666 8.65712 45.5882 8.56073 45.5076V47.4256C8.65601 47.5085 8.75904 47.588 8.8654 47.6641Z" fill="#FFB842"/>
<path d="M19.5422 30.6608L15.0995 25.495H18.5351L14.735 20.3292H17.8294L12.5835 12.2392L7.33877 20.3292H10.432L6.63194 25.495H10.0686L5.62598 30.6608H19.5422Z" fill="#664FFA"/>
<path d="M19.5422 31.3013H5.62597C5.50563 31.3012 5.38786 31.2656 5.28678 31.1987C5.18569 31.1317 5.10556 31.0364 5.05599 30.924C5.00643 30.8116 4.98952 30.6869 5.00729 30.5649C5.02507 30.4429 5.07678 30.3288 5.15622 30.2361L8.68263 26.1366H6.63193C6.51568 26.1364 6.4018 26.1029 6.30305 26.04C6.2043 25.9772 6.12458 25.8874 6.07282 25.7807C6.02106 25.674 5.99931 25.5546 6.01001 25.436C6.02071 25.3173 6.06343 25.2041 6.13338 25.1089L9.17675 20.9708H7.33766C7.22461 20.9706 7.11374 20.939 7.0168 20.8794C6.91986 20.8198 6.84048 20.7344 6.78709 20.6323C6.73369 20.5301 6.70827 20.4151 6.71353 20.2993C6.71879 20.1836 6.75452 20.0715 6.81695 19.9749L12.0628 11.8849C12.1198 11.7968 12.1972 11.7246 12.288 11.6746C12.3789 11.6246 12.4804 11.5985 12.5835 11.5985C12.6866 11.5985 12.7881 11.6246 12.879 11.6746C12.9698 11.7246 13.0472 11.7968 13.1042 11.8849L18.3501 19.9749C18.4125 20.0715 18.4482 20.1836 18.4535 20.2993C18.4587 20.4151 18.4333 20.5301 18.3799 20.6323C18.3265 20.7344 18.2472 20.8198 18.1502 20.8794C18.0533 20.939 17.9424 20.9706 17.8294 20.9708H15.9903L19.0347 25.1089C19.1048 25.2041 19.1475 25.3175 19.1581 25.4363C19.1688 25.555 19.1469 25.6744 19.0951 25.7812C19.0432 25.8879 18.9633 25.9777 18.8644 26.0405C18.7655 26.1033 18.6514 26.1366 18.5351 26.1366H16.4844L20.0108 30.2361C20.0902 30.3287 20.1419 30.4427 20.1597 30.5646C20.1775 30.6865 20.1607 30.8111 20.1113 30.9235C20.0618 31.0358 19.9819 31.1312 19.8809 31.1982C19.78 31.2652 19.6624 31.301 19.5422 31.3013ZM7.01083 30.0192H18.1562L14.6298 25.9186C14.5503 25.8259 14.4986 25.7118 14.4809 25.5898C14.4631 25.4678 14.48 25.3431 14.5296 25.2307C14.5791 25.1183 14.6592 25.023 14.7603 24.956C14.8614 24.8891 14.9792 24.8535 15.0995 24.8534H17.2799L14.2354 20.7153C14.1669 20.62 14.1255 20.5072 14.1157 20.3894C14.1059 20.2715 14.1281 20.1532 14.1798 20.0474C14.2315 19.9416 14.3107 19.8526 14.4087 19.7901C14.5067 19.7276 14.6196 19.6941 14.735 19.6932H16.6628L12.5835 13.3975L8.50537 19.6932H10.4287C10.5441 19.6941 10.657 19.7276 10.755 19.7901C10.853 19.8526 10.9322 19.9416 10.9839 20.0474C11.0356 20.1532 11.0578 20.2715 11.048 20.3894C11.0382 20.5072 10.9968 20.62 10.9283 20.7153L7.88717 24.8534H10.0686C10.189 24.8533 10.3069 24.8887 10.4082 24.9556C10.5095 25.0224 10.5898 25.1178 10.6395 25.2302C10.6892 25.3426 10.7062 25.4674 10.6884 25.5895C10.6707 25.7116 10.619 25.8259 10.5395 25.9186L7.01083 30.0192Z" fill="#243047"/>
<path d="M12.5835 38.9393C12.5013 38.9393 12.42 38.9227 12.3441 38.8904C12.2682 38.8582 12.1993 38.8109 12.1413 38.7513C12.0832 38.6917 12.0372 38.621 12.0059 38.5431C11.9746 38.4653 11.9585 38.3819 11.9586 38.2977V30.8857C11.9654 30.7203 12.0343 30.5641 12.1508 30.4495C12.2674 30.335 12.4226 30.271 12.5841 30.271C12.7455 30.271 12.9007 30.335 13.0173 30.4495C13.1338 30.5641 13.2027 30.7203 13.2095 30.8857V38.2977C13.2095 38.382 13.1933 38.4654 13.1618 38.5432C13.1304 38.6211 13.0842 38.6918 13.0261 38.7514C12.968 38.811 12.899 38.8582 12.823 38.8905C12.7471 38.9227 12.6657 38.9393 12.5835 38.9393Z" fill="#243047"/>
<path fill-rule="evenodd" clip-rule="evenodd" d="M12.5935 14.6421L9.75397 18.7303L12.825 20.0044L12.5935 14.6421Z" fill="#A597FF"/>
</g>
<path d="M58.94 49V17.5H74.942L74.438 22.414H65.114V29.932H71.75L71.708 35.224H65.114V44.086H75.278L74.774 49H58.94ZM85.8856 49.546C84.0936 49.546 82.5536 48.986 81.2656 47.866C80.0056 46.746 79.0536 45.262 78.4096 43.414C77.7656 41.566 77.4436 39.564 77.4436 37.408C77.4436 35.28 77.7516 33.278 78.3676 31.402C79.0116 29.526 79.9776 28 81.2656 26.824C82.5536 25.648 84.1356 25.06 86.0116 25.06C87.4396 25.06 88.7136 25.424 89.8336 26.152C90.9816 26.852 91.8776 27.846 92.5216 29.134C93.1656 30.422 93.5156 31.892 93.5716 33.544L87.9856 33.796C87.9856 33.684 87.9296 33.236 87.8176 32.452C87.7336 31.668 87.5236 31.024 87.1876 30.52C86.8796 30.016 86.4736 29.764 85.9696 29.764C84.8496 29.764 84.1356 30.534 83.8276 32.074C83.5196 33.586 83.3656 35.294 83.3656 37.198C83.3656 39.074 83.5196 40.782 83.8276 42.322C84.1636 43.834 84.9336 44.59 86.1376 44.59C87.6496 44.59 88.4336 43.106 88.4896 40.138L93.4456 40.684C93.0816 43.596 92.3536 45.808 91.2616 47.32C90.1696 48.804 88.3776 49.546 85.8856 49.546ZM104.967 49.546C102.139 49.546 99.9548 48.426 98.4148 46.186C96.9028 43.946 96.1468 40.964 96.1468 37.24C96.1468 33.544 96.9028 30.59 98.4148 28.378C99.9268 26.166 102.111 25.06 104.967 25.06C107.795 25.06 109.979 26.166 111.519 28.378C113.087 30.59 113.871 33.544 113.871 37.24C113.871 40.936 113.087 43.918 111.519 46.186C109.979 48.426 107.795 49.546 104.967 49.546ZM104.967 45.178C106.227 45.178 107.039 44.408 107.403 42.868C107.767 41.328 107.949 39.438 107.949 37.198C107.949 34.958 107.767 33.068 107.403 31.528C107.039 29.988 106.227 29.218 104.967 29.218C103.707 29.218 102.909 29.946 102.573 31.402C102.237 32.858 102.069 34.636 102.069 36.736C102.069 39.312 102.237 41.37 102.573 42.91C102.909 44.422 103.707 45.178 104.967 45.178ZM117.871 25.858L123.625 25.354V28.378C124.493 27.37 125.487 26.572 126.607 25.984C127.755 25.368 128.889 25.06 130.009 25.06C131.773 25.06 132.935 26.292 133.495 28.756C135.343 26.292 137.415 25.06 139.711 25.06C141.223 25.06 142.301 25.662 142.945 26.866C143.589 28.07 143.911 29.862 143.911 32.242V48.748L138.115 49.252V32.536C138.115 31.78 137.975 31.192 137.695 30.772C137.415 30.324 137.093 30.1 136.729 30.1C136.141 30.1 135.581 30.268 135.049 30.604C134.545 30.912 134.111 31.304 133.747 31.78V48.748L127.993 49.252V32.494C127.993 31.71 127.867 31.122 127.615 30.73C127.391 30.31 127.125 30.1 126.817 30.1C126.257 30.1 125.683 30.268 125.095 30.604C124.507 30.94 124.017 31.332 123.625 31.78V48.748L117.871 49.252V25.858Z" fill="#5E5EAB"/>
<path d="M157.531 49.588C154.983 49.588 152.827 48.888 151.063 47.488C149.327 46.06 148.053 44.156 147.241 41.776L152.449 39.34L152.953 40.18C153.765 41.58 154.535 42.672 155.263 43.456C156.019 44.24 156.957 44.632 158.077 44.632C158.805 44.632 159.449 44.282 160.009 43.582C160.597 42.882 160.891 42.112 160.891 41.272C160.891 40.488 160.695 39.774 160.303 39.13C159.911 38.486 159.407 37.968 158.791 37.576L153.289 34.3C151.693 33.404 150.419 32.27 149.467 30.898C148.515 29.526 148.039 27.986 148.039 26.278C148.039 24.458 148.459 22.834 149.299 21.406C150.167 19.978 151.329 18.872 152.785 18.088C154.269 17.304 155.935 16.912 157.783 16.912C159.939 16.912 161.773 17.444 163.285 18.508C164.797 19.572 165.917 21.154 166.645 23.254L161.437 25.606C161.325 25.382 161.087 24.878 160.723 24.094C160.359 23.31 159.911 22.75 159.379 22.414C158.875 22.05 158.245 21.868 157.489 21.868C156.565 21.868 155.851 22.162 155.347 22.75C154.871 23.338 154.633 24.094 154.633 25.018C154.633 25.69 154.815 26.306 155.179 26.866C155.571 27.398 156.033 27.818 156.565 28.126L161.647 31.108C165.399 33.236 167.373 36.036 167.569 39.508C167.569 41.496 167.121 43.26 166.225 44.8C165.357 46.312 164.153 47.488 162.613 48.328C161.101 49.168 159.407 49.588 157.531 49.588ZM179.296 49.462C177.392 49.462 175.782 48.986 174.466 48.034C173.15 47.054 172.492 45.332 172.492 42.868V29.806H169.216L169.468 25.354H172.66L173.248 20.23L178.372 19.516V25.354H183.244L182.992 29.806H178.414V42.826C178.414 43.666 178.624 44.268 179.044 44.632C179.464 44.996 180.08 45.178 180.892 45.178C181.34 45.178 182.096 45.094 183.16 44.926V49C183.048 49.028 182.6 49.112 181.816 49.252C181.06 49.392 180.22 49.462 179.296 49.462ZM186.367 25.858L192.247 25.354V29.176C193.087 27.972 194.123 27.006 195.355 26.278C196.615 25.522 198.211 25.144 200.143 25.144V30.898C199.135 30.898 197.805 31.08 196.153 31.444C194.529 31.78 193.227 32.382 192.247 33.25V48.748L186.367 49.252V25.858ZM207.211 49.546C206.203 49.546 205.293 49.238 204.481 48.622C203.669 47.978 203.039 47.124 202.591 46.06C202.143 44.968 201.919 43.75 201.919 42.406C201.919 39.354 202.955 37.212 205.027 35.98C207.127 34.72 209.563 34.006 212.335 33.838C212.335 32.326 212.237 31.206 212.041 30.478C211.845 29.75 211.369 29.386 210.613 29.386C209.969 29.386 209.479 29.638 209.143 30.142C208.807 30.646 208.597 31.29 208.513 32.074L202.759 31.066C203.039 28.91 203.921 27.37 205.405 26.446C206.889 25.522 208.625 25.06 210.613 25.06C213.161 25.06 215.065 25.732 216.325 27.076C217.613 28.42 218.257 30.17 218.257 32.326V44.548C218.257 45.864 218.467 47.264 218.887 48.748L213.133 49.252L212.461 46.354C211.957 47.25 211.215 48.006 210.235 48.622C209.255 49.238 208.247 49.546 207.211 49.546ZM209.941 45.346C210.417 45.346 210.809 45.234 211.117 45.01C211.453 44.786 211.859 44.422 212.335 43.918V37.366C210.935 37.366 209.815 37.744 208.975 38.5C208.135 39.256 207.715 40.432 207.715 42.028C207.715 43.092 207.897 43.918 208.261 44.506C208.653 45.066 209.213 45.346 209.941 45.346ZM231.181 49.462C229.277 49.462 227.667 48.986 226.351 48.034C225.035 47.054 224.377 45.332 224.377 42.868V29.806H221.101L221.353 25.354H224.545L225.133 20.23L230.257 19.516V25.354H235.129L234.877 29.806H230.299V42.826C230.299 43.666 230.509 44.268 230.929 44.632C231.349 44.996 231.965 45.178 232.777 45.178C233.225 45.178 233.981 45.094 235.045 44.926V49C234.933 49.028 234.485 49.112 233.701 49.252C232.945 49.392 232.105 49.462 231.181 49.462ZM245.307 49.546C242.983 49.546 241.107 49.028 239.679 47.992C238.251 46.928 237.327 45.458 236.907 43.582L241.485 42.07C241.597 42.602 241.807 43.078 242.115 43.498C242.759 44.422 243.697 44.884 244.929 44.884C245.629 44.884 246.301 44.73 246.945 44.422C247.589 44.114 247.911 43.638 247.911 42.994C247.911 42.126 247.309 41.454 246.105 40.978L241.149 38.962C239.833 38.402 238.825 37.562 238.125 36.442C237.425 35.322 237.075 33.95 237.075 32.326C237.075 30.814 237.439 29.512 238.167 28.42C238.923 27.328 239.903 26.502 241.107 25.942C242.339 25.354 243.655 25.06 245.055 25.06C246.819 25.06 248.443 25.578 249.927 26.614C251.411 27.622 252.405 29.008 252.909 30.772L248.037 32.284C247.925 31.808 247.729 31.332 247.449 30.856C246.833 29.904 246.049 29.428 245.097 29.428C244.397 29.428 243.795 29.596 243.291 29.932C242.787 30.24 242.535 30.702 242.535 31.318C242.535 32.046 243.221 32.718 244.593 33.334L248.793 35.056C250.277 35.756 251.439 36.638 252.279 37.702C253.119 38.766 253.539 40.194 253.539 41.986C253.539 43.61 253.147 44.996 252.363 46.144C251.579 47.264 250.557 48.118 249.297 48.706C248.037 49.266 246.707 49.546 245.307 49.546Z" fill="#F0A73A"/>
</g>
<defs>
<clipPath id="clip0">
<rect width="273" height="56" fill="white"/>
</clipPath>
<clipPath id="clip1">
<rect width="34" height="47" fill="white" transform="translate(5 3)"/>
</clipPath>
</defs>
</svg>
