<svg width="256" height="56" viewBox="0 0 256 56" fill="none" xmlns="http://www.w3.org/2000/svg">
<g clip-path="url(#clip0)">
<rect width="256" height="56" fill="white"/>
<g clip-path="url(#clip1)">
<path d="M44.9359 43.3544C44.9302 43.2184 44.9168 43.0829 44.8958 42.9485C44.9297 42.731 44.9458 42.5111 44.9439 42.2909C44.9439 42.2142 44.9399 42.1344 44.9319 42.0514C44.9464 41.9071 44.9531 41.7621 44.9519 41.6171C44.9519 41.6076 44.9385 40.4792 44.9359 40.4142C44.9299 40.2783 44.9165 40.1428 44.8958 40.0083C44.9291 39.7899 44.9452 39.5691 44.9439 39.348C44.9439 39.2655 44.9439 39.1802 44.9305 39.0896C44.9436 38.9497 44.9494 38.8093 44.9479 38.6688V38.5619C44.9359 37.516 44.9345 37.5052 44.9332 37.4795C44.9279 37.3478 44.9158 37.2152 44.8971 37.0817C44.9304 36.8623 44.9465 36.6406 44.9452 36.4187C44.9265 34.8762 44.0034 33.4244 42.4069 32.4366C41.0121 31.5707 39.1871 31.0931 37.2687 31.0931H37.1324C32.7878 31.1445 29.4131 33.5651 29.4478 36.6027C29.4506 36.7752 29.464 36.9474 29.4879 37.1182C29.4692 37.24 29.4558 37.3617 29.4478 37.4808C29.4385 37.6378 29.4478 38.8555 29.4478 38.8677C29.4478 38.9507 29.4518 39.0373 29.4598 39.1275C29.4467 39.2664 29.4409 39.406 29.4425 39.5456C29.4453 39.7181 29.4587 39.8902 29.4825 40.0611C29.4638 40.1829 29.4505 40.3046 29.4425 40.4237C29.4331 40.5807 29.4425 41.7984 29.4425 41.8106C29.4425 41.8936 29.4465 41.9802 29.4545 42.0704C29.4414 42.2093 29.4356 42.3489 29.4371 42.4884C29.4399 42.661 29.4533 42.8331 29.4772 43.004C29.4585 43.1257 29.4451 43.2475 29.4371 43.3666C29.4278 43.5235 29.4371 44.7413 29.4371 44.7535C29.4371 44.8364 29.4411 44.923 29.4491 45.0132C29.436 45.1522 29.4302 45.2918 29.4318 45.4313C29.4346 45.6038 29.448 45.776 29.4719 45.9468C29.4531 46.0686 29.4398 46.1904 29.4318 46.3095C29.4224 46.4664 29.4318 47.6842 29.4318 47.6963C29.4318 47.7793 29.4358 47.8659 29.4438 47.9561C29.4307 48.0951 29.4249 48.2346 29.4264 48.3742C29.4293 48.5467 29.4426 48.7189 29.4665 48.8897C29.4478 49.0115 29.4344 49.1333 29.4264 49.2523C29.4171 49.4093 29.4264 50.627 29.4264 50.6392C29.4438 52.1898 30.3616 53.6525 31.9528 54.6497C33.3502 55.5264 35.1778 56.0095 37.099 56.0095H37.2326C37.3662 56.0095 37.5105 56.0095 37.6748 55.9959H37.7002H37.7363C37.8538 55.9892 37.9727 55.9811 38.0903 55.9702H38.1197H38.1544C38.3455 55.9526 38.5325 55.9296 38.7129 55.9039H38.7556L38.8211 55.8931C38.9253 55.8769 39.0295 55.8593 39.1324 55.8403L39.1778 55.8322L39.2259 55.8228C39.4089 55.7862 39.5906 55.747 39.7603 55.7023C39.7779 55.6996 39.7953 55.6955 39.8124 55.6902L39.8845 55.6712C39.9807 55.6455 40.0769 55.6184 40.1717 55.59L40.2412 55.5711L40.2973 55.5521C40.479 55.4967 40.658 55.4344 40.8317 55.3695L40.8918 55.3478L40.9506 55.3248L41.2526 55.2003L41.3287 55.1679L41.3955 55.1354C41.5759 55.0529 41.7549 54.9636 41.9299 54.8648L41.9994 54.8283L42.0769 54.7823C42.1784 54.7241 42.2706 54.6686 42.3588 54.6118C42.3935 54.5928 42.4229 54.5739 42.4523 54.5549C42.4817 54.536 42.5004 54.5225 42.5231 54.5049C42.7177 54.3747 42.9055 54.2342 43.0855 54.0841C43.1082 54.0665 43.1323 54.0475 43.155 54.0273C43.3267 53.8813 43.4896 53.725 43.6426 53.5591C43.6667 53.5334 43.6894 53.5077 43.7108 53.4806C43.9612 53.2019 44.1799 52.8955 44.3627 52.5673C44.3841 52.5348 44.4028 52.501 44.4215 52.4672C44.7496 51.8529 44.9188 51.1644 44.9132 50.466C44.9132 50.4566 44.8998 49.3281 44.8971 49.2632C44.8914 49.1272 44.878 48.9917 44.857 48.8573C44.891 48.6398 44.9071 48.4198 44.9051 48.1997C44.9051 48.1212 44.9051 48.0414 44.8931 47.9561C44.9077 47.8114 44.9144 47.6659 44.9132 47.5204C44.9132 47.511 44.8998 46.3825 44.8971 46.3176C44.8914 46.1816 44.878 46.0461 44.857 45.9117C44.891 45.6942 44.9071 45.4742 44.9051 45.2541C44.9051 45.1756 44.9051 45.0958 44.8931 45.0105C44.9077 44.8658 44.9144 44.7203 44.9132 44.5749C44.9519 44.5478 44.9385 43.4193 44.9359 43.3544Z" fill="#243047"/>
<path d="M37.1417 45.4773C40.5685 45.4367 43.3754 47.1429 43.4649 49.3024C43.4649 49.3281 43.4796 50.4349 43.4796 50.4606C43.5063 52.6566 40.7155 54.471 37.2473 54.513C33.779 54.5549 30.9468 52.8068 30.9214 50.6108C30.9214 50.5459 30.9093 49.4012 30.9134 49.3376C31.047 47.2282 33.775 45.5179 37.1417 45.4773Z" fill="#F7A937"/>
<path d="M37.2448 52.1998C40.7131 52.1581 43.5042 50.3647 43.4787 48.194C43.4533 46.0233 40.621 44.2975 37.1527 44.3392C33.6843 44.3809 30.8933 46.1743 30.9187 48.345C30.9441 50.5156 33.7764 52.2415 37.2448 52.1998Z" fill="#FFDA65"/>
<path d="M37.2343 51.3069C39.9125 51.2747 42.0676 49.8893 42.048 48.2126C42.0283 46.5358 39.8413 45.2026 37.1631 45.2348C34.485 45.267 32.3298 46.6524 32.3495 48.3291C32.3691 50.0059 34.5561 51.3391 37.2343 51.3069Z" fill="#FFC840"/>
<path d="M37.1417 42.5345C40.5685 42.4939 43.3754 44.2001 43.4649 46.3595C43.4649 46.3852 43.4796 47.492 43.4796 47.5177C43.5063 49.7137 40.7155 51.5282 37.2473 51.5701C33.779 51.6121 30.9468 49.8639 30.9214 47.6679C30.9214 47.603 30.9093 46.4583 30.9134 46.3947C31.047 44.2853 33.775 42.575 37.1417 42.5345Z" fill="#F7A937"/>
<path d="M37.245 49.2572C40.7134 49.2155 43.5044 47.422 43.479 45.2513C43.4535 43.0807 40.6213 41.3548 37.1529 41.3965C33.6846 41.4382 30.8935 43.2317 30.919 45.4023C30.9444 47.573 33.7767 49.2988 37.245 49.2572Z" fill="#FFDA65"/>
<path d="M37.2346 48.3629C39.9127 48.3307 42.0679 46.9453 42.0482 45.2685C42.0286 43.5918 39.8416 42.2586 37.1634 42.2908C34.4852 42.323 32.33 43.7084 32.3497 45.3851C32.3693 47.0619 34.5564 48.395 37.2346 48.3629Z" fill="#FFC840"/>
<path d="M37.1417 39.5916C40.5685 39.551 43.3754 41.2572 43.4649 43.4166C43.4649 43.4423 43.4796 44.5491 43.4796 44.5748C43.5063 46.7708 40.7155 48.5853 37.2473 48.6272C33.779 48.6692 30.9468 46.921 30.9214 44.725C30.9214 44.6601 30.9093 43.5154 30.9134 43.4518C31.047 41.3424 33.775 39.6322 37.1417 39.5916Z" fill="#F7A937"/>
<path d="M37.244 46.3145C40.7123 46.2728 43.5034 44.4793 43.4779 42.3086C43.4525 40.138 40.6202 38.4121 37.1518 38.4538C33.6835 38.4955 30.8924 40.289 30.9179 42.4596C30.9433 44.6303 33.7756 46.3562 37.244 46.3145Z" fill="#FFDA65"/>
<path d="M37.2335 45.4202C39.9117 45.388 42.0668 44.0026 42.0472 42.3258C42.0275 40.6491 39.8405 39.3159 37.1623 39.3481C34.4841 39.3803 32.329 40.7657 32.3486 42.4424C32.3683 44.1192 34.5553 45.4524 37.2335 45.4202Z" fill="#FFC840"/>
<path d="M37.1417 36.6487C40.5685 36.6081 43.3754 38.3143 43.4649 40.4738C43.4649 40.4995 43.4796 41.6063 43.4796 41.632C43.5063 43.828 40.7155 45.6424 37.2473 45.6844C33.779 45.7263 30.9468 43.9741 30.9214 41.7822C30.9214 41.7172 30.9093 40.5725 30.9134 40.5089C31.047 38.3995 33.775 36.6893 37.1417 36.6487Z" fill="#F7A937"/>
<path d="M37.2442 43.3718C40.7125 43.3301 43.5036 41.5366 43.4781 39.366C43.4527 37.1953 40.6204 35.4694 37.1521 35.5111C33.6837 35.5528 30.8927 37.3463 30.9181 39.517C30.9435 41.6876 33.7758 43.4135 37.2442 43.3718Z" fill="#FFDA65"/>
<path d="M37.2337 42.4775C39.9119 42.4453 42.067 41.0599 42.0474 39.3832C42.0277 37.7064 39.8407 36.3732 37.1625 36.4054C34.4844 36.4376 32.3292 37.823 32.3488 39.4998C32.3685 41.1765 34.5555 42.5097 37.2337 42.4775Z" fill="#FFC840"/>
<path d="M37.1417 33.7058C40.5685 33.6652 43.3754 35.3714 43.4649 37.5309C43.4649 37.5566 43.4796 38.6634 43.4796 38.6891C43.5063 40.8851 40.7155 42.6995 37.2473 42.7415C33.779 42.7834 30.9468 41.0353 30.9214 38.8393C30.9214 38.7743 30.9093 37.6296 30.9134 37.566C31.047 35.4566 33.775 33.7464 37.1417 33.7058Z" fill="#F7A937"/>
<path d="M37.2445 40.4291C40.7128 40.3874 43.5039 38.594 43.4784 36.4233C43.453 34.2526 40.6207 32.5268 37.1523 32.5685C33.684 32.6102 30.8929 34.4036 30.9184 36.5743C30.9438 38.745 33.7761 40.4708 37.2445 40.4291Z" fill="#FFDA65"/>
<path d="M37.1604 33.465C39.8324 33.4338 42.0261 34.7666 42.0448 36.4417C42.0635 38.1168 39.9072 39.5036 37.2352 39.5347C34.5633 39.5659 32.3696 38.2345 32.3509 36.558C32.3322 34.8816 34.4818 33.4974 37.1604 33.465Z" fill="#FFC840"/>
<path d="M41.3274 47.6179C41.461 47.5475 41.5772 47.4744 41.6948 47.3973V45.0971C41.5772 45.1742 41.4543 45.2473 41.3274 45.3177V47.6179Z" fill="#FFB842"/>
<path d="M41.6948 48.04C41.5772 48.1171 41.4543 48.1902 41.3274 48.2606V50.5607C41.461 50.4904 41.5772 50.4173 41.6948 50.3402V48.04Z" fill="#FFB842"/>
<path d="M42.2452 44.6885V46.9887C42.3739 46.8788 42.4961 46.7613 42.6112 46.6369V44.3367C42.4964 44.4615 42.3742 44.5789 42.2452 44.6885Z" fill="#FFB842"/>
<path d="M39.8591 48.8708C39.7389 48.9073 39.6159 48.9411 39.4917 48.9723V51.2806C39.6159 51.2481 39.7389 51.2143 39.8591 51.1777V48.8708Z" fill="#FFB842"/>
<path d="M40.7769 48.5325C40.6567 48.5853 40.5351 48.6367 40.4095 48.6841V50.9842C40.5351 50.9355 40.658 50.8855 40.7769 50.8327V48.5325Z" fill="#FFB842"/>
<path d="M38.9413 49.094C38.8211 49.117 38.6982 49.1373 38.5739 49.1549V51.4646C38.6982 51.4456 38.8211 51.4253 38.9413 51.4023V49.094Z" fill="#FFB842"/>
<path d="M38.5739 48.5217C38.6982 48.5028 38.8211 48.4825 38.9413 48.4595V46.1512C38.8211 46.1742 38.6982 46.1945 38.5739 46.212V48.5217Z" fill="#FFB842"/>
<path d="M37.6574 48.6124C37.7803 48.6124 37.9032 48.5975 38.0235 48.5866V46.2743C37.9032 46.2851 37.7803 46.2932 37.6574 46.3V48.6124Z" fill="#FFB842"/>
<path d="M39.4917 48.3377C39.6159 48.3052 39.7389 48.2714 39.8591 48.2348V45.9279C39.7389 45.9644 39.6159 45.9983 39.4917 46.0294V48.3377Z" fill="#FFB842"/>
<path d="M40.4095 48.0468C40.5351 47.9981 40.658 47.948 40.7769 47.8952V45.5951C40.6567 45.6478 40.5351 45.6992 40.4095 45.7466V48.0468Z" fill="#FFB842"/>
<path d="M32.5179 47.9832C32.3843 47.8939 32.2667 47.8005 32.1518 47.7045V49.9898C32.2667 50.0885 32.3896 50.1832 32.5179 50.2739V47.9832Z" fill="#FFB842"/>
<path d="M31.6014 47.1511C31.4613 46.9802 31.3382 46.7958 31.234 46.6004V48.8708C31.3375 49.0692 31.4606 49.2564 31.6014 49.4296V47.1511Z" fill="#FFB842"/>
<path d="M38.0235 49.2199C37.9032 49.2307 37.7803 49.2388 37.6574 49.2456V51.5512C37.7803 51.5512 37.9032 51.5363 38.0235 51.5255V49.2199Z" fill="#FFB842"/>
<path d="M33.4357 48.5028C33.3101 48.4446 33.1872 48.3837 33.0696 48.3201V50.6203C33.1872 50.6852 33.3101 50.7475 33.4357 50.807V48.5028Z" fill="#FFB842"/>
<path d="M42.2452 47.6273V49.9275C42.3739 49.8176 42.4961 49.7001 42.6112 49.5757V47.2755C42.4964 47.4003 42.3742 47.5178 42.2452 47.6273Z" fill="#FFB842"/>
<path d="M43.469 46.3595C43.462 46.2013 43.4401 46.044 43.4035 45.89C43.3483 46.1078 43.2676 46.3181 43.163 46.5165V48.8045C43.3751 48.4097 43.4854 47.9671 43.4837 47.5177C43.4837 47.492 43.4703 46.3852 43.469 46.3595Z" fill="#FFB842"/>
<path d="M37.107 49.2605C36.9827 49.2605 36.8612 49.2605 36.7396 49.2523V51.562C36.8612 51.562 36.9827 51.5688 37.107 51.5688V49.2605Z" fill="#FFB842"/>
<path d="M34.3535 48.8545C34.2293 48.8153 34.1064 48.7747 33.9861 48.7314V51.0316C34.1064 51.0749 34.2293 51.1168 34.3535 51.1561V48.8545Z" fill="#FFB842"/>
<path d="M36.1892 49.2158C36.0649 49.205 35.9434 49.1915 35.8218 49.1752V51.4822C35.9434 51.4984 36.0649 51.5133 36.1892 51.5241V49.2158Z" fill="#FFB842"/>
<path d="M35.2713 49.0859C35.1471 49.0616 35.0255 49.0345 34.9039 49.0061V51.3063C35.0242 51.336 35.1471 51.3617 35.2713 51.3875V49.0859Z" fill="#FFB842"/>
<path d="M36.7396 46.3095V48.6191C36.8612 48.6191 36.9827 48.6259 37.107 48.6259V46.3176C36.9827 46.3162 36.8652 46.3149 36.7396 46.3095Z" fill="#FFB842"/>
<path d="M35.8218 48.5393C35.9434 48.5555 36.0649 48.5704 36.1892 48.5812V46.2743C36.0649 46.2635 35.9434 46.2499 35.8218 46.2337V48.5393Z" fill="#FFB842"/>
<path d="M38.9413 52.0369C38.8211 52.0599 38.6982 52.0802 38.5739 52.0978V54.4075C38.6982 54.3885 38.8211 54.3682 38.9413 54.3452V52.0369Z" fill="#FFB842"/>
<path d="M37.107 52.2033C36.9827 52.2033 36.8612 52.2033 36.7396 52.1952V54.5049C36.8612 54.5049 36.9827 54.5116 37.107 54.5116V52.2033Z" fill="#FFB842"/>
<path d="M38.0235 54.4724V52.1628C37.9032 52.1736 37.7803 52.1817 37.6574 52.1885V54.4981C37.7803 54.4913 37.9032 54.4832 38.0235 54.4724Z" fill="#FFB842"/>
<path d="M36.1892 52.16C36.0649 52.1479 35.9434 52.1343 35.8218 52.1181V54.4251C35.9434 54.4413 36.0649 54.4562 36.1892 54.467V52.16Z" fill="#FFB842"/>
<path d="M40.7769 51.4754C40.6567 51.5282 40.5351 51.5796 40.4095 51.6269V53.9271C40.5351 53.8784 40.658 53.8284 40.7769 53.7756V51.4754Z" fill="#FFB842"/>
<path d="M41.6948 50.9829C41.5772 51.06 41.4543 51.1331 41.3274 51.2034V53.5036C41.461 53.4333 41.5772 53.3602 41.6948 53.2831V50.9829Z" fill="#FFB842"/>
<path d="M43.469 49.3024C43.462 49.1441 43.4401 48.9869 43.4035 48.8329C43.3483 49.0507 43.2676 49.261 43.163 49.4594V51.7474C43.3751 51.3526 43.4854 50.91 43.4837 50.4606C43.4837 50.4349 43.4703 49.3281 43.469 49.3024Z" fill="#FFB842"/>
<path d="M43.4035 42.9471C43.3483 43.1649 43.2676 43.3752 43.163 43.5736V45.8684C43.3751 45.4736 43.4854 45.031 43.4837 44.5816C43.4837 44.5559 43.4703 43.4491 43.469 43.4234C43.4624 43.2629 43.4405 43.1034 43.4035 42.9471V42.9471Z" fill="#FFB842"/>
<path d="M42.6099 52.5186V50.2184C42.4947 50.3428 42.3725 50.4602 42.2438 50.5702V52.8704C42.3725 52.7605 42.4947 52.643 42.6099 52.5186V52.5186Z" fill="#FFB842"/>
<path d="M39.8591 51.8137C39.7389 51.8502 39.6159 51.884 39.4917 51.9151V54.2234C39.6159 54.191 39.7389 54.1571 39.8591 54.1206V51.8137Z" fill="#FFB842"/>
<path d="M33.0696 47.672C33.1872 47.7369 33.3101 47.7992 33.4357 47.8587V45.5585C33.3101 45.5003 33.1872 45.4394 33.0696 45.3759V47.672Z" fill="#FFB842"/>
<path d="M32.1518 47.0469C32.2667 47.1456 32.3896 47.2404 32.5179 47.331V45.0403C32.3843 44.951 32.2667 44.8576 32.1518 44.7616V47.0469Z" fill="#FFB842"/>
<path d="M31.234 43.6575V45.9279C31.3375 46.1263 31.4606 46.3135 31.6014 46.4867V44.2082C31.4613 44.0373 31.3382 43.8529 31.234 43.6575V43.6575Z" fill="#FFB842"/>
<path d="M35.2713 52.0288C35.1471 52.0044 35.0255 51.9774 34.9039 51.949V54.2492C35.0242 54.2789 35.1471 54.3046 35.2713 54.3303V52.0288Z" fill="#FFB842"/>
<path d="M33.9861 48.0901C34.1064 48.1334 34.2293 48.1753 34.3535 48.2145V45.9144C34.2293 45.8751 34.1064 45.8345 33.9861 45.7912V48.0901Z" fill="#FFB842"/>
<path d="M34.9039 48.3675C35.0242 48.3972 35.1471 48.4229 35.2713 48.4486V46.139C35.1471 46.1146 35.0255 46.0876 34.9039 46.0591V48.3675Z" fill="#FFB842"/>
<path d="M33.4357 51.4456C33.3101 51.3875 33.1872 51.3266 33.0696 51.263V53.5632C33.1872 53.6281 33.3101 53.6903 33.4357 53.7499V51.4456Z" fill="#FFB842"/>
<path d="M31.6014 50.0939C31.4613 49.9231 31.3382 49.7386 31.234 49.5432V51.8137C31.3375 52.012 31.4606 52.1993 31.6014 52.3725V50.0939Z" fill="#FFB842"/>
<path d="M34.3535 51.7974C34.2293 51.7582 34.1064 51.7176 33.9861 51.6743V53.9745C34.1064 54.0178 34.2293 54.0597 34.3535 54.099V51.7974Z" fill="#FFB842"/>
<path d="M32.5179 53.2168V50.9261C32.3843 50.8368 32.2667 50.7434 32.1518 50.6473V52.9326C32.2667 53.0314 32.3896 53.1261 32.5179 53.2168Z" fill="#FFB842"/>
<path d="M41.6948 39.2168C41.5772 39.2939 41.4543 39.367 41.3274 39.4373V41.7375C41.461 41.6672 41.5772 41.5941 41.6948 41.517V39.2168Z" fill="#FFB842"/>
<path d="M39.8591 40.0503C39.7389 40.0868 39.6159 40.1206 39.4917 40.1517V42.46C39.6159 42.4276 39.7389 42.3937 39.8591 42.3572V40.0503Z" fill="#FFB842"/>
<path d="M40.7769 39.7093C40.6567 39.7621 40.5351 39.8135 40.4095 39.8608V42.161C40.5351 42.1123 40.658 42.0622 40.7769 42.0095V39.7093Z" fill="#FFB842"/>
<path d="M38.9413 40.2708C38.8211 40.2938 38.6982 40.3141 38.5739 40.3317V42.6413C38.6982 42.6224 38.8211 42.6021 38.9413 42.5791V40.2708Z" fill="#FFB842"/>
<path d="M32.5179 39.16C32.3843 39.0707 32.2667 38.9773 32.1518 38.8812V41.1665C32.2667 41.2653 32.3896 41.36 32.5179 41.4507V39.16Z" fill="#FFB842"/>
<path d="M31.6014 38.3278C31.4613 38.157 31.3382 37.9725 31.234 37.7771V40.0503C31.3375 40.2486 31.4606 40.4359 31.6014 40.6091V38.3278Z" fill="#FFB842"/>
<path d="M38.0235 40.3966C37.9032 40.4075 37.7803 40.4156 37.6574 40.4223V42.732C37.7803 42.7252 37.9032 42.7171 38.0235 42.7063V40.3966Z" fill="#FFB842"/>
<path d="M33.4357 39.6795C33.3101 39.6213 33.1872 39.5605 33.0696 39.4969V41.797C33.1872 41.862 33.3101 41.9242 33.4357 41.9838V39.6795Z" fill="#FFB842"/>
<path d="M42.2452 38.8095V41.1097C42.3739 40.9997 42.4961 40.8823 42.6112 40.7579V38.4577C42.4961 38.5821 42.3738 38.6995 42.2452 38.8095V38.8095Z" fill="#FFB842"/>
<path d="M37.107 40.4372C36.9827 40.4372 36.8612 40.4372 36.7396 40.4291V42.7388C36.8612 42.7388 36.9827 42.7455 37.107 42.7455V40.4372Z" fill="#FFB842"/>
<path d="M34.3535 40.0313C34.2293 39.9921 34.1064 39.9515 33.9861 39.9082V42.2084C34.1064 42.2517 34.2293 42.2936 34.3535 42.3328V40.0313Z" fill="#FFB842"/>
<path d="M36.1892 40.3939C36.0649 40.3818 35.9434 40.3682 35.8218 40.352V42.6522C35.9434 42.6684 36.0649 42.6833 36.1892 42.6941V40.3939Z" fill="#FFB842"/>
<path d="M35.2713 40.2627C35.1471 40.2383 35.0255 40.2113 34.9039 40.1829V42.483C35.0242 42.5128 35.1471 42.5385 35.2713 42.5642V40.2627Z" fill="#FFB842"/>
<path d="M38.9413 43.2137C38.8211 43.2367 38.6982 43.257 38.5739 43.2746V45.5842C38.6982 45.5653 38.8211 45.545 38.9413 45.522V43.2137Z" fill="#FFB842"/>
<path d="M37.107 43.3801C36.9827 43.3801 36.8612 43.3801 36.7396 43.372V45.6816C36.8612 45.6816 36.9827 45.6884 37.107 45.6884V43.3801Z" fill="#FFB842"/>
<path d="M38.0235 45.6492V43.3395C37.9032 43.3503 37.7803 43.3585 37.6574 43.3652V45.6749C37.7803 45.6681 37.9032 45.66 38.0235 45.6492Z" fill="#FFB842"/>
<path d="M36.1892 43.3368C36.0649 43.3246 35.9434 43.3111 35.8218 43.2949V45.5951C35.9434 45.6113 36.0649 45.6262 36.1892 45.637V43.3368Z" fill="#FFB842"/>
<path d="M40.7769 42.6522C40.6567 42.7049 40.5351 42.7564 40.4095 42.8037V45.1039C40.5351 45.0552 40.658 45.0051 40.7769 44.9524V42.6522Z" fill="#FFB842"/>
<path d="M41.6948 42.1597C41.5772 42.2368 41.4543 42.3099 41.3274 42.3802V44.6804C41.461 44.61 41.5772 44.537 41.6948 44.4598V42.1597Z" fill="#FFB842"/>
<path d="M43.469 40.4792C43.462 40.3209 43.4401 40.1637 43.4035 40.0097C43.3483 40.2275 43.2676 40.4378 43.163 40.6361V42.9241C43.3751 42.5294 43.4854 42.0868 43.4837 41.6374C43.4837 41.6117 43.4703 40.5049 43.469 40.4792Z" fill="#FFB842"/>
<path d="M42.6099 43.6954V41.4033C42.4947 41.5277 42.3725 41.6451 42.2438 41.7551V44.0553C42.3727 43.9427 42.495 43.8225 42.6099 43.6954Z" fill="#FFB842"/>
<path d="M39.8591 42.9904C39.7389 43.027 39.6159 43.0608 39.4917 43.0933V45.4002C39.6159 45.3677 39.7389 45.3339 39.8591 45.2974V42.9904Z" fill="#FFB842"/>
<path d="M35.2713 43.2056C35.1471 43.1812 35.0255 43.1542 34.9039 43.1257V45.4259C35.0242 45.4557 35.1471 45.4827 35.2713 45.5071V43.2056Z" fill="#FFB842"/>
<path d="M33.4357 42.6211C33.3101 42.5629 33.1872 42.502 33.0696 42.4384V44.7386C33.1872 44.8035 33.3101 44.8658 33.4357 44.9253V42.6211Z" fill="#FFB842"/>
<path d="M31.6014 41.268C31.4613 41.0972 31.3382 40.9127 31.234 40.7173V42.9877C31.3375 43.1861 31.4606 43.3733 31.6014 43.5465V41.268Z" fill="#FFB842"/>
<path d="M34.3535 42.9742C34.2293 42.935 34.1064 42.8944 33.9861 42.8511V45.1513C34.1064 45.1946 34.2293 45.2365 34.3535 45.2757V42.9742Z" fill="#FFB842"/>
<path d="M32.5179 44.3936V42.1028C32.3843 42.0135 32.2667 41.9202 32.1518 41.8241V44.1094C32.2667 44.2082 32.3896 44.3029 32.5179 44.3936Z" fill="#FFB842"/>
<path fill-rule="evenodd" clip-rule="evenodd" d="M44.2465 23.4916C44.2465 25.3756 43.5075 27.1824 42.1922 28.5146C40.8768 29.8468 39.0928 30.5952 37.2326 30.5952C35.3724 30.5952 33.5883 29.8468 32.273 28.5146C30.9576 27.1824 30.2187 25.3756 30.2187 23.4916C30.2187 19.5678 33.3582 8.51609 37.2299 8.51609C41.1016 8.51609 44.2465 19.5692 44.2465 23.4916Z" fill="#5842E4"/>
<path d="M37.2339 31.3569C35.175 31.3544 33.2011 30.5249 31.7452 29.0505C30.2893 27.576 29.4703 25.5769 29.4678 23.4916C29.4678 21.2672 30.3536 17.3826 31.5747 14.253C32.7316 11.2871 34.6474 7.75838 37.2339 7.75838C39.8204 7.75838 41.7375 11.2925 42.8945 14.253C44.1142 17.3826 45 21.2672 45 23.4916C44.9979 25.577 44.179 27.5763 42.723 29.0508C41.267 30.5254 39.2929 31.3548 37.2339 31.3569V31.3569ZM37.2339 9.28056C34.2493 9.28056 30.9762 19.2552 30.9762 23.4876C30.9762 25.1684 31.6355 26.7804 32.809 27.969C33.9826 29.1575 35.5742 29.8253 37.2339 29.8253C38.8936 29.8253 40.4852 29.1575 41.6588 27.969C42.8324 26.7804 43.4917 25.1684 43.4917 23.4876C43.4917 19.2552 40.2185 9.28056 37.2339 9.28056Z" fill="#243047"/>
<path d="M37.3341 37.0045C37.2351 37.0045 37.137 36.9848 37.0455 36.9463C36.954 36.9079 36.8708 36.8516 36.8008 36.7806C36.7309 36.7095 36.6754 36.6253 36.6376 36.5325C36.5998 36.4398 36.5804 36.3404 36.5806 36.2401V22.4823C36.5763 22.3793 36.5927 22.2764 36.6286 22.18C36.6646 22.0835 36.7195 21.9955 36.7899 21.921C36.8604 21.8466 36.945 21.7874 37.0386 21.747C37.1322 21.7065 37.233 21.6856 37.3348 21.6856C37.4366 21.6856 37.5373 21.7065 37.631 21.747C37.7246 21.7874 37.8092 21.8466 37.8796 21.921C37.9501 21.9955 38.005 22.0835 38.0409 22.18C38.0769 22.2764 38.0932 22.3793 38.089 22.4823V36.2401C38.089 36.4428 38.0094 36.6373 37.8679 36.7806C37.7263 36.924 37.5343 37.0045 37.3341 37.0045V37.0045Z" fill="#243047"/>
<path d="M36.8304 12.0692C36.8304 12.0692 31.8071 16.8049 32.5927 20.3512C33.3783 23.8976 38.9694 17.7249 36.8304 12.0692Z" fill="#A597FF"/>
<path d="M31.922 32.6613C31.91 31.6248 31.91 31.6154 31.9073 31.5788C31.9073 31.4435 31.89 31.3163 31.8713 31.1824C31.9059 30.9632 31.922 30.7414 31.9194 30.5194C31.9194 30.4355 31.9194 30.3502 31.906 30.2609C31.9198 30.1211 31.9256 29.9806 31.9234 29.8401V29.7157C31.9113 28.6792 31.9113 28.6698 31.9087 28.6332C31.9087 28.4979 31.8913 28.3707 31.8726 28.2368C31.9072 28.0176 31.9233 27.7958 31.9207 27.5738C31.902 26.0313 30.9788 24.5795 29.3823 23.5918C27.9876 22.7258 26.1626 22.2482 24.2441 22.2482H24.1039C19.7646 22.3064 16.3832 24.727 16.4246 27.7646C16.4272 27.9371 16.4411 28.1094 16.466 28.2801C16.4463 28.4001 16.4329 28.5212 16.426 28.6427C16.4153 28.801 16.426 30.0174 16.426 30.0296C16.426 30.1126 16.43 30.1992 16.438 30.2894C16.426 30.4247 16.4193 30.5694 16.4206 30.7075C16.4232 30.88 16.4371 31.0522 16.462 31.223C16.4422 31.343 16.4289 31.4641 16.422 31.5856C16.4113 31.7439 16.422 32.9603 16.422 32.9725C16.422 33.0554 16.426 33.142 16.434 33.2322C16.422 33.3675 16.4153 33.5123 16.4166 33.6503C16.4192 33.8229 16.4331 33.9951 16.458 34.1658C16.4382 34.2859 16.4249 34.407 16.4179 34.5285C16.4073 34.6868 16.4179 35.9032 16.4179 35.9153C16.4179 35.9983 16.422 36.0849 16.43 36.1751C16.4179 36.3104 16.4113 36.4552 16.4126 36.5932C16.4152 36.7658 16.4291 36.938 16.454 37.1087C16.4342 37.2288 16.4208 37.3498 16.4139 37.4713C16.4033 37.6297 16.4139 38.846 16.4139 38.8582C16.4139 38.9412 16.4179 39.0278 16.426 39.118C16.4139 39.2533 16.4073 39.3981 16.4086 39.5361C16.4112 39.7087 16.425 39.8809 16.45 40.0516C16.4302 40.1717 16.4168 40.2927 16.4099 40.4142C16.3992 40.5725 16.4099 41.7889 16.4099 41.8011C16.4099 41.8841 16.4139 41.9707 16.422 42.0609C16.4099 42.1962 16.4033 42.341 16.4046 42.479C16.4072 42.6516 16.421 42.8238 16.446 42.9945C16.4262 43.1145 16.4128 43.2356 16.4059 43.3571C16.3952 43.5154 16.4059 44.7318 16.4059 44.744C16.4059 44.827 16.4099 44.9136 16.4179 45.0038C16.4059 45.1391 16.3992 45.2839 16.4006 45.4219C16.4032 45.5944 16.417 45.7666 16.442 45.9374C16.4222 46.0574 16.4088 46.1785 16.4019 46.3C16.3912 46.4583 16.4019 47.6747 16.4019 47.6869C16.4019 47.7699 16.4059 47.8564 16.4139 47.9467C16.4019 48.082 16.3952 48.2267 16.3966 48.3647C16.3992 48.5373 16.413 48.7095 16.438 48.8803C16.4182 49.0003 16.4048 49.1214 16.3979 49.2429C16.3872 49.4012 16.3979 50.6176 16.3979 50.6297C16.4166 52.1803 17.3331 53.643 18.9243 54.6402C20.3217 55.517 22.1493 56 24.0705 56H24.2041C28.5487 55.9486 31.9234 53.5077 31.8873 50.4444V50.3199C31.8753 49.2835 31.8753 49.274 31.8726 49.2375C31.8726 49.1022 31.8552 48.975 31.8365 48.841C31.8711 48.6218 31.8872 48.4 31.8846 48.178C31.8846 48.0941 31.8846 48.0089 31.8713 47.9196C31.885 47.7798 31.8908 47.6393 31.8886 47.4988V47.3743C31.8766 46.3379 31.8766 46.3284 31.8739 46.2919C31.8739 46.1566 31.8566 46.0294 31.8379 45.8954C31.8725 45.6762 31.8886 45.4544 31.886 45.2324C31.886 45.1485 31.886 45.0633 31.8726 44.974C31.8864 44.8342 31.8922 44.6937 31.89 44.5532V44.4287C31.8779 43.3923 31.8779 43.3828 31.8753 43.3463C31.8753 43.211 31.8579 43.0838 31.8392 42.9498C31.8738 42.7306 31.8899 42.5088 31.8873 42.2868C31.8873 42.2043 31.8873 42.1191 31.8739 42.0284C31.8877 41.8886 31.8935 41.7481 31.8913 41.6076V41.4831C31.8793 40.4467 31.8793 40.4372 31.8766 40.4007C31.8766 40.2654 31.8592 40.1382 31.8405 40.0043C31.8751 39.785 31.8912 39.5632 31.8886 39.3413C31.8886 39.2587 31.8886 39.1735 31.8753 39.0828C31.889 38.943 31.8948 38.8025 31.8926 38.662V38.5376C31.8806 37.5011 31.8806 37.4916 31.8779 37.4551C31.8779 37.3198 31.8606 37.1926 31.8419 37.0587C31.8765 36.8395 31.8926 36.6177 31.89 36.3957C31.89 36.3118 31.89 36.2265 31.8766 36.1372C31.8904 35.9974 31.8962 35.8569 31.894 35.7164V35.592C31.8819 34.5555 31.8819 34.5461 31.8793 34.5095C31.8793 34.3742 31.8619 34.247 31.8432 34.1131C31.8778 33.8939 31.8939 33.6721 31.8913 33.4501C31.8913 33.3662 31.8913 33.281 31.8779 33.1917C31.8917 33.0518 31.8975 32.9113 31.8953 32.7709L31.922 32.6613Z" fill="#243047"/>
<path d="M24.1119 45.4773C27.54 45.4367 30.3456 47.1429 30.4364 49.3024C30.4364 49.3281 30.4498 50.4349 30.4511 50.4606C30.4765 52.6566 27.6856 54.471 24.2174 54.513C20.7492 54.5549 17.9169 52.8068 17.8942 50.6108C17.8942 50.5459 17.8822 49.4012 17.8862 49.3376C18.0171 47.2282 20.7452 45.5179 24.1119 45.4773Z" fill="#F7A937"/>
<path d="M24.2158 52.2022C27.6842 52.1605 30.4752 50.367 30.4498 48.1964C30.4244 46.0257 27.5921 44.2998 24.1237 44.3415C20.6554 44.3832 17.8643 46.1767 17.8898 48.3473C17.9152 50.518 20.7475 52.2439 24.2158 52.2022Z" fill="#FFDA65"/>
<path d="M24.1306 45.2365C26.8026 45.2054 28.9962 46.5381 29.0163 48.2132C29.0363 49.8883 26.8787 51.2752 24.2067 51.3063C21.5348 51.3374 19.3411 50.006 19.3224 48.3296C19.3037 46.6531 21.4519 45.269 24.1306 45.2365Z" fill="#FFC840"/>
<path d="M24.1119 42.5345C27.54 42.4939 30.3456 44.2001 30.4364 46.3595C30.4364 46.3852 30.4498 47.492 30.4511 47.5177C30.4765 49.7137 27.6856 51.5282 24.2174 51.5701C20.7492 51.6121 17.9169 49.8639 17.8942 47.6679C17.8942 47.603 17.8822 46.4583 17.8862 46.3947C18.0171 44.2853 20.7452 42.575 24.1119 42.5345Z" fill="#F7A937"/>
<path d="M24.2161 49.2582C27.6845 49.2165 30.4755 47.423 30.4501 45.2523C30.4246 43.0817 27.5923 41.3558 24.124 41.3975C20.6556 41.4392 17.8646 43.2326 17.89 45.4033C17.9155 47.574 20.7477 49.2998 24.2161 49.2582Z" fill="#FFDA65"/>
<path d="M24.2056 48.3638C26.8838 48.3317 29.039 46.9463 29.0193 45.2695C28.9997 43.5928 26.8126 42.2596 24.1345 42.2918C21.4563 42.324 19.3011 43.7093 19.3208 45.3861C19.3404 47.0629 21.5274 48.396 24.2056 48.3638Z" fill="#FFC840"/>
<path d="M24.1119 39.5916C27.54 39.551 30.3456 41.2572 30.4364 43.4166C30.4364 43.4423 30.4498 44.5491 30.4511 44.5748C30.4765 46.7708 27.6856 48.5853 24.2174 48.6272C20.7492 48.6692 17.9169 46.921 17.8942 44.725C17.8942 44.6601 17.8822 43.5154 17.8862 43.4518C18.0171 41.3424 20.7452 39.6322 24.1119 39.5916Z" fill="#F7A937"/>
<path d="M24.215 46.3155C27.6834 46.2738 30.4744 44.4803 30.449 42.3096C30.4235 40.139 27.5913 38.4131 24.1229 38.4548C20.6546 38.4965 17.8635 40.29 17.889 42.4606C17.9144 44.6313 20.7467 46.3572 24.215 46.3155Z" fill="#FFDA65"/>
<path d="M24.2059 45.4212C26.8841 45.389 29.0392 44.0036 29.0196 42.3269C28.9999 40.6501 26.8129 39.3169 24.1347 39.3491C21.4566 39.3813 19.3014 40.7667 19.321 42.4434C19.3407 44.1202 21.5277 45.4534 24.2059 45.4212Z" fill="#FFC840"/>
<path d="M24.1119 36.6487C27.54 36.6081 30.3456 38.3143 30.4364 40.4738C30.4364 40.4995 30.4498 41.6063 30.4511 41.632C30.4765 43.828 27.6856 45.6424 24.2174 45.6844C20.7492 45.7263 17.9169 43.9741 17.8942 41.7822C17.8942 41.7172 17.8822 40.5725 17.8862 40.5089C18.0171 38.3995 20.7452 36.6893 24.1119 36.6487Z" fill="#F7A937"/>
<path d="M24.2152 43.3728C27.6836 43.3311 30.4746 41.5376 30.4492 39.367C30.4238 37.1963 27.5915 35.4704 24.1231 35.5121C20.6548 35.5538 17.8637 37.3473 17.8892 39.5179C17.9146 41.6886 20.7469 43.4145 24.2152 43.3728Z" fill="#FFDA65"/>
<path d="M24.1279 42.5196C26.8062 42.4925 28.9641 41.1111 28.9475 39.4343C28.931 37.7574 26.7463 36.42 24.0679 36.4472C21.3895 36.4743 19.2317 37.8556 19.2483 39.5325C19.2648 41.2094 21.4495 42.5468 24.1279 42.5196Z" fill="#FFC840"/>
<path d="M24.1119 33.7058C27.54 33.6652 30.3456 35.3714 30.4364 37.5309C30.4364 37.5566 30.4498 38.6634 30.4511 38.6891C30.4765 40.8851 27.6856 42.6995 24.2174 42.7415C20.7492 42.7834 17.9169 41.0353 17.8942 38.8393C17.8942 38.7743 17.8822 37.6296 17.8862 37.566C18.0171 35.4566 20.7452 33.7464 24.1119 33.7058Z" fill="#F7A937"/>
<path d="M24.2155 40.4301C27.6839 40.3884 30.4749 38.595 30.4495 36.4243C30.424 34.2536 27.5918 32.5278 24.1234 32.5695C20.655 32.6112 17.864 34.4046 17.8894 36.5753C17.9149 38.7459 20.7472 40.4718 24.2155 40.4301Z" fill="#FFDA65"/>
<path d="M24.1306 33.465C26.8026 33.4338 28.9962 34.7666 29.0163 36.4417C29.0363 38.1168 26.8787 39.5036 24.2067 39.5347C21.5348 39.5659 19.3411 38.2345 19.3224 36.558C19.3037 34.8816 21.4519 33.4974 24.1306 33.465Z" fill="#FFC840"/>
<path d="M24.1119 30.7629C27.54 30.7223 30.3456 32.4285 30.4364 34.588C30.4364 34.6137 30.4498 35.7205 30.4511 35.7462C30.4765 37.9422 27.6856 39.7566 24.2174 39.7986C20.7492 39.8405 17.9169 38.0924 17.8942 35.8964C17.8942 35.8314 17.8822 34.6868 17.8862 34.6232C18.0171 32.5138 20.7452 30.8035 24.1119 30.7629Z" fill="#F7A937"/>
<path d="M24.2158 37.4874C27.6842 37.4457 30.4752 35.6523 30.4498 33.4816C30.4243 31.311 27.592 29.5851 24.1237 29.6268C20.6553 29.6685 17.8643 31.4619 17.8897 33.6326C17.9152 35.8033 20.7474 37.5291 24.2158 37.4874Z" fill="#FFDA65"/>
<path d="M24.1306 30.5221C26.8026 30.491 28.9962 31.8237 29.0163 33.4988C29.0363 35.1739 26.8787 36.5607 24.2067 36.5919C21.5348 36.623 19.3411 35.2916 19.3224 33.6151C19.3037 31.9387 21.4519 30.5546 24.1306 30.5221Z" fill="#FFC840"/>
<path d="M24.1119 27.82C27.54 27.7795 30.3456 29.4856 30.4364 31.6451C30.4364 31.6708 30.4498 32.7776 30.4511 32.8033C30.4765 34.9993 27.6856 36.8138 24.2174 36.8557C20.7492 36.8976 17.9169 35.1495 17.8942 32.9535C17.8942 32.8886 17.8822 31.7439 17.8862 31.6803C18.0171 29.5709 20.7452 27.8606 24.1119 27.82Z" fill="#F7A937"/>
<path d="M24.2147 34.5448C27.6831 34.5031 30.4741 32.7096 30.4487 30.539C30.4232 28.3683 27.5909 26.6424 24.1226 26.6841C20.6542 26.7258 17.8632 28.5193 17.8886 30.6899C17.9141 32.8606 20.7463 34.5865 24.2147 34.5448Z" fill="#FFDA65"/>
<path d="M24.1306 27.5792C26.8026 27.5481 28.9962 28.8808 29.0163 30.5559C29.0363 32.231 26.8787 33.6179 24.2067 33.649C21.5348 33.6801 19.3411 32.3487 19.3224 30.6723C19.3037 28.9958 21.4519 27.6117 24.1306 27.5792Z" fill="#FFC840"/>
<path d="M24.1119 24.8772C27.54 24.8366 30.3456 26.5428 30.4364 28.7022C30.4364 28.7279 30.4498 29.8347 30.4511 29.8604C30.4765 32.0565 27.6856 33.8709 24.2174 33.9128C20.7492 33.9548 17.9169 32.2026 17.8942 30.0106C17.8942 29.9457 17.8822 28.801 17.8862 28.7374C18.0171 26.628 20.7452 24.9178 24.1119 24.8772Z" fill="#F7A937"/>
<path d="M24.2149 31.6008C27.6833 31.5591 30.4743 29.7656 30.4489 27.5949C30.4235 25.4243 27.5912 23.6984 24.1228 23.7401C20.6545 23.7818 17.8634 25.5752 17.8889 27.7459C17.9143 29.9166 20.7466 31.6424 24.2149 31.6008Z" fill="#FFDA65"/>
<path d="M24.2045 30.7064C26.8826 30.6743 29.0378 29.2889 29.0182 27.6121C28.9985 25.9354 26.8115 24.6022 24.1333 24.6344C21.4551 24.6666 19.3 26.052 19.3196 27.7287C19.3393 29.4055 21.5263 30.7386 24.2045 30.7064Z" fill="#FFC840"/>
<path d="M28.2975 47.6179C28.4244 47.5475 28.5473 47.4744 28.6649 47.3973V45.0971C28.5473 45.1742 28.4244 45.2473 28.2975 45.3177V47.6179Z" fill="#FFB842"/>
<path d="M28.6649 48.04C28.5473 48.1171 28.4244 48.1902 28.2975 48.2606V50.5607C28.4244 50.4904 28.5473 50.4173 28.6649 50.3402V48.04Z" fill="#FFB842"/>
<path d="M29.2153 44.6885V46.9887C29.3441 46.8784 29.4668 46.761 29.5827 46.6369V44.3367C29.4671 44.4611 29.3445 44.5786 29.2153 44.6885V44.6885Z" fill="#FFB842"/>
<path d="M26.8293 48.8708C26.709 48.9073 26.5875 48.9411 26.4619 48.9723V51.2806C26.5875 51.2481 26.709 51.2143 26.8293 51.1777V48.8708Z" fill="#FFB842"/>
<path d="M27.7471 48.5325C27.6282 48.5853 27.5053 48.6367 27.3797 48.6841V50.9842C27.5053 50.9355 27.6282 50.8855 27.7471 50.8327V48.5325Z" fill="#FFB842"/>
<path d="M25.9101 49.094C25.7899 49.117 25.667 49.1373 25.5441 49.1549V51.4646C25.667 51.4456 25.7899 51.4253 25.9101 51.4023V49.094Z" fill="#FFB842"/>
<path d="M25.5454 48.5217C25.6683 48.5028 25.7912 48.4825 25.9114 48.4595V46.1512C25.7912 46.1742 25.6683 46.1945 25.5454 46.212V48.5217Z" fill="#FFB842"/>
<path d="M24.6276 48.6124C24.7505 48.6124 24.8734 48.5975 24.995 48.5866V46.2743C24.8734 46.2851 24.7505 46.2932 24.6276 46.3V48.6124Z" fill="#FFB842"/>
<path d="M26.4619 48.3377C26.5875 48.3052 26.709 48.2714 26.8293 48.2348V45.9279C26.709 45.9644 26.5875 45.9983 26.4619 46.0294V48.3377Z" fill="#FFB842"/>
<path d="M27.3797 48.0468C27.5053 47.9981 27.6282 47.948 27.7471 47.8952V45.5951C27.6282 45.6478 27.5053 45.6992 27.3797 45.7466V48.0468Z" fill="#FFB842"/>
<path d="M19.4894 47.9832C19.3558 47.8939 19.2369 47.8005 19.122 47.7045V49.9898C19.2369 50.0885 19.3598 50.1832 19.4894 50.2739V47.9832Z" fill="#FFB842"/>
<path d="M18.5716 47.1511C18.4315 46.9802 18.3084 46.7958 18.2042 46.6004V48.8708C18.3076 49.0692 18.4307 49.2564 18.5716 49.4296V47.1511Z" fill="#FFB842"/>
<path d="M24.995 49.2199C24.8734 49.2307 24.7505 49.2388 24.6276 49.2456V51.5512C24.7505 51.5512 24.8734 51.5363 24.995 51.5255V49.2199Z" fill="#FFB842"/>
<path d="M20.4059 48.5028C20.2803 48.4446 20.1574 48.3837 20.0398 48.3201V50.6203C20.1574 50.6852 20.2803 50.7475 20.4059 50.807V48.5028Z" fill="#FFB842"/>
<path d="M29.2153 47.6273V49.9275C29.3441 49.8172 29.4668 49.6998 29.5827 49.5757V47.2755C29.4671 47.4 29.3445 47.5174 29.2153 47.6273V47.6273Z" fill="#FFB842"/>
<path d="M30.4391 46.3595C30.4321 46.2013 30.4102 46.044 30.3736 45.89C30.319 46.108 30.2383 46.3184 30.1331 46.5165V48.8045C30.3453 48.4097 30.4556 47.9671 30.4538 47.5177C30.4524 47.492 30.4404 46.3852 30.4391 46.3595Z" fill="#FFB842"/>
<path d="M24.0772 49.2605C23.9543 49.2605 23.8314 49.2605 23.7098 49.2523V51.562C23.8314 51.562 23.9543 51.5688 24.0772 51.5688V49.2605Z" fill="#FFB842"/>
<path d="M21.3237 48.8545C21.1995 48.8153 21.0765 48.7747 20.9576 48.7314V51.0316C21.0765 51.0749 21.1995 51.1168 21.3237 51.1561V48.8545Z" fill="#FFB842"/>
<path d="M23.1593 49.2158C23.0351 49.205 22.9135 49.1915 22.7919 49.1752V51.4822C22.9135 51.4984 23.0351 51.5133 23.1593 51.5241V49.2158Z" fill="#FFB842"/>
<path d="M22.2415 49.0859C22.1173 49.0616 21.9957 49.0345 21.8741 49.0061V51.3063C21.9957 51.336 22.1173 51.3617 22.2415 51.3875V49.0859Z" fill="#FFB842"/>
<path d="M23.7098 46.3095V48.6191C23.8314 48.6191 23.9543 48.6259 24.0772 48.6259V46.3176C23.9543 46.3162 23.8314 46.3149 23.7098 46.3095Z" fill="#FFB842"/>
<path d="M22.7919 48.5393C22.9135 48.5555 23.0351 48.5704 23.1593 48.5812V46.2743C23.0351 46.2635 22.9135 46.2499 22.7919 46.2337V48.5393Z" fill="#FFB842"/>
<path d="M25.9101 52.0369C25.7899 52.0599 25.667 52.0802 25.5441 52.0978V54.4075C25.667 54.3885 25.7899 54.3682 25.9101 54.3452V52.0369Z" fill="#FFB842"/>
<path d="M24.0772 52.2033C23.9543 52.2033 23.8314 52.2033 23.7098 52.1952V54.5049C23.8314 54.5049 23.9543 54.5116 24.0772 54.5116V52.2033Z" fill="#FFB842"/>
<path d="M24.995 54.4724V52.1628C24.8734 52.1736 24.7505 52.1817 24.6276 52.1885V54.4981C24.7505 54.4913 24.8734 54.4832 24.995 54.4724Z" fill="#FFB842"/>
<path d="M23.1593 52.16C23.0351 52.1479 22.9135 52.1343 22.7919 52.1181V54.4251C22.9135 54.4413 23.0351 54.4562 23.1593 54.467V52.16Z" fill="#FFB842"/>
<path d="M27.7471 51.4754C27.6282 51.5282 27.5053 51.5796 27.3797 51.6269V53.9271C27.5053 53.8784 27.6282 53.8284 27.7471 53.7756V51.4754Z" fill="#FFB842"/>
<path d="M28.6649 50.9829C28.5473 51.06 28.4244 51.1331 28.2975 51.2034V53.5036C28.4244 53.4333 28.5473 53.3602 28.6649 53.2831V50.9829Z" fill="#FFB842"/>
<path d="M30.4391 49.3024C30.4321 49.1441 30.4102 48.9869 30.3736 48.8329C30.319 49.0509 30.2383 49.2613 30.1331 49.4594V51.7474C30.3453 51.3526 30.4556 50.91 30.4538 50.4606C30.4524 50.4349 30.4404 49.3281 30.4391 49.3024Z" fill="#FFB842"/>
<path d="M30.3736 42.9471C30.319 43.1651 30.2383 43.3755 30.1331 43.5736V45.8684C30.3453 45.4736 30.4556 45.031 30.4538 44.5816C30.4538 44.5559 30.4404 43.4491 30.4391 43.4234C30.4325 43.2629 30.4106 43.1034 30.3736 42.9471V42.9471Z" fill="#FFB842"/>
<path d="M29.5827 52.5186V50.2184C29.4668 50.3425 29.3441 50.4599 29.2153 50.5702V52.8704C29.3441 52.7601 29.4668 52.6427 29.5827 52.5186V52.5186Z" fill="#FFB842"/>
<path d="M26.8293 51.8137C26.709 51.8502 26.5875 51.884 26.4619 51.9151V54.2234C26.5875 54.191 26.709 54.1571 26.8293 54.1206V51.8137Z" fill="#FFB842"/>
<path d="M20.0398 47.672C20.1574 47.7369 20.2803 47.7992 20.4059 47.8587V45.5585C20.2803 45.5003 20.1574 45.4394 20.0398 45.3759V47.672Z" fill="#FFB842"/>
<path d="M19.122 47.0469C19.2369 47.1456 19.3598 47.2404 19.4894 47.331V45.0403C19.3558 44.951 19.2369 44.8576 19.122 44.7616V47.0469Z" fill="#FFB842"/>
<path d="M18.2042 43.6575V45.9279C18.3076 46.1263 18.4307 46.3135 18.5716 46.4867V44.2082C18.4315 44.0373 18.3084 43.8529 18.2042 43.6575V43.6575Z" fill="#FFB842"/>
<path d="M22.2415 52.0288C22.1173 52.0044 21.9957 51.9774 21.8741 51.949V54.2492C21.9957 54.2789 22.1173 54.3046 22.2415 54.3303V52.0288Z" fill="#FFB842"/>
<path d="M20.9576 48.0901C21.0765 48.1334 21.1995 48.1753 21.3237 48.2145V45.9144C21.1995 45.8751 21.0765 45.8345 20.9576 45.7912V48.0901Z" fill="#FFB842"/>
<path d="M21.8741 48.3675C21.9957 48.3972 22.1173 48.4229 22.2415 48.4486V46.139C22.1173 46.1146 21.9957 46.0876 21.8741 46.0591V48.3675Z" fill="#FFB842"/>
<path d="M20.4059 51.4456C20.2803 51.3875 20.1574 51.3266 20.0398 51.263V53.5632C20.1574 53.6281 20.2803 53.6903 20.4059 53.7499V51.4456Z" fill="#FFB842"/>
<path d="M18.5716 50.0939C18.4315 49.9231 18.3084 49.7386 18.2042 49.5432V51.8137C18.3076 52.012 18.4307 52.1993 18.5716 52.3725V50.0939Z" fill="#FFB842"/>
<path d="M21.3237 51.7974C21.1995 51.7582 21.0765 51.7176 20.9576 51.6743V53.9745C21.0765 54.0178 21.1995 54.0597 21.3237 54.099V51.7974Z" fill="#FFB842"/>
<path d="M19.4894 53.2168V50.9261C19.3558 50.8368 19.2369 50.7434 19.122 50.6473V52.9326C19.2369 53.0314 19.3638 53.1261 19.4894 53.2168Z" fill="#FFB842"/>
<path d="M28.2975 38.7946C28.4244 38.7243 28.5473 38.6512 28.6649 38.5741V36.2739C28.5473 36.351 28.4244 36.4241 28.2975 36.4944V38.7946Z" fill="#FFB842"/>
<path d="M28.6649 39.2168C28.5473 39.2939 28.4244 39.367 28.2975 39.4373V41.7375C28.4244 41.6672 28.5473 41.5941 28.6649 41.517V39.2168Z" fill="#FFB842"/>
<path d="M29.2153 35.8666V38.1668C29.3441 38.0565 29.4668 37.9391 29.5827 37.815V35.5148C29.4668 35.6389 29.3441 35.7563 29.2153 35.8666V35.8666Z" fill="#FFB842"/>
<path d="M26.8293 40.0503C26.709 40.0868 26.5875 40.1206 26.4619 40.1517V42.46C26.5875 42.4276 26.709 42.3937 26.8293 42.3572V40.0503Z" fill="#FFB842"/>
<path d="M27.7471 39.7093C27.6282 39.7621 27.5053 39.8135 27.3797 39.8608V42.161C27.5053 42.1123 27.6282 42.0622 27.7471 42.0095V39.7093Z" fill="#FFB842"/>
<path d="M25.9101 40.2708C25.7899 40.2938 25.667 40.3141 25.5441 40.3317V42.6413C25.667 42.6224 25.7899 42.6021 25.9101 42.5791V40.2708Z" fill="#FFB842"/>
<path d="M25.5454 39.6985C25.6683 39.6795 25.7912 39.6592 25.9114 39.6362V37.3279C25.7912 37.3509 25.6683 37.3712 25.5454 37.3888V39.6985Z" fill="#FFB842"/>
<path d="M24.6276 39.7891C24.7505 39.7824 24.8734 39.7742 24.995 39.7634V37.4538C24.8734 37.4646 24.7505 37.4727 24.6276 37.4795V39.7891Z" fill="#FFB842"/>
<path d="M26.4619 39.509C26.5875 39.4766 26.709 39.4427 26.8293 39.4062V37.106C26.709 37.1426 26.5875 37.1764 26.4619 37.2075V39.509Z" fill="#FFB842"/>
<path d="M27.3797 39.2235C27.5053 39.1748 27.6282 39.1248 27.7471 39.072V36.7718C27.6282 36.8246 27.5053 36.876 27.3797 36.9234V39.2235Z" fill="#FFB842"/>
<path d="M19.4894 39.16C19.3558 39.0707 19.2369 38.9773 19.122 38.8812V41.1665C19.2369 41.2653 19.3598 41.36 19.4894 41.4507V39.16Z" fill="#FFB842"/>
<path d="M18.5716 38.3278C18.4315 38.157 18.3084 37.9725 18.2042 37.7771V40.0503C18.3076 40.2486 18.4307 40.4359 18.5716 40.6091V38.3278Z" fill="#FFB842"/>
<path d="M24.995 40.3966C24.8734 40.4075 24.7505 40.4156 24.6276 40.4223V42.732C24.7505 42.7252 24.8734 42.7171 24.995 42.7063V40.3966Z" fill="#FFB842"/>
<path d="M20.4059 39.6795C20.2803 39.6213 20.1574 39.5605 20.0398 39.4969V41.797C20.1574 41.862 20.2803 41.9242 20.4059 41.9838V39.6795Z" fill="#FFB842"/>
<path d="M29.2153 38.8095V41.1097C29.3441 40.9994 29.4668 40.882 29.5827 40.7579V38.4577C29.4668 38.5818 29.3441 38.6992 29.2153 38.8095Z" fill="#FFB842"/>
<path d="M30.4391 37.5363C30.4321 37.378 30.4102 37.2208 30.3736 37.0668C30.319 37.2848 30.2383 37.4951 30.1331 37.6932V39.9812C30.3444 39.5872 30.4542 39.1456 30.4524 38.6972C30.4524 38.6688 30.4404 37.562 30.4391 37.5363Z" fill="#FFB842"/>
<path d="M24.0772 40.4372C23.9543 40.4372 23.8314 40.4372 23.7098 40.4291V42.7388C23.8314 42.7388 23.9543 42.7455 24.0772 42.7455V40.4372Z" fill="#FFB842"/>
<path d="M21.3237 40.0313C21.1995 39.9921 21.0765 39.9515 20.9576 39.9082V42.2084C21.0765 42.2517 21.1995 42.2936 21.3237 42.3328V40.0313Z" fill="#FFB842"/>
<path d="M23.1593 40.3939C23.0351 40.3818 22.9135 40.3682 22.7919 40.352V42.6522C22.9135 42.6684 23.0351 42.6833 23.1593 42.6941V40.3939Z" fill="#FFB842"/>
<path d="M22.2415 40.2627C22.1173 40.2383 21.9957 40.2113 21.8741 40.1829V42.483C21.9957 42.5128 22.1173 42.5385 22.2415 42.5642V40.2627Z" fill="#FFB842"/>
<path d="M23.7098 37.4862V39.7959C23.8314 39.7959 23.9543 39.8027 24.0772 39.8027V37.4943C23.9543 37.493 23.8314 37.4916 23.7098 37.4862Z" fill="#FFB842"/>
<path d="M22.7919 39.7161C22.9135 39.7323 23.0351 39.7472 23.1593 39.758V37.4578C23.0351 37.4456 22.9135 37.4321 22.7919 37.4159V39.7161Z" fill="#FFB842"/>
<path d="M25.9101 43.2137C25.7899 43.2367 25.667 43.257 25.5441 43.2746V45.5842C25.667 45.5653 25.7899 45.545 25.9101 45.522V43.2137Z" fill="#FFB842"/>
<path d="M24.0772 43.3801C23.9543 43.3801 23.8314 43.3801 23.7098 43.372V45.6816C23.8314 45.6816 23.9543 45.6884 24.0772 45.6884V43.3801Z" fill="#FFB842"/>
<path d="M24.995 45.6492V43.3395C24.8734 43.3503 24.7505 43.3585 24.6276 43.3652V45.6749C24.7505 45.6681 24.8734 45.66 24.995 45.6492Z" fill="#FFB842"/>
<path d="M23.1593 43.3368C23.0351 43.3246 22.9135 43.3111 22.7919 43.2949V45.5951C22.9135 45.6113 23.0351 45.6262 23.1593 45.637V43.3368Z" fill="#FFB842"/>
<path d="M27.7471 42.6522C27.6282 42.7049 27.5053 42.7564 27.3797 42.8037V45.1039C27.5053 45.0552 27.6282 45.0051 27.7471 44.9524V42.6522Z" fill="#FFB842"/>
<path d="M28.6649 42.1597C28.5473 42.2368 28.4244 42.3099 28.2975 42.3802V44.6804C28.4244 44.61 28.5473 44.537 28.6649 44.4598V42.1597Z" fill="#FFB842"/>
<path d="M30.4391 40.4792C30.4321 40.3209 30.4102 40.1637 30.3736 40.0097C30.319 40.2276 30.2383 40.438 30.1331 40.6361V42.9241C30.3453 42.5294 30.4556 42.0868 30.4538 41.6374C30.4524 41.6117 30.4404 40.5049 30.4391 40.4792Z" fill="#FFB842"/>
<path d="M30.3736 34.1239C30.319 34.3419 30.2383 34.5523 30.1331 34.7504V37.0384C30.3453 36.6436 30.4556 36.201 30.4538 35.7516C30.4538 35.7259 30.4404 34.6191 30.4391 34.5934C30.4321 34.4352 30.4102 34.2779 30.3736 34.1239V34.1239Z" fill="#FFB842"/>
<path d="M29.5827 43.6954V41.4033C29.4668 41.5274 29.3441 41.6448 29.2153 41.7551V44.0553C29.3444 43.9424 29.467 43.8222 29.5827 43.6954Z" fill="#FFB842"/>
<path d="M26.8293 42.9904C26.709 43.027 26.5875 43.0608 26.4619 43.0933V45.4002C26.5875 45.3677 26.709 45.3339 26.8293 45.2974V42.9904Z" fill="#FFB842"/>
<path d="M20.0398 38.8488C20.1574 38.9137 20.2803 38.9759 20.4059 39.0355V36.7353C20.2803 36.6771 20.1574 36.6162 20.0398 36.5526V38.8488Z" fill="#FFB842"/>
<path d="M19.122 38.2236C19.2369 38.3224 19.3598 38.4171 19.4894 38.5078V36.2171C19.3558 36.1278 19.2369 36.0344 19.122 35.9383V38.2236Z" fill="#FFB842"/>
<path d="M18.2042 34.8343V37.1047C18.3076 37.303 18.4307 37.4903 18.5716 37.6635V35.3849C18.4315 35.2141 18.3084 35.0296 18.2042 34.8343Z" fill="#FFB842"/>
<path d="M22.2415 43.2056C22.1173 43.1812 21.9957 43.1542 21.8741 43.1257V45.4259C21.9957 45.4557 22.1173 45.4827 22.2415 45.5071V43.2056Z" fill="#FFB842"/>
<path d="M20.9576 39.2668C21.0765 39.3101 21.1995 39.3521 21.3237 39.3913V37.0911C21.1995 37.0519 21.0765 37.0113 20.9576 36.968V39.2668Z" fill="#FFB842"/>
<path d="M21.8741 39.5442C21.9957 39.574 22.1173 39.5997 22.2415 39.6254V37.3252C22.1173 37.3009 21.9957 37.2738 21.8741 37.2454V39.5442Z" fill="#FFB842"/>
<path d="M20.4059 42.6211C20.2803 42.5629 20.1574 42.502 20.0398 42.4384V44.7386C20.1574 44.8035 20.2803 44.8658 20.4059 44.9253V42.6211Z" fill="#FFB842"/>
<path d="M18.5716 41.268C18.4315 41.0972 18.3084 40.9127 18.2042 40.7173V42.9877C18.3076 43.1861 18.4307 43.3733 18.5716 43.5465V41.268Z" fill="#FFB842"/>
<path d="M21.3237 42.9742C21.1995 42.935 21.0765 42.8944 20.9576 42.8511V45.1513C21.0765 45.1946 21.1995 45.2365 21.3237 45.2757V42.9742Z" fill="#FFB842"/>
<path d="M19.4894 44.3936V42.1028C19.3558 42.0135 19.2369 41.9202 19.122 41.8241V44.1094C19.2369 44.2082 19.3638 44.3029 19.4894 44.3936Z" fill="#FFB842"/>
<path d="M28.6649 30.3935C28.5473 30.4707 28.4244 30.5437 28.2975 30.6154V32.9156C28.4244 32.8439 28.5473 32.7709 28.6649 32.6937V30.3935Z" fill="#FFB842"/>
<path d="M26.8293 31.2243C26.709 31.2608 26.5875 31.2947 26.4619 31.3271V33.6341C26.5875 33.6016 26.709 33.5678 26.8293 33.5313V31.2243Z" fill="#FFB842"/>
<path d="M27.7471 30.8874C27.6282 30.9402 27.5053 30.9902 27.3797 31.0376V33.3378C27.5053 33.2891 27.6282 33.239 27.7471 33.1862V30.8874Z" fill="#FFB842"/>
<path d="M25.9101 31.4476C25.7899 31.4706 25.667 31.4909 25.5441 31.5085V33.8181C25.667 33.7992 25.7899 33.7789 25.9101 33.7559V31.4476Z" fill="#FFB842"/>
<path d="M19.4894 30.3367C19.3558 30.2474 19.2369 30.1554 19.122 30.058V32.3446C19.2369 32.4421 19.3598 32.5368 19.4894 32.6274V30.3367Z" fill="#FFB842"/>
<path d="M18.5716 29.5046C18.4309 29.3342 18.3078 29.1497 18.2042 28.9539V31.2243C18.3076 31.4227 18.4307 31.6099 18.5716 31.7831V29.5046Z" fill="#FFB842"/>
<path d="M24.995 31.5734C24.8734 31.5842 24.7505 31.5937 24.6276 31.5991V33.9088C24.7505 33.9088 24.8734 33.8939 24.995 33.883V31.5734Z" fill="#FFB842"/>
<path d="M20.4059 30.8563C20.2803 30.7981 20.1574 30.7372 20.0398 30.6736V32.9738C20.1574 33.0388 20.2803 33.101 20.4059 33.1605V30.8563Z" fill="#FFB842"/>
<path d="M29.2153 29.9863V32.2865C29.3441 32.1762 29.4668 32.0587 29.5827 31.9347V29.6318C29.4668 29.7567 29.3442 29.8751 29.2153 29.9863Z" fill="#FFB842"/>
<path d="M30.4391 28.7131C30.4321 28.5548 30.4102 28.3976 30.3736 28.2435C30.319 28.4615 30.2383 28.6719 30.1331 28.87V31.1594C30.3452 30.7641 30.4554 30.3211 30.4538 29.8713C30.4524 29.8456 30.4404 28.7388 30.4391 28.7131Z" fill="#FFB842"/>
<path d="M24.0772 31.614C23.9543 31.614 23.8314 31.614 23.7098 31.6072V33.9155C23.8314 33.9155 23.9543 33.9223 24.0772 33.9223V31.614Z" fill="#FFB842"/>
<path d="M21.3237 31.2081C21.1995 31.1688 21.0765 31.1282 20.9576 31.085V33.3851C21.0765 33.4298 21.1995 33.4704 21.3237 33.5096V31.2081Z" fill="#FFB842"/>
<path d="M23.1593 31.5707C23.0351 31.5585 22.9135 31.545 22.7919 31.5288V33.8289C22.9135 33.8452 23.0351 33.86 23.1593 33.8722V31.5707Z" fill="#FFB842"/>
<path d="M22.2415 31.4394C22.1173 31.4151 21.9957 31.388 21.8741 31.3596V33.6598C21.9957 33.6896 22.1173 33.7166 22.2415 33.741V31.4394Z" fill="#FFB842"/>
<path d="M25.9101 34.3904C25.7899 34.4135 25.667 34.4337 25.5441 34.4513V36.761C25.667 36.742 25.7899 36.7217 25.9101 36.6987V34.3904Z" fill="#FFB842"/>
<path d="M24.0772 34.5569C23.9543 34.5569 23.8314 34.5569 23.7098 34.5501V36.8584C23.8314 36.8584 23.9543 36.8584 24.0772 36.8584V34.5569Z" fill="#FFB842"/>
<path d="M24.995 36.8259V34.5163C24.8734 34.5271 24.7505 34.5366 24.6276 34.542V36.8516C24.7505 36.8462 24.8734 36.8368 24.995 36.8259Z" fill="#FFB842"/>
<path d="M23.1593 34.5136C23.0351 34.5014 22.9135 34.4879 22.7919 34.473V36.7732C22.9135 36.7894 23.0351 36.8043 23.1593 36.8165V34.5136Z" fill="#FFB842"/>
<path d="M27.7471 33.8262C27.6282 33.879 27.5053 33.9291 27.3797 33.9764V36.2766C27.5053 36.2279 27.6282 36.1778 27.7471 36.1251V33.8262Z" fill="#FFB842"/>
<path d="M28.6649 33.3364C28.5473 33.4135 28.4244 33.4866 28.2975 33.5583V35.8585C28.4244 35.7868 28.5473 35.7137 28.6649 35.6366V33.3364Z" fill="#FFB842"/>
<path d="M30.4391 31.6614C30.4321 31.5031 30.4102 31.3459 30.3736 31.1918C30.319 31.4098 30.2383 31.6202 30.1331 31.8183V34.0968C30.3452 33.7016 30.4554 33.2586 30.4538 32.8087C30.4524 32.7884 30.4404 31.6816 30.4391 31.6614Z" fill="#FFB842"/>
<path d="M29.5827 34.8721V32.5719C29.4668 32.696 29.3441 32.8134 29.2153 32.9237V35.2239C29.3441 35.1136 29.4668 34.9962 29.5827 34.8721V34.8721Z" fill="#FFB842"/>
<path d="M26.8293 34.1672C26.709 34.2037 26.5875 34.2376 26.4619 34.27V36.5702C26.5875 36.5377 26.709 36.5039 26.8293 36.4674V34.1672Z" fill="#FFB842"/>
<path d="M22.2415 34.3823C22.1173 34.358 21.9957 34.3309 21.8741 34.3025V36.6027C21.9957 36.6324 22.1173 36.6595 22.2415 36.6839V34.3823Z" fill="#FFB842"/>
<path d="M20.4059 33.7992C20.2803 33.741 20.1574 33.6815 20.0398 33.6165V35.9167C20.1574 35.9816 20.2803 36.0439 20.4059 36.1034V33.7992Z" fill="#FFB842"/>
<path d="M18.5716 32.4475C18.4309 32.2771 18.3078 32.0926 18.2042 31.8968V34.1672C18.3076 34.3656 18.4307 34.5528 18.5716 34.726V32.4475Z" fill="#FFB842"/>
<path d="M21.3237 34.151C21.1995 34.1117 21.0765 34.0711 20.9576 34.0278V36.328C21.0765 36.3727 21.1995 36.4133 21.3237 36.4525V34.151Z" fill="#FFB842"/>
<path d="M19.4894 35.5703V33.285C19.3558 33.1957 19.2369 33.1037 19.122 33.0063V35.2929C19.2369 35.3849 19.3638 35.4797 19.4894 35.5703Z" fill="#FFB842"/>
<path d="M24.0771 14.9661C27.9493 14.9661 31.0884 11.7869 31.0884 7.86527C31.0884 3.94361 27.9493 0.764473 24.0771 0.764473C20.2049 0.764473 17.0659 3.94361 17.0659 7.86527C17.0659 11.7869 20.2049 14.9661 24.0771 14.9661Z" fill="#22C79A"/>
<path d="M24.0771 15.7305C22.5412 15.7305 21.0397 15.2693 19.7625 14.405C18.4854 13.5408 17.49 12.3124 16.9022 10.8752C16.3144 9.43799 16.1606 7.85655 16.4603 6.33083C16.7599 4.80512 17.4996 3.40366 18.5857 2.30369C19.6718 1.20371 21.0556 0.454612 22.5621 0.151129C24.0685 -0.152354 25.63 0.00340435 27.0491 0.598708C28.4682 1.19401 29.681 2.20212 30.5344 3.49556C31.3877 4.789 31.8432 6.30967 31.8432 7.86527C31.8411 9.95061 31.0222 11.9499 29.5662 13.4245C28.1103 14.899 26.1362 15.7284 24.0771 15.7305ZM24.0771 1.52353C22.8395 1.52353 21.6296 1.89523 20.6005 2.59163C19.5714 3.28802 18.7694 4.27783 18.2957 5.43589C17.8221 6.59395 17.6982 7.86824 17.9396 9.09763C18.1811 10.327 18.7771 11.4563 19.6522 12.3426C20.5274 13.229 21.6424 13.8326 22.8563 14.0771C24.0702 14.3217 25.3284 14.1962 26.4719 13.7165C27.6153 13.2368 28.5927 12.4245 29.2803 11.3822C29.9679 10.34 30.3349 9.11469 30.3349 7.86121C30.3321 6.18161 29.6717 4.57168 28.4987 3.3844C27.3256 2.19712 25.7356 1.52938 24.0771 1.52759V1.52353Z" fill="#243047"/>
<path d="M24.1733 27.1395C24.0742 27.1396 23.9761 27.12 23.8846 27.0818C23.793 27.0435 23.7098 26.9873 23.6396 26.9164C23.5695 26.8456 23.5139 26.7614 23.476 26.6687C23.438 26.576 23.4185 26.4767 23.4185 26.3763V10.0126C23.4142 9.90955 23.4305 9.80673 23.4665 9.71029C23.5025 9.61384 23.5573 9.52575 23.6278 9.45133C23.6982 9.37691 23.7828 9.3177 23.8765 9.27724C23.9701 9.23679 24.0708 9.21593 24.1726 9.21593C24.2744 9.21593 24.3752 9.23679 24.4688 9.27724C24.5625 9.3177 24.647 9.37691 24.7175 9.45133C24.7879 9.52575 24.8428 9.61384 24.8788 9.71029C24.9147 9.80673 24.9311 9.90955 24.9268 10.0126V26.3763C24.9268 26.5787 24.8474 26.7728 24.7061 26.916C24.5648 27.0591 24.3731 27.1395 24.1733 27.1395V27.1395Z" fill="#243047"/>
<path d="M20.8842 8.62163C20.8843 7.84905 21.0802 7.08944 21.4532 6.41546C21.8261 5.74148 22.3635 5.17569 23.014 4.7722C23.6646 4.36872 24.4065 4.14105 25.1687 4.11096C25.931 4.08087 26.6881 4.24938 27.3677 4.60037C26.9928 4.02137 26.4915 3.5374 25.9026 3.18587C25.3136 2.83434 24.6527 2.62465 23.971 2.57301C23.2893 2.52136 22.6049 2.62915 21.9709 2.88804C21.3368 3.14693 20.77 3.54999 20.3143 4.06608C19.8586 4.58216 19.5261 5.19745 19.3426 5.86441C19.159 6.53136 19.1294 7.23212 19.2559 7.91253C19.3823 8.59295 19.6616 9.23481 20.072 9.78851C20.4825 10.3422 21.0131 10.7929 21.623 11.1058C21.1407 10.3694 20.8837 9.50529 20.8842 8.62163V8.62163Z" fill="#02E89B"/>
<path d="M29.353 28.8145L29.9528 27.3045L31.0777 26.4643L29.9288 25.6633L29.2848 24.1749L28.685 25.6863L27.5601 26.5265L28.709 27.3262L29.353 28.8145Z" fill="white"/>
<path d="M21.0792 46.2973C21.0792 46.162 21.0605 46.0334 21.0418 45.8995C21.0764 45.6803 21.0925 45.4585 21.0899 45.2365C21.0899 45.154 21.0899 45.0687 21.0779 44.9781C21.0905 44.8377 21.0959 44.6968 21.0939 44.5559C21.0939 44.5491 21.0819 43.4207 21.0792 43.3544C21.0792 43.2191 21.0605 43.0906 21.0418 42.9566C21.0764 42.7374 21.0925 42.5156 21.0899 42.2936C21.0712 40.7511 20.1547 39.2993 18.5515 38.3116C17.1554 37.4456 15.3305 36.968 13.412 36.968H13.2784C8.93378 37.0194 5.55775 39.44 5.59382 42.4776C5.59532 42.6502 5.60871 42.8225 5.6339 42.9931C5.6141 43.1127 5.60072 43.2333 5.59382 43.3544C5.58313 43.5141 5.59382 44.7305 5.59382 44.7426C5.59382 44.8252 5.59382 44.9118 5.60718 45.0024C5.59342 45.1413 5.58762 45.2809 5.58981 45.4205C5.59131 45.5931 5.6047 45.7653 5.62989 45.936C5.61009 46.0556 5.59671 46.1762 5.58981 46.2973C5.57912 46.4569 5.58981 47.6733 5.58981 47.6855C5.58981 47.7681 5.58981 47.8546 5.60317 47.9453C5.58941 48.0842 5.58362 48.2238 5.5858 48.3634C5.5873 48.536 5.60069 48.7082 5.62588 48.8789C5.60601 48.9989 5.59263 49.12 5.5858 49.2415C5.57512 49.3998 5.5858 50.6162 5.5858 50.6284C5.60451 52.179 6.52099 53.6416 8.11215 54.6388C9.50959 55.5156 11.3372 55.9986 13.2597 55.9986H13.3933C15.3425 55.9756 17.1902 55.4574 18.5956 54.5455C20.1908 53.509 21.0952 52.0139 21.0765 50.443C21.0765 50.4349 21.0645 49.3065 21.0618 49.2402C21.0618 49.1049 21.0431 48.9763 21.0244 48.8424C21.059 48.6232 21.0751 48.4014 21.0725 48.1794C21.0725 48.0968 21.0725 48.0116 21.0605 47.9209C21.0732 47.7806 21.0785 47.6397 21.0765 47.4988C21.1006 47.492 21.0819 46.3636 21.0792 46.2973Z" fill="#243047"/>
<path d="M13.2877 45.4773C16.7159 45.4367 19.5214 47.1429 19.6123 49.3024C19.6123 49.3281 19.6256 50.4349 19.627 50.4606C19.6524 52.6566 16.8615 54.471 13.3933 54.513C9.92506 54.5549 7.09278 52.8068 7.07274 50.6108C7.07274 50.5459 7.06071 49.4012 7.06472 49.3376C7.19298 47.2282 9.92105 45.5179 13.2877 45.4773Z" fill="#F7A937"/>
<path d="M13.3925 52.2024C16.8608 52.1607 19.6519 50.3672 19.6264 48.1966C19.601 46.0259 16.7687 44.3 13.3004 44.3417C9.83201 44.3834 7.04098 46.1769 7.06642 48.3475C7.09185 50.5182 9.92413 52.2441 13.3925 52.2024Z" fill="#FFDA65"/>
<path d="M13.382 51.3081C16.0602 51.2759 18.2153 49.8905 18.1957 48.2138C18.176 46.537 15.989 45.2038 13.3108 45.236C10.6326 45.2682 8.47748 46.6536 8.49713 48.3303C8.51678 50.0071 10.7038 51.3403 13.382 51.3081Z" fill="#FFC840"/>
<path d="M13.2877 42.5345C16.7159 42.4939 19.5214 44.2001 19.6123 46.3595C19.6123 46.3852 19.6256 47.492 19.627 47.5177C19.6524 49.7137 16.8615 51.5282 13.3933 51.5701C9.92506 51.6121 7.09278 49.8639 7.07274 47.6679C7.07274 47.603 7.06071 46.4583 7.06472 46.3947C7.19298 44.2853 9.92105 42.575 13.2877 42.5345Z" fill="#F7A937"/>
<path d="M13.3914 49.2597C16.8597 49.218 19.6508 47.4245 19.6253 45.2539C19.5999 43.0832 16.7676 41.3573 13.2992 41.399C9.83089 41.4407 7.03985 43.2342 7.06529 45.4049C7.09072 47.5755 9.92301 49.3014 13.3914 49.2597Z" fill="#FFDA65"/>
<path d="M13.2924 48.3865C15.9708 48.3594 18.1286 46.978 18.112 45.3011C18.0955 43.6242 15.9108 42.2869 13.2324 42.314C10.5541 42.3411 8.39623 43.7225 8.41279 45.3994C8.42935 47.0762 10.614 48.4136 13.2924 48.3865Z" fill="#FFC840"/>
<path d="M13.2877 39.5916C16.7159 39.551 19.5214 41.2572 19.6123 43.4166C19.6123 43.4423 19.6256 44.5491 19.627 44.5748C19.6524 46.7708 16.8615 48.5853 13.3933 48.6272C9.92506 48.6692 7.09278 46.921 7.07274 44.725C7.07274 44.6601 7.06071 43.5154 7.06472 43.4518C7.19298 41.3424 9.92105 39.6322 13.2877 39.5916Z" fill="#F7A937"/>
<path d="M13.2971 38.4564C16.7706 38.4144 19.5963 40.1409 19.6216 42.3112C19.647 44.4815 16.8562 46.2743 13.3879 46.3176C9.91973 46.3609 7.08745 44.633 7.06206 42.4614C7.03668 40.2898 9.82888 38.497 13.2971 38.4564Z" fill="#FFDA65"/>
<path d="M13.3812 45.4227C16.0593 45.3905 18.2145 44.0052 18.1949 42.3284C18.1752 40.6517 15.9882 39.3185 13.31 39.3507C10.6318 39.3829 8.47665 40.7682 8.4963 42.445C8.51595 44.1217 10.703 45.4549 13.3812 45.4227Z" fill="#FFC840"/>
<path d="M17.4707 47.6179C17.5963 47.5475 17.7192 47.4744 17.8367 47.3973V45.0971C17.7192 45.1742 17.5976 45.2473 17.4707 45.3177V47.6179Z" fill="#FFB842"/>
<path d="M17.8367 48.04C17.7192 48.1171 17.5976 48.1902 17.4707 48.2606V50.5607C17.5963 50.4904 17.7192 50.4173 17.8367 50.3402V48.04Z" fill="#FFB842"/>
<path d="M18.3872 44.6885V46.9887C18.5166 46.8791 18.6393 46.7616 18.7546 46.6369V44.3367C18.6393 44.4614 18.5166 44.5789 18.3872 44.6885V44.6885Z" fill="#FFB842"/>
<path d="M16.0025 48.8708C15.8822 48.9073 15.7593 48.9411 15.6351 48.9723V51.2806C15.7593 51.2481 15.8822 51.2143 16.0025 51.1777V48.8708Z" fill="#FFB842"/>
<path d="M16.9203 48.5325C16.8 48.5853 16.6785 48.6367 16.5529 48.6841V50.9842C16.6771 50.9355 16.8 50.8855 16.9203 50.8327V48.5325Z" fill="#FFB842"/>
<path d="M15.0886 49.094C14.9684 49.117 14.8455 49.1373 14.7213 49.1549V51.4646C14.8455 51.4456 14.9671 51.4253 15.0886 51.4023V49.094Z" fill="#FFB842"/>
<path d="M14.7173 48.5217C14.8415 48.5028 14.9631 48.4825 15.0846 48.4595V46.1512C14.9644 46.1742 14.8415 46.1945 14.7173 46.212V48.5217Z" fill="#FFB842"/>
<path d="M13.7994 48.6124C13.9237 48.6124 14.0452 48.5975 14.1668 48.5866V46.2743C14.0452 46.2851 13.9237 46.2932 13.7994 46.3V48.6124Z" fill="#FFB842"/>
<path d="M15.6351 48.3377C15.7593 48.3052 15.8822 48.2714 16.0025 48.2348V45.9279C15.8822 45.9644 15.7593 45.9983 15.6351 46.0294V48.3377Z" fill="#FFB842"/>
<path d="M16.5582 48.0468C16.6825 47.9981 16.8054 47.948 16.9256 47.8952V45.5951C16.8054 45.6478 16.6838 45.6992 16.5582 45.7466V48.0468Z" fill="#FFB842"/>
<path d="M8.66122 47.9832C8.52762 47.8939 8.41005 47.8005 8.29382 47.7045V49.9898C8.41005 50.0885 8.53296 50.1832 8.66122 50.2739V47.9832Z" fill="#FFB842"/>
<path d="M7.74072 47.1511C7.60149 46.9799 7.4789 46.7954 7.37466 46.6004V48.8708C7.47767 49.0691 7.60032 49.2564 7.74072 49.4296V47.1511Z" fill="#FFB842"/>
<path d="M14.1668 49.2199C14.0452 49.2307 13.9237 49.2388 13.7994 49.2456V51.5512C13.9237 51.5512 14.0452 51.5363 14.1668 51.5255V49.2199Z" fill="#FFB842"/>
<path d="M9.57903 48.5028C9.45345 48.4446 9.33054 48.3837 9.21164 48.3201V50.6203C9.33054 50.6852 9.45345 50.7475 9.57903 50.807V48.5028Z" fill="#FFB842"/>
<path d="M18.3872 47.6273V49.9275C18.5166 49.8179 18.6393 49.7005 18.7546 49.5757V47.2755C18.6393 47.4003 18.5166 47.5178 18.3872 47.6273V47.6273Z" fill="#FFB842"/>
<path d="M19.6123 46.3595C19.6046 46.2013 19.5827 46.0442 19.5468 45.89C19.4917 46.108 19.4105 46.3184 19.305 46.5165V48.8045C19.5182 48.4101 19.629 47.9673 19.627 47.5177C19.631 47.492 19.6136 46.3852 19.6123 46.3595Z" fill="#FFB842"/>
<path d="M13.249 49.2605C13.1261 49.2605 13.0032 49.2605 12.8829 49.2523V51.562C13.0032 51.562 13.1261 51.5688 13.249 51.5688V49.2605Z" fill="#FFB842"/>
<path d="M10.4969 48.8545C10.3726 48.8153 10.2497 48.7747 10.1295 48.7314V51.0316C10.2497 51.0749 10.3726 51.1168 10.4969 51.1561V48.8545Z" fill="#FFB842"/>
<path d="M12.3312 49.2158C12.2083 49.205 12.0854 49.1915 11.9651 49.1752V51.4822C12.0854 51.4984 12.2083 51.5133 12.3312 51.5241V49.2158Z" fill="#FFB842"/>
<path d="M11.4147 49.0859C11.2905 49.0616 11.1675 49.0345 11.0473 49.0061V51.3063C11.1675 51.336 11.2905 51.3617 11.4147 51.3875V49.0859Z" fill="#FFB842"/>
<path d="M12.8829 46.3095V48.6191C13.0032 48.6191 13.1261 48.6259 13.249 48.6259V46.3176C13.1261 46.3162 13.0032 46.3149 12.8829 46.3095Z" fill="#FFB842"/>
<path d="M11.9651 48.5393C12.0854 48.5555 12.2083 48.5704 12.3312 48.5812V46.2743C12.2083 46.2635 12.0854 46.2499 11.9651 46.2337V48.5393Z" fill="#FFB842"/>
<path d="M15.0886 52.0369C14.9684 52.0599 14.8455 52.0802 14.7213 52.0978V54.4075C14.8455 54.3885 14.9671 54.3682 15.0886 54.3452V52.0369Z" fill="#FFB842"/>
<path d="M13.249 52.2033C13.1261 52.2033 13.0032 52.2033 12.8829 52.1952V54.5049C13.0032 54.5049 13.1261 54.5116 13.249 54.5116V52.2033Z" fill="#FFB842"/>
<path d="M14.1668 54.4724V52.1628C14.0452 52.1736 13.9237 52.1817 13.7994 52.1885V54.4981C13.9237 54.4913 14.0452 54.4832 14.1668 54.4724Z" fill="#FFB842"/>
<path d="M12.3312 52.16C12.2083 52.1479 12.0854 52.1343 11.9651 52.1181V54.4251C12.0854 54.4413 12.2083 54.4562 12.3312 54.467V52.16Z" fill="#FFB842"/>
<path d="M16.9203 51.4754C16.8 51.5282 16.6785 51.5796 16.5529 51.6269V53.9271C16.6771 53.8784 16.8 53.8284 16.9203 53.7756V51.4754Z" fill="#FFB842"/>
<path d="M17.8367 50.9829C17.7192 51.06 17.5976 51.1331 17.4707 51.2034V53.5036C17.5963 53.4333 17.7192 53.3602 17.8367 53.2831V50.9829Z" fill="#FFB842"/>
<path d="M19.6123 49.3024C19.6046 49.1442 19.5827 48.987 19.5468 48.8329C19.4917 49.0509 19.4105 49.2613 19.305 49.4594V51.7474C19.5182 51.353 19.629 50.9102 19.627 50.4606C19.631 50.4349 19.6136 49.3281 19.6123 49.3024Z" fill="#FFB842"/>
<path d="M19.5468 42.9471C19.4917 43.1652 19.4105 43.3755 19.305 43.5736V45.8684C19.5182 45.474 19.629 45.0312 19.627 44.5816C19.627 44.5559 19.6136 43.4491 19.6123 43.4234C19.6051 43.2629 19.5831 43.1035 19.5468 42.9471V42.9471Z" fill="#FFB842"/>
<path d="M18.7546 52.5186V50.2184C18.6389 50.3428 18.5163 50.4603 18.3872 50.5702V52.8704C18.5166 52.7608 18.6393 52.6433 18.7546 52.5186V52.5186Z" fill="#FFB842"/>
<path d="M16.0025 51.8137C15.8822 51.8502 15.7593 51.884 15.6351 51.9151V54.2234C15.7593 54.191 15.8822 54.1571 16.0025 54.1206V51.8137Z" fill="#FFB842"/>
<path d="M9.2103 47.672C9.3292 47.7369 9.45211 47.7992 9.57769 47.8587V45.5585C9.45211 45.5003 9.3292 45.4394 9.2103 45.3759V47.672Z" fill="#FFB842"/>
<path d="M8.29382 47.0469C8.41005 47.1456 8.53296 47.2404 8.66122 47.331V45.0403C8.52762 44.951 8.41005 44.8576 8.29382 44.7616V47.0469Z" fill="#FFB842"/>
<path d="M7.37735 43.6575V45.9279C7.47951 46.1261 7.60126 46.3134 7.74074 46.4867V44.2082C7.60243 44.0369 7.48074 43.8524 7.37735 43.6575Z" fill="#FFB842"/>
<path d="M11.4147 52.0288C11.2905 52.0044 11.1675 51.9774 11.0473 51.949V54.2492C11.1675 54.2789 11.2905 54.3046 11.4147 54.3303V52.0288Z" fill="#FFB842"/>
<path d="M10.1295 48.0901C10.2497 48.1334 10.3726 48.1753 10.4969 48.2145V45.9144C10.3726 45.8751 10.2497 45.8345 10.1295 45.7912V48.0901Z" fill="#FFB842"/>
<path d="M11.0473 48.3675C11.1675 48.3972 11.2905 48.4229 11.4147 48.4486V46.139C11.2905 46.1146 11.1675 46.0876 11.0473 46.0591V48.3675Z" fill="#FFB842"/>
<path d="M9.57903 51.4456C9.45345 51.3875 9.33054 51.3266 9.21164 51.263V53.5632C9.33054 53.6281 9.45345 53.6903 9.57903 53.7499V51.4456Z" fill="#FFB842"/>
<path d="M7.74072 50.0939C7.60149 49.9227 7.4789 49.7383 7.37466 49.5432V51.8137C7.47767 52.012 7.60032 52.1993 7.74072 52.3725V50.0939Z" fill="#FFB842"/>
<path d="M10.4969 51.7974C10.3726 51.7582 10.2497 51.7176 10.1295 51.6743V53.9745C10.2497 54.0178 10.3726 54.0597 10.4969 54.099V51.7974Z" fill="#FFB842"/>
<path d="M8.66122 53.2168V50.9261C8.52762 50.8368 8.41005 50.7434 8.29382 50.6473V52.9326C8.40872 53.0314 8.53296 53.1261 8.66122 53.2168Z" fill="#FFB842"/>
<path d="M21.5361 32.9576L16.1788 26.8025H20.3217L15.7393 20.6475H19.4707L13.1448 11.0084L6.82025 20.6475H10.5503L5.96789 26.8025H10.1121L4.75482 32.9576H21.5361Z" fill="#664FFA"/>
<path d="M21.5361 33.7207H4.75482C4.6097 33.7206 4.46769 33.6781 4.34579 33.5984C4.22389 33.5187 4.12727 33.405 4.0675 33.2711C4.00772 33.1372 3.98733 32.9887 4.00877 32.8433C4.03021 32.6979 4.09256 32.5619 4.18836 32.4515L8.44079 27.567H5.96789C5.82771 27.5667 5.69038 27.5269 5.5713 27.452C5.45222 27.3771 5.35608 27.2701 5.29367 27.1429C5.23126 27.0158 5.20503 26.8736 5.21793 26.7322C5.23082 26.5908 5.28234 26.4559 5.3667 26.3425L9.03664 21.412H6.81891C6.6826 21.4118 6.54889 21.3741 6.432 21.3031C6.3151 21.2321 6.21938 21.1303 6.15499 21.0086C6.0906 20.887 6.05995 20.7499 6.06629 20.612C6.07263 20.4741 6.11572 20.3405 6.191 20.2254L12.5169 10.5863C12.5856 10.4813 12.6789 10.3952 12.7885 10.3357C12.898 10.2761 13.0205 10.245 13.1448 10.245C13.2691 10.245 13.3915 10.2761 13.5011 10.3357C13.6107 10.3952 13.704 10.4813 13.7727 10.5863L20.0986 20.2254C20.1739 20.3405 20.217 20.4741 20.2233 20.612C20.2296 20.7499 20.199 20.887 20.1346 21.0086C20.0702 21.1303 19.9745 21.2321 19.8576 21.3031C19.7407 21.3741 19.607 21.4118 19.4707 21.412H17.2529L20.9242 26.3425C21.0086 26.456 21.0602 26.5911 21.073 26.7326C21.0859 26.874 21.0595 27.0164 20.997 27.1435C20.9344 27.2707 20.838 27.3777 20.7188 27.4525C20.5995 27.5273 20.462 27.567 20.3217 27.567H17.8488L22.1012 32.4515C22.197 32.5618 22.2593 32.6977 22.2808 32.843C22.3023 32.9882 22.282 33.1366 22.2224 33.2705C22.1628 33.4044 22.0663 33.518 21.9446 33.5979C21.8229 33.6777 21.6811 33.7203 21.5361 33.7207V33.7207ZM6.4248 32.1931H19.8648L15.6124 27.3072C15.5166 27.1969 15.4542 27.0608 15.4328 26.9155C15.4113 26.7701 15.4317 26.6216 15.4915 26.4877C15.5513 26.3538 15.6479 26.2401 15.7698 26.1604C15.8917 26.0806 16.0337 26.0382 16.1788 26.0381H18.808L15.1367 21.1076C15.0542 20.9941 15.0043 20.8597 14.9925 20.7192C14.9806 20.5788 15.0074 20.4378 15.0697 20.3118C15.1321 20.1858 15.2276 20.0797 15.3458 20.0052C15.4639 19.9307 15.6001 19.8908 15.7393 19.8898H18.0639L13.1448 12.3885L8.22704 19.8898H10.5463C10.6855 19.8908 10.8217 19.9307 10.9398 20.0052C11.058 20.0797 11.1535 20.1858 11.2159 20.3118C11.2782 20.4378 11.3049 20.5788 11.2931 20.7192C11.2813 20.8597 11.2314 20.9941 11.1488 21.1076L7.48156 26.0381H10.1121C10.2573 26.0379 10.3995 26.0802 10.5216 26.1598C10.6437 26.2395 10.7406 26.3531 10.8005 26.4871C10.8604 26.621 10.8809 26.7697 10.8595 26.9151C10.8382 27.0606 10.7758 27.1968 10.6799 27.3072L6.4248 32.1931Z" fill="#243047"/>
<path d="M13.1448 42.8213C13.0457 42.8213 12.9476 42.8015 12.8561 42.7631C12.7646 42.7246 12.6815 42.6683 12.6115 42.5973C12.5415 42.5263 12.4861 42.442 12.4483 42.3493C12.4105 42.2565 12.3911 42.1572 12.3913 42.0568V33.2255C12.3995 33.0285 12.4825 32.8423 12.6231 32.7058C12.7636 32.5694 12.9508 32.4932 13.1455 32.4932C13.3402 32.4932 13.5273 32.5694 13.6679 32.7058C13.8084 32.8423 13.8914 33.0285 13.8996 33.2255V42.0568C13.8996 42.1572 13.8801 42.2566 13.8422 42.3494C13.8042 42.4421 13.7486 42.5264 13.6785 42.5974C13.6084 42.6684 13.5252 42.7247 13.4337 42.7631C13.3421 42.8015 13.2439 42.8213 13.1448 42.8213V42.8213Z" fill="#243047"/>
<path fill-rule="evenodd" clip-rule="evenodd" d="M13.1568 13.8715L9.7327 18.7424L13.436 20.2606L13.1568 13.8715Z" fill="#A597FF"/>
</g>
<path d="M77.5605 33.5742H67.0488V41.4492H79.3359V45H62.6016V19.4062H79.2129V22.9922H67.0488V30.0586H77.5605V33.5742ZM90.0059 41.9414C91.0723 41.9414 91.957 41.6309 92.6602 41.0098C93.3633 40.3887 93.7383 39.6211 93.7852 38.707H97.8105C97.7637 39.8906 97.3945 40.998 96.7031 42.0293C96.0117 43.0488 95.0742 43.8574 93.8906 44.4551C92.707 45.0527 91.4297 45.3516 90.0586 45.3516C87.3984 45.3516 85.2891 44.4902 83.7305 42.7676C82.1719 41.0449 81.3926 38.666 81.3926 35.6309V35.1914C81.3926 32.2969 82.166 29.9824 83.7129 28.248C85.2598 26.502 87.3691 25.6289 90.041 25.6289C92.3027 25.6289 94.1426 26.291 95.5605 27.6152C96.9902 28.9277 97.7402 30.6562 97.8105 32.8008H93.7852C93.7383 31.7109 93.3633 30.8145 92.6602 30.1113C91.9688 29.4082 91.084 29.0566 90.0059 29.0566C88.623 29.0566 87.5566 29.5605 86.8066 30.5684C86.0566 31.5645 85.6758 33.082 85.6641 35.1211V35.8066C85.6641 37.8691 86.0332 39.4102 86.7715 40.4297C87.5215 41.4375 88.5996 41.9414 90.0059 41.9414ZM100.236 35.3145C100.236 33.4512 100.605 31.7754 101.344 30.2871C102.082 28.7871 103.119 27.6387 104.455 26.8418C105.791 26.0332 107.326 25.6289 109.061 25.6289C111.627 25.6289 113.707 26.4551 115.301 28.1074C116.906 29.7598 117.773 31.9512 117.902 34.6816L117.92 35.6836C117.92 37.5586 117.557 39.2344 116.83 40.7109C116.115 42.1875 115.084 43.3301 113.736 44.1387C112.4 44.9473 110.854 45.3516 109.096 45.3516C106.412 45.3516 104.262 44.4609 102.645 42.6797C101.039 40.8867 100.236 38.502 100.236 35.5254V35.3145ZM104.508 35.6836C104.508 37.6406 104.912 39.1758 105.721 40.2891C106.529 41.3906 107.654 41.9414 109.096 41.9414C110.537 41.9414 111.656 41.3789 112.453 40.2539C113.262 39.1289 113.666 37.4824 113.666 35.3145C113.666 33.3926 113.25 31.8691 112.418 30.7441C111.598 29.6191 110.479 29.0566 109.061 29.0566C107.666 29.0566 106.559 29.6133 105.738 30.7266C104.918 31.8281 104.508 33.4805 104.508 35.6836ZM125.549 25.9805L125.672 27.9668C127.008 26.4082 128.836 25.6289 131.156 25.6289C133.699 25.6289 135.439 26.6016 136.377 28.5469C137.76 26.6016 139.705 25.6289 142.213 25.6289C144.311 25.6289 145.869 26.209 146.889 27.3691C147.92 28.5293 148.447 30.2402 148.471 32.502V45H144.199V32.625C144.199 31.418 143.936 30.5332 143.408 29.9707C142.881 29.4082 142.008 29.127 140.789 29.127C139.816 29.127 139.02 29.3906 138.398 29.918C137.789 30.4336 137.361 31.1133 137.115 31.957L137.133 45H132.861V32.4844C132.803 30.2461 131.66 29.127 129.434 29.127C127.723 29.127 126.51 29.8242 125.795 31.2188V45H121.523V25.9805H125.549ZM175.611 38.4082C175.611 37.2832 175.213 36.416 174.416 35.8066C173.631 35.1973 172.207 34.582 170.145 33.9609C168.082 33.3398 166.441 32.6484 165.223 31.8867C162.891 30.4219 161.725 28.5117 161.725 26.1562C161.725 24.0938 162.562 22.3945 164.238 21.0586C165.926 19.7227 168.111 19.0547 170.795 19.0547C172.576 19.0547 174.164 19.3828 175.559 20.0391C176.953 20.6953 178.049 21.6328 178.846 22.8516C179.643 24.0586 180.041 25.4004 180.041 26.877H175.611C175.611 25.541 175.189 24.498 174.346 23.748C173.514 22.9863 172.318 22.6055 170.76 22.6055C169.307 22.6055 168.176 22.916 167.367 23.5371C166.57 24.1582 166.172 25.0254 166.172 26.1387C166.172 27.0762 166.605 27.8613 167.473 28.4941C168.34 29.1152 169.77 29.7246 171.762 30.3223C173.754 30.9082 175.354 31.582 176.561 32.3438C177.768 33.0938 178.652 33.9609 179.215 34.9453C179.777 35.918 180.059 37.0605 180.059 38.373C180.059 40.5059 179.238 42.2051 177.598 43.4707C175.969 44.7246 173.754 45.3516 170.953 45.3516C169.102 45.3516 167.396 45.0117 165.838 44.332C164.291 43.6406 163.084 42.6914 162.217 41.4844C161.361 40.2773 160.934 38.8711 160.934 37.2656H165.381C165.381 38.7188 165.861 39.8438 166.822 40.6406C167.783 41.4375 169.16 41.8359 170.953 41.8359C172.5 41.8359 173.66 41.5254 174.434 40.9043C175.219 40.2715 175.611 39.4395 175.611 38.4082ZM188.9 21.3574V25.9805H192.258V29.1445H188.9V39.7617C188.9 40.4883 189.041 41.0156 189.322 41.3438C189.615 41.6602 190.131 41.8184 190.869 41.8184C191.361 41.8184 191.859 41.7598 192.363 41.6426V44.9473C191.391 45.2168 190.453 45.3516 189.551 45.3516C186.27 45.3516 184.629 43.541 184.629 39.9199V29.1445H181.5V25.9805H184.629V21.3574H188.9ZM205.494 29.8828C204.932 29.7891 204.352 29.7422 203.754 29.7422C201.797 29.7422 200.479 30.4922 199.799 31.9922V45H195.527V25.9805H199.605L199.711 28.1074C200.742 26.4551 202.172 25.6289 204 25.6289C204.609 25.6289 205.113 25.7109 205.512 25.875L205.494 29.8828ZM219.029 45C218.842 44.6367 218.678 44.0449 218.537 43.2246C217.178 44.6426 215.514 45.3516 213.545 45.3516C211.635 45.3516 210.076 44.8066 208.869 43.7168C207.662 42.627 207.059 41.2793 207.059 39.6738C207.059 37.6465 207.809 36.0938 209.309 35.0156C210.82 33.9258 212.977 33.3809 215.777 33.3809H218.396V32.1328C218.396 31.1484 218.121 30.3633 217.57 29.7773C217.02 29.1797 216.182 28.8809 215.057 28.8809C214.084 28.8809 213.287 29.127 212.666 29.6191C212.045 30.0996 211.734 30.7148 211.734 31.4648H207.463C207.463 30.4219 207.809 29.4492 208.5 28.5469C209.191 27.6328 210.129 26.918 211.312 26.4023C212.508 25.8867 213.838 25.6289 215.303 25.6289C217.529 25.6289 219.305 26.1914 220.629 27.3164C221.953 28.4297 222.633 30 222.668 32.0273V40.6055C222.668 42.3164 222.908 43.6816 223.389 44.7012V45H219.029ZM214.336 41.9238C215.18 41.9238 215.971 41.7188 216.709 41.3086C217.459 40.8984 218.021 40.3477 218.396 39.6562V36.0703H216.094C214.512 36.0703 213.322 36.3457 212.525 36.8965C211.729 37.4473 211.33 38.2266 211.33 39.2344C211.33 40.0547 211.6 40.7109 212.139 41.2031C212.689 41.6836 213.422 41.9238 214.336 41.9238ZM232.494 21.3574V25.9805H235.852V29.1445H232.494V39.7617C232.494 40.4883 232.635 41.0156 232.916 41.3438C233.209 41.6602 233.725 41.8184 234.463 41.8184C234.955 41.8184 235.453 41.7598 235.957 41.6426V44.9473C234.984 45.2168 234.047 45.3516 233.145 45.3516C229.863 45.3516 228.223 43.541 228.223 39.9199V29.1445H225.094V25.9805H228.223V21.3574H232.494ZM249.791 39.832C249.791 39.0703 249.475 38.4902 248.842 38.0918C248.221 37.6934 247.184 37.3418 245.73 37.0371C244.277 36.7324 243.064 36.3457 242.092 35.877C239.959 34.8457 238.893 33.3516 238.893 31.3945C238.893 29.7539 239.584 28.3828 240.967 27.2812C242.35 26.1797 244.107 25.6289 246.24 25.6289C248.514 25.6289 250.348 26.1914 251.742 27.3164C253.148 28.4414 253.852 29.9004 253.852 31.6934H249.58C249.58 30.873 249.275 30.1934 248.666 29.6543C248.057 29.1035 247.248 28.8281 246.24 28.8281C245.303 28.8281 244.535 29.0449 243.938 29.4785C243.352 29.9121 243.059 30.4922 243.059 31.2188C243.059 31.875 243.334 32.3848 243.885 32.748C244.436 33.1113 245.549 33.4805 247.225 33.8555C248.9 34.2188 250.213 34.6582 251.162 35.1738C252.123 35.6777 252.832 36.2871 253.289 37.002C253.758 37.7168 253.992 38.584 253.992 39.6035C253.992 41.3145 253.283 42.7031 251.865 43.7695C250.447 44.8242 248.59 45.3516 246.293 45.3516C244.734 45.3516 243.346 45.0703 242.127 44.5078C240.908 43.9453 239.959 43.1719 239.279 42.1875C238.6 41.2031 238.26 40.1426 238.26 39.0059H242.408C242.467 40.0137 242.848 40.793 243.551 41.3438C244.254 41.8828 245.186 42.1523 246.346 42.1523C247.471 42.1523 248.326 41.9414 248.912 41.5195C249.498 41.0859 249.791 40.5234 249.791 39.832Z" fill="#5B4DB3"/>
</g>
<defs>
<clipPath id="clip0">
<rect width="256" height="56" fill="white"/>
</clipPath>
<clipPath id="clip1">
<rect width="41" height="56" fill="white" transform="translate(4)"/>
</clipPath>
</defs>
</svg>
